<svg id="Camada_1" data-name="Camada 1" xmlns="http://www.w3.org/2000/svg" viewBox="0 0 35 35"><defs><style>.cls-1{fill:#eaeaea;}.cls-2{fill:#a9a9aa;}</style></defs><title>ícones</title><rect class="cls-1" x="0.93" y="0.93" width="33.14" height="33.14" rx="5.02"/><path class="cls-2" d="M10.63,24.2H24.37a2.13,2.13,0,0,0,2.13-2.13V12.93a2.13,2.13,0,0,0-2.13-2.13H10.63A2.14,2.14,0,0,0,8.5,12.93v9.12A2.15,2.15,0,0,0,10.63,24.2Zm15-2.13a.68.68,0,0,1,0,.2l-4.57-4.59-.62.61L25.18,23a1.27,1.27,0,0,1-.79.28H10.63A1.27,1.27,0,0,1,9.84,23l4.75-4.75L16.26,20a1.76,1.76,0,0,0,2.48,0l6.9-6.9Zm-15-10.39H24.37a1.3,1.3,0,0,1,1,.44l-7.21,7.23a.89.89,0,0,1-1.23,0L9.69,12.12A1.22,1.22,0,0,1,10.63,11.68ZM9.38,13.06,14,17.65,9.4,22.25c0-.07,0-.13,0-.2Z"/><path class="cls-2" d="M24.37,24.33H10.63a2.27,2.27,0,0,1-2.25-2.28V12.93a2.29,2.29,0,0,1,2.25-2.26H24.37a2.26,2.26,0,0,1,2.25,2.26v9.14A2.26,2.26,0,0,1,24.37,24.33ZM10.63,10.92a2,2,0,0,0-2,2v9.12a2,2,0,0,0,2,2H24.37a2,2,0,0,0,2-2V12.93a2,2,0,0,0-2-2ZM24.39,23.45H10.63a1.38,1.38,0,0,1-.87-.32l-.1-.08,4.93-4.93,1.75,1.76a1.66,1.66,0,0,0,1.17.47,1.7,1.7,0,0,0,1.15-.47l7.11-7.11v9.3a.72.72,0,0,1,0,.24l-.07.18-.14-.13-4.48-4.51-.44.44,4.75,4.76-.1.08A1.36,1.36,0,0,1,24.39,23.45ZM10,23a1.08,1.08,0,0,0,.6.18H24.39A1.06,1.06,0,0,0,25,23l-4.57-4.57-1.59,1.6a1.91,1.91,0,0,1-2.66,0l-1.58-1.59Zm11.18-5.35L25.52,22V13.35ZM9.28,22.54v-.29s0-.05,0-.08a.49.49,0,0,1,0-.12V12.77l4.88,4.88Zm.22-9.19V22l4.3-4.32Zm8,6.36a1.07,1.07,0,0,1-.71-.27L9.52,12.12,9.59,12a1.36,1.36,0,0,1,1-.49H24.37a1.4,1.4,0,0,1,1.05.48l.08.09-.08.08-7.21,7.23A1,1,0,0,1,17.52,19.71Zm-7.66-7.6L17,19.26a.77.77,0,0,0,1.06,0l7.12-7.14a1.13,1.13,0,0,0-.79-.32H10.63A1.09,1.09,0,0,0,9.86,12.11Z"/></svg>