<svg id="Camada_1" data-name="Camada 1" xmlns="http://www.w3.org/2000/svg" viewBox="0 0 20 20"><defs><style>.cls-1{fill:#fff;}</style></defs><title>ícones</title><g id="Calque_9" data-name="Calque 9"><path class="cls-1" d="M18.42,8.33A.94.94,0,0,0,18,7.68L10.6,2.39A1.09,1.09,0,0,0,10,2.2a1,1,0,0,0-.59.19L8,3.42V3.13a.79.79,0,0,0-.79-.8H5.82a.8.8,0,0,0-.8.8V5.52L2,7.68a1,1,0,0,0-.24,1.4,1.05,1.05,0,0,0,.83.44.9.9,0,0,0,.59-.2l.06,0v7.77a.42.42,0,0,0,.1.26.38.38,0,0,0,.26.1h12.8a.42.42,0,0,0,.26-.1.38.38,0,0,0,.1-.26V9.28l.06,0a1,1,0,0,0,.59.2,1,1,0,0,0,.83-.44A1.1,1.1,0,0,0,18.42,8.33ZM5.74,3.13a.09.09,0,0,1,.1-.1H7.2a.09.09,0,0,1,.1.1v.79L5.76,5V3.13Zm5.75,13.59h-3V12.09a.09.09,0,0,1,.09-.1h2.77a.09.09,0,0,1,.1.1Zm4.57,0H12.19V12.09a.79.79,0,0,0-.8-.79H8.62a.79.79,0,0,0-.79.79v4.63H4V8.78L10,4.47l6,4.31Zm1.61-8a.36.36,0,0,1-.26.13.32.32,0,0,1-.18-.06L10,3.62,2.79,8.76a.32.32,0,0,1-.18.06.3.3,0,0,1-.26-.13.32.32,0,0,1,.08-.44L9.83,3a.3.3,0,0,1,.36,0l7.4,5.24h0A.34.34,0,0,1,17.67,8.69Zm-8.41,5.4a.48.48,0,0,0-.48.47.49.49,0,0,0,.48.48.48.48,0,0,0,.47-.48A.47.47,0,0,0,9.26,14.09ZM8.19,8.23A1.82,1.82,0,1,0,10,6.41,1.81,1.81,0,0,0,8.19,8.23Zm3.05,0A1.23,1.23,0,1,1,10,7,1.22,1.22,0,0,1,11.24,8.23Z"/></g></svg>