<svg id="Camada_1" data-name="Camada 1" xmlns="http://www.w3.org/2000/svg" viewBox="0 0 20 20"><defs><style>.cls-1{fill:#fff;}</style></defs><title>ícones</title><path class="cls-1" d="M7.47,12.64a.68.68,0,0,1-.68.69.69.69,0,1,1,0-1.37h0A.68.68,0,0,1,7.47,12.64ZM9.16,12a.69.69,0,1,0,.68.68h0A.68.68,0,0,0,9.16,12ZM4.42,12a.69.69,0,1,0,.68.68h0A.68.68,0,0,0,4.42,12ZM19,6.88a4.83,4.83,0,0,1-.84,2.68L19,12a.61.61,0,0,1-.77.77l-2.85-.95a8,8,0,0,1-2.78.63v.19c0,2.62-2.59,4.75-5.78,4.75a7,7,0,0,1-2.67-.53l-2.36.78A.58.58,0,0,1,1,17.28a.59.59,0,0,1,0-.37l.67-2A4,4,0,0,1,1,12.64C1,10.39,2.93,8.5,5.5,8a4.35,4.35,0,0,1-.15-1.14c0-3.08,3.06-5.58,6.82-5.58S19,3.8,19,6.88Zm-7.23,5.76c0-2.17-2.23-3.94-5-3.94s-5,1.77-5,3.94a3.35,3.35,0,0,0,.66,2,.41.41,0,0,1,.06.37l-.59,1.77L4,16.05a.44.44,0,0,1,.3,0,6,6,0,0,0,2.48.53C9.54,16.59,11.77,14.82,11.77,12.64ZM17.4,9.26a4.08,4.08,0,0,0,.8-2.38c0-2.64-2.7-4.78-6-4.78s-6,2.14-6,4.78a3.68,3.68,0,0,0,.15,1l.49,0c2.77,0,5.1,1.61,5.66,3.75A7.29,7.29,0,0,0,15.17,11a.41.41,0,0,1,.29,0l2.63.88-.75-2.27A.39.39,0,0,1,17.4,9.26Z"/></svg>