<svg id="Camada_1" data-name="Camada 1" xmlns="http://www.w3.org/2000/svg" viewBox="0 0 20 20"><defs><style>.cls-1{fill:none;stroke:#fff;stroke-miterlimit:10;}</style></defs><title>ícones</title><polyline class="cls-1" points="16.68 16.08 3.32 16.08 3.32 3.92"/><line class="cls-1" x1="5.1" y1="15.19" x2="5.1" y2="16.08"/><line class="cls-1" x1="6.88" y1="15.19" x2="6.88" y2="16.08"/><line class="cls-1" x1="8.66" y1="15.19" x2="8.66" y2="16.08"/><line class="cls-1" x1="10.45" y1="15.19" x2="10.45" y2="16.08"/><line class="cls-1" x1="12.23" y1="15.19" x2="12.23" y2="16.08"/><line class="cls-1" x1="14.01" y1="15.19" x2="14.01" y2="16.08"/><line class="cls-1" x1="15.79" y1="15.19" x2="15.79" y2="16.08"/><line class="cls-1" x1="3.32" y1="14.3" x2="4.21" y2="14.3"/><line class="cls-1" x1="3.32" y1="12.52" x2="4.21" y2="12.52"/><line class="cls-1" x1="3.32" y1="10.74" x2="4.21" y2="10.74"/><line class="cls-1" x1="3.32" y1="8.96" x2="4.21" y2="8.96"/><line class="cls-1" x1="3.32" y1="7.18" x2="4.21" y2="7.18"/><line class="cls-1" x1="3.32" y1="5.4" x2="4.21" y2="5.4"/><circle class="cls-1" cx="6.88" cy="12.52" r="0.89"/><circle class="cls-1" cx="8.66" cy="8.37" r="0.89"/><circle class="cls-1" cx="9.85" cy="11.34" r="0.89"/><circle class="cls-1" cx="11.93" cy="6.29" r="0.89"/><circle class="cls-1" cx="14.01" cy="9.55" r="0.89"/><circle class="cls-1" cx="15.19" cy="5.4" r="0.89"/></svg>