<svg id="Camada_1" data-name="Camada 1" xmlns="http://www.w3.org/2000/svg" viewBox="0 0 20 20"><defs><style>.cls-1{fill:#fff;}</style></defs><title>ícones</title><path class="cls-1" d="M17.2,3.6H2.8a.8.8,0,0,0-.8.8V15.6a.8.8,0,0,0,.8.8H17.2a.8.8,0,0,0,.8-.8V4.4A.8.8,0,0,0,17.2,3.6Zm0,.8V6H2.8V4.4ZM2.8,15.6V6.8H17.2v8.8ZM3.6,5.2a.4.4,0,1,1,.4.4A.4.4,0,0,1,3.6,5.2ZM7.2,8.4A2.8,2.8,0,1,0,10,11.2,2.8,2.8,0,0,0,7.2,8.4Zm2,2.4H7.6V9.24A2,2,0,0,1,9.16,10.8Zm-2,2.4a2,2,0,0,1-.4-4V11.6H9.16A2,2,0,0,1,7.2,13.2Zm4.4-1.6h.8V14h-.8ZM13.2,10H14v4h-.8Zm1.6-1.6h.8V14h-.8Z"/></svg>