<svg id="Camada_1" data-name="Camada 1" xmlns="http://www.w3.org/2000/svg" viewBox="0 0 20 20"><defs><style>.cls-1{fill:none;stroke:#fff;stroke-linecap:round;stroke-miterlimit:10;}</style></defs><title>ícones</title><path class="cls-1" d="M17.23,14.65A9.73,9.73,0,0,1,15.51,11C14.5,7,13.38,4.7,12.05,4.7S9.6,7,8.59,11c-.8,3.06-2.31,5-4,5"/><path class="cls-1" d="M8.61,8.18a1.36,1.36,0,0,0-.85-.34c-1.13,0-2.07,1.69-2.92,4.5a7.22,7.22,0,0,1-1.1,2.26"/><path class="cls-1" d="M14.42,15.94c-1.47,0-2.74-1.39-3.42-3.6A16.61,16.61,0,0,0,9.92,9.53"/><line class="cls-1" x1="2.45" y1="15.94" x2="17.55" y2="15.94"/><line class="cls-1" x1="2.77" y1="4.06" x2="2.77" y2="15.94"/></svg>