<svg id="Camada_1" data-name="Camada 1" xmlns="http://www.w3.org/2000/svg" viewBox="0 0 30 30"><defs><style>.cls-1{fill:none;}.cls-1,.cls-2{stroke:#fff;stroke-miterlimit:10;}.cls-2{fill:#fff;stroke-width:0.25px;}</style></defs><rect class="cls-1" x="2.02" y="1.32" width="27.27" height="27.27" rx="5.02"/><polygon class="cls-2" points="17.56 18.41 16.46 18.41 16.46 17.36 15.59 17.36 15.59 18.41 14.49 18.41 14.49 19.28 15.59 19.28 15.59 20.34 16.46 20.34 16.46 19.28 17.56 19.28 17.56 18.41"/><path class="cls-2" d="M23.91,22.26H8.14A1.22,1.22,0,0,1,6.92,21V15.45H25.13V21A1.22,1.22,0,0,1,23.91,22.26ZM7.35,15.87V21a.79.79,0,0,0,.79.79H23.91A.79.79,0,0,0,24.7,21V15.87Z"/><path class="cls-2" d="M16,21.37a2.5,2.5,0,1,1,2.5-2.5A2.5,2.5,0,0,1,16,21.37Zm0-4.57a2.07,2.07,0,1,0,2.07,2.07A2.08,2.08,0,0,0,16,16.8Z"/><path class="cls-2" d="M25.13,15.87H21.68V14.38H20.29v1.49H11.77V14.38h-1.4v1.49H6.92V11.54a1.22,1.22,0,0,1,1.22-1.22H23.91a1.22,1.22,0,0,1,1.22,1.22Zm-3-.42H24.7V11.54a.79.79,0,0,0-.79-.79H8.14a.79.79,0,0,0-.79.79v3.91H9.94V14h2.25v1.49h7.67V14h2.25Z"/><path class="cls-2" d="M12.19,15.87H9.94V14h2.25Zm-1.82-.42h1.4V14.38h-1.4Z"/><path class="cls-2" d="M22.11,15.87H19.86V14h2.25Zm-1.82-.42h1.39V14.38H20.29Z"/><path class="cls-2" d="M11.68,17.17H9.94V15.66a.21.21,0,0,1,.22-.21.21.21,0,0,1,.21.21v1.08h1.31a.21.21,0,0,1,.21.22A.21.21,0,0,1,11.68,17.17Z"/><path class="cls-2" d="M22.11,17.17h-1.7A.21.21,0,0,1,20.2,17a.22.22,0,0,1,.21-.22h1.27V15.66a.21.21,0,0,1,.22-.21.21.21,0,0,1,.21.21Z"/><path class="cls-2" d="M19.86,10.75a.22.22,0,0,1-.22-.22V8.62a.72.72,0,0,0-.72-.72H13.13a.72.72,0,0,0-.72.72v1.91a.22.22,0,1,1-.43,0V8.62a1.16,1.16,0,0,1,1.15-1.15h5.79a1.16,1.16,0,0,1,1.15,1.15v1.91A.21.21,0,0,1,19.86,10.75Z"/><path class="cls-2" d="M18.46,10.75a.22.22,0,0,1-.22-.22V9.16a.09.09,0,0,0-.09-.09H13.9a.09.09,0,0,0-.09.09v1.37a.22.22,0,1,1-.43,0V9.16a.51.51,0,0,1,.52-.51h4.25a.51.51,0,0,1,.52.51v1.37A.21.21,0,0,1,18.46,10.75Z"/></svg>