<svg id="Camada_1" data-name="Camada 1" xmlns="http://www.w3.org/2000/svg" viewBox="0 0 30 30"><defs><style>.cls-1{fill:none;}.cls-1,.cls-2{stroke:#fff;stroke-miterlimit:10;}.cls-2{fill:#fff;stroke-width:0.25px;}</style></defs><rect class="cls-1" x="1.43" y="1.32" width="27.27" height="27.27" rx="5.02"/><path class="cls-2" d="M15.41,14.06a3.58,3.58,0,0,1-1.11-.18L5.94,11.25a.62.62,0,0,1,0-1.18L14.3,7.43a3.82,3.82,0,0,1,2.22,0l8.37,2.64a.62.62,0,0,1,0,1.18l-8.37,2.63A3.49,3.49,0,0,1,15.41,14.06Zm0-6.19a3.21,3.21,0,0,0-.92.14L6.12,10.64v0l8.37,2.63a3.07,3.07,0,0,0,1.85,0l8.37-2.63.09-.33-.09.29L16.34,8A3.22,3.22,0,0,0,15.41,7.87Zm-1-.15h0Z"/><path class="cls-2" d="M15.41,20.2A13.9,13.9,0,0,1,9.63,19a1.25,1.25,0,0,1-.74-1.15V12a.31.31,0,0,1,.61,0V17.8a.65.65,0,0,0,.38.6A13.37,13.37,0,0,0,21,18.4a.65.65,0,0,0,.38-.6V12a.3.3,0,0,1,.3-.3h0a.3.3,0,0,1,.31.3V17.8A1.27,1.27,0,0,1,21.2,19,13.91,13.91,0,0,1,15.41,20.2Z"/><path class="cls-2" d="M6.79,19.52a.31.31,0,0,1-.31-.3v-7.9a.31.31,0,0,1,.61,0v7.9A.31.31,0,0,1,6.79,19.52Z"/><path class="cls-2" d="M6.79,21.21a1.15,1.15,0,1,1,1.14-1.15A1.15,1.15,0,0,1,6.79,21.21Zm0-1.69a.54.54,0,1,0,.54.54A.54.54,0,0,0,6.79,19.52Z"/><path class="cls-2" d="M8.08,24.2H5.49v-.3a5.46,5.46,0,0,1,.57-2.3.3.3,0,0,1,.4-.15.3.3,0,0,1,.15.4,5.19,5.19,0,0,0-.5,1.75H7.46A5.2,5.2,0,0,0,7,21.85a.3.3,0,0,1,.14-.4.3.3,0,0,1,.41.15,5.47,5.47,0,0,1,.56,2.3Z"/><circle class="cls-2" cx="6.79" cy="20.07" r="0.32"/></svg>