<svg id="Camada_1" data-name="Camada 1" xmlns="http://www.w3.org/2000/svg" viewBox="0 0 30 30"><defs><style>.cls-1{fill:none;stroke:#fff;stroke-miterlimit:10;}.cls-2{fill:#fff;}</style></defs><rect class="cls-1" x="1.29" y="1.32" width="27.27" height="27.27" rx="5.02"/><path class="cls-2" d="M14.14,19.29a1.82,1.82,0,0,1-1.31-.55,1.84,1.84,0,0,1-3.14-1.35,1.84,1.84,0,0,1-1.31-2.87,1.74,1.74,0,0,1-.5-.67,1.86,1.86,0,0,1,.69-2.28l0-.1a1.83,1.83,0,0,1,1-2.19,1.83,1.83,0,0,1,1.45-2.15H11l0-.29a1.84,1.84,0,0,1,3.65.29L15,7.2a1.84,1.84,0,0,1,1.18,2.08l.11.06a1.82,1.82,0,0,1,.8,2.23,1.85,1.85,0,0,1,.78,2,1.79,1.79,0,0,1-.59.91A1.82,1.82,0,0,1,16,17.38,1.85,1.85,0,0,1,15.12,19,1.79,1.79,0,0,1,14.14,19.29ZM12.83,18h0a.27.27,0,0,1,.24.14,1.27,1.27,0,0,0,1.74.39,1.28,1.28,0,0,0,.55-1.34.27.27,0,0,1,.06-.26.28.28,0,0,1,.24-.1h.1A1.27,1.27,0,0,0,17,15.54a1.32,1.32,0,0,0-.37-.88.27.27,0,0,1-.09-.24.31.31,0,0,1,.15-.22,1.24,1.24,0,0,0,.49-1.69h0a1.25,1.25,0,0,0-.58-.53.28.28,0,0,1-.16-.18.29.29,0,0,1,0-.24A1.25,1.25,0,0,0,16,9.84l-.26-.11a.28.28,0,0,1-.17-.15.3.3,0,0,1,0-.23A1.24,1.24,0,0,0,14.4,7.68h0a.3.3,0,0,1-.23-.11.27.27,0,0,1-.1-.24,1.26,1.26,0,0,0-2.48-.4,1.34,1.34,0,0,0,0,.4.3.3,0,0,1-.07.24.24.24,0,0,1-.22.1,1.24,1.24,0,0,0-1.19,1.68.31.31,0,0,1,0,.23.34.34,0,0,1-.18.15,1.25,1.25,0,0,0-.83,1.56,2,2,0,0,0,.11.26.29.29,0,0,1,0,.24.29.29,0,0,1-.17.17,1.27,1.27,0,0,0-.65,1.65,1.31,1.31,0,0,0,.54.6.26.26,0,0,1,.14.21.27.27,0,0,1-.08.25,1.23,1.23,0,0,0-.37.87,1.29,1.29,0,0,0,.36.89,1.23,1.23,0,0,0,1,.36.3.3,0,0,1,.32.27.28.28,0,0,1,0,.09,1.25,1.25,0,0,0,2.28,1A.33.33,0,0,1,12.83,18Z"/><path class="cls-2" d="M13.58,23.92h-1.5a.29.29,0,0,1-.29-.29V18.89a.28.28,0,0,1,.18-.27,1.25,1.25,0,0,0,.61-.5.32.32,0,0,1,.25-.14h0a.27.27,0,0,1,.24.14,1.36,1.36,0,0,0,.61.5.29.29,0,0,1,.19.27v4.74A.29.29,0,0,1,13.58,23.92Zm-1.21-.58h.92V19.08a2,2,0,0,1-.46-.34,2.19,2.19,0,0,1-.46.34Z"/><path class="cls-2" d="M19,19.17a1.52,1.52,0,0,1-1.06-.42,1.62,1.62,0,0,1-.84.41,1.55,1.55,0,0,1-1.75-1.31v-.12a.92.92,0,0,0,0-.29V17.3a0,0,0,0,1,0-.05v-.17a.29.29,0,0,1,.31-.27h.06A1.27,1.27,0,0,0,17,15.54a1.32,1.32,0,0,0-.37-.88.29.29,0,0,1,0-.41l.07-.05a1.26,1.26,0,0,0,.47-1.71,1.22,1.22,0,0,0-.59-.53.29.29,0,0,1-.15-.38.05.05,0,0,1,0,0A1.25,1.25,0,0,0,16,9.84a.3.3,0,0,1-.12-.4A.34.34,0,0,1,16,9.32a1.63,1.63,0,0,1,.39-.13,1.28,1.28,0,0,1,0-.19,1.55,1.55,0,0,1,3.08.19l.23.07a1.53,1.53,0,0,1,1,1.7l.06,0a1.55,1.55,0,0,1,.69,1.84,1.54,1.54,0,0,1,.71,1.28h0a1.58,1.58,0,0,1-.52,1.17,1.54,1.54,0,0,1-.46,2.13,1.51,1.51,0,0,1-.61.23,1.54,1.54,0,0,1-.74,1.29A1.45,1.45,0,0,1,19,19.17ZM17.94,18h0a.27.27,0,0,1,.24.14,1,1,0,0,0,1.75-.73.28.28,0,0,1,.22-.35h.16a1,1,0,0,0,1-1h0a1,1,0,0,0-.29-.69.27.27,0,0,1-.09-.24.31.31,0,0,1,.15-.22,1,1,0,0,0,.37-1.31.9.9,0,0,0-.45-.41.32.32,0,0,1-.16-.18.31.31,0,0,1,0-.23,1,1,0,0,0-.36-1.32h0l-.2-.08a.35.35,0,0,1-.17-.15.3.3,0,0,1,0-.23,1,1,0,0,0-.58-1.23h0a1,1,0,0,0-.33-.06h0a.29.29,0,0,1-.3-.34.94.94,0,0,0-.17-.71A1,1,0,0,0,17,9.1a.81.81,0,0,0,0,.31.29.29,0,0,1-.07.24.24.24,0,0,1-.15.09,1.84,1.84,0,0,1,.32,1.83,1.84,1.84,0,0,1,.68,2.28,1.74,1.74,0,0,1-.5.67,1.83,1.83,0,0,1-.21,2.33,1.9,1.9,0,0,1-1.1.53v.06a2.31,2.31,0,0,1,0,.37,1,1,0,0,0,1.75.33.26.26,0,0,1,.26-.13Zm3.91-3.9"/><path class="cls-2" d="M18.55,23.92H17.33a.29.29,0,0,1-.3-.29V18.8a.32.32,0,0,1,.19-.28.92.92,0,0,0,.47-.38.3.3,0,0,1,.4-.09.38.38,0,0,1,.09.09.88.88,0,0,0,.47.38.32.32,0,0,1,.19.28v4.83A.29.29,0,0,1,18.55,23.92Zm-.93-.58h.64V19a1.24,1.24,0,0,1-.32-.23,2.43,2.43,0,0,1-.32.24Z"/><path class="cls-2" d="M7.34,23.34H21.85a.29.29,0,0,1,0,.58H7.34"/></svg>