<svg id="Camada_1" data-name="Camada 1" xmlns="http://www.w3.org/2000/svg" viewBox="0 0 30 30"><defs><style>.cls-1{fill:#fff;}.cls-2{fill:none;stroke:#fff;stroke-miterlimit:10;}</style></defs><path class="cls-1" d="M22.18,14.82a1.24,1.24,0,1,1,1.25-1.24A1.24,1.24,0,0,1,22.18,14.82Zm0-2a.8.8,0,1,0,.8.8A.8.8,0,0,0,22.18,12.78Z"/><path class="cls-1" d="M7.49,14.82a1.24,1.24,0,1,1,1.25-1.24A1.24,1.24,0,0,1,7.49,14.82Zm0-2a.8.8,0,1,0,.8.8A.8.8,0,0,0,7.49,12.78Z"/><path class="cls-1" d="M19.14,14a1.74,1.74,0,1,1,1.74-1.74A1.74,1.74,0,0,1,19.14,14Zm0-3a1.3,1.3,0,1,0,1.3,1.3A1.31,1.31,0,0,0,19.14,10.92Z"/><path class="cls-1" d="M24.08,20.17H21.91V16.76a2.71,2.71,0,0,0-.39-1.39l-.15-.24.28-.08a1.84,1.84,0,0,1,.53-.09,1.9,1.9,0,0,1,1.9,1.9Zm-1.73-.44h1.29V16.86a1.46,1.46,0,0,0-1.46-1.46H22a3.06,3.06,0,0,1,.31,1.35Z"/><path class="cls-1" d="M10.53,14a1.74,1.74,0,1,1,1.74-1.74A1.74,1.74,0,0,1,10.53,14Zm0-3a1.3,1.3,0,1,0,1.3,1.3A1.31,1.31,0,0,0,10.53,10.92Z"/><path class="cls-1" d="M7.77,20.17H5.59V16.86A1.9,1.9,0,0,1,7.49,15a1.85,1.85,0,0,1,.54.09l.27.08-.14.24a2.71,2.71,0,0,0-.39,1.39ZM6,19.73H7.32v-3a3.18,3.18,0,0,1,.31-1.35H7.49A1.47,1.47,0,0,0,6,16.86Z"/><path class="cls-1" d="M14.84,12.38a2.47,2.47,0,1,1,2.47-2.47A2.47,2.47,0,0,1,14.84,12.38Zm0-4.5a2,2,0,1,0,2,2A2,2,0,0,0,14.84,7.88Z"/><path class="cls-1" d="M21.79,21.36H18.7V16.28a3.81,3.81,0,0,0-.44-1.74l-.12-.24.25-.07a2.71,2.71,0,0,1,.75-.12,2.65,2.65,0,0,1,2.65,2.65Zm-2.65-.45h2.21V16.76a2.21,2.21,0,0,0-2.21-2.21,1.61,1.61,0,0,0-.37,0,4.06,4.06,0,0,1,.37,1.69Z"/><path class="cls-1" d="M11,21.36H7.88v-4.6a2.65,2.65,0,0,1,2.65-2.65,2.34,2.34,0,0,1,.75.12l.25.07-.12.24A3.79,3.79,0,0,0,11,16.28Zm-2.66-.45h2.21V16.28a4.22,4.22,0,0,1,.37-1.69,1.61,1.61,0,0,0-.37,0,2.21,2.21,0,0,0-2.21,2.21Z"/><path class="cls-1" d="M18.58,22.76H11.09V16.28a3.75,3.75,0,0,1,7.49,0Zm-7-.44h6.61v-6a3.31,3.31,0,0,0-6.61,0Z"/><rect class="cls-2" x="1.2" y="1.32" width="27.27" height="27.27" rx="5.02"/></svg>