<svg id="Camada_1" data-name="Camada 1" xmlns="http://www.w3.org/2000/svg" xmlns:xlink="http://www.w3.org/1999/xlink" viewBox="0 0 30 30"><defs><style>.cls-1,.cls-2{fill:none;}.cls-2{stroke:#fff;stroke-miterlimit:10;}.cls-3{clip-path:url(#clip-path);}.cls-4{fill:#fff;}</style><clipPath id="clip-path"><polygon class="cls-1" points="6.34 23.98 23.64 23.98 23.64 6.38 6.34 6.38 6.34 23.98 6.34 23.98"/></clipPath></defs><rect class="cls-2" x="1.71" y="1.32" width="27.27" height="27.27" rx="5.02"/><g class="cls-3"><path class="cls-4" d="M23.36,14.44h-5.7a.27.27,0,0,0-.28.28v9a.28.28,0,0,0,.28.29h5.7a.28.28,0,0,0,.28-.29v-9a.27.27,0,0,0-.28-.28Zm-4,9V22h2.28v1.46Zm3.71,0h-.85V21.67a.27.27,0,0,0-.28-.29H19.09a.28.28,0,0,0-.28.29v1.74H18V15H23.1v8.4Z"/><path class="cls-4" d="M18.81,17.9H20a.28.28,0,0,0,.28-.29V15.87a.28.28,0,0,0-.28-.29H18.81a.28.28,0,0,0-.28.29v1.74a.28.28,0,0,0,.28.29Zm.28-1.72h.56v1.17h-.56V16.18Z"/><path class="cls-4" d="M21.08,17.9h1.15a.27.27,0,0,0,.28-.29V15.87a.27.27,0,0,0-.28-.29H21.08a.28.28,0,0,0-.28.29v1.74a.28.28,0,0,0,.28.29Zm.28-1.72h.57v1.17h-.57V16.18Z"/><path class="cls-4" d="M18.81,20.81H20a.28.28,0,0,0,.28-.29V18.78a.28.28,0,0,0-.28-.29H18.81a.28.28,0,0,0-.28.29v1.74a.29.29,0,0,0,.28.29Zm.28-1.74h.56v1.16h-.56V19.07Z"/><path class="cls-4" d="M21.08,20.81h1.15a.27.27,0,0,0,.28-.29V18.78a.27.27,0,0,0-.28-.29H21.08a.28.28,0,0,0-.28.29v1.74a.29.29,0,0,0,.28.29Zm.28-1.74h.57v1.16h-.57V19.07Z"/><path class="cls-4" d="M6.85,24h9.69a.28.28,0,0,0,.28-.29V22.52a.27.27,0,0,0-.28-.28H12.27v-11h8v.91a.87.87,0,0,0-.56.81.84.84,0,1,0,1.68,0H20.8a.28.28,0,0,1-.56,0,.28.28,0,0,1,.28-.29.27.27,0,0,0,.28-.28V11.22h.85v-.55H20.57l-2.14-.86h2.09V9.24H17l-6.35-2.6a.29.29,0,0,0-.33.09L8.42,9.21H6.57v.58H7.72v.88H6.57v.57H8.28v11H6.85a.27.27,0,0,0-.28.28v1.17a.28.28,0,0,0,.28.29ZM11.12,9.81v.55l-.63-.55Zm.87.86h-.28v-.55l.63.55Zm-1.6,9.85h1.32v1.34l-1.32-1.34Zm.89-5.22H10V14l1.31,1.34Zm0,2.31H10V16.27l1.31,1.34Zm0,2.31H10V18.59l1.31,1.33Zm-.89-1.71h1.32v1.33l-1.32-1.33Zm0-2.34h1.32V17.2l-1.32-1.33Zm0-2.32h1.32v1.34l-1.32-1.34ZM10,13V11.65L11.31,13Zm5.63-3.17h.63v.55l-.63-.55Zm.12.86H15.1v-.55l.64.55Zm-1.2-.34-.63-.54h.63v.54Zm-.49.34h-.63v-.55l.63.55Zm-1.22-.34-.63-.52h.63v.52Zm-2.2.34H10v-.55l.64.55Zm-1.22-.34-.64-.54h.64v.54ZM10,20.93l1.32,1.33H10V20.93Zm1.72-8.35-1.32-1.34h1.32v1.34ZM19,10.67H16.82V9.81h.09l2.13.86Zm-8.2-1.46V7.33l4.64,1.88Zm-.56-1.45V9.24H9.15l1.13-1.48Zm-2,2.36.64.55H8.28v-.55Zm.56,1.12h.57v11H8.84v-11ZM7.13,22.83h9.1v.58H7.13v-.58Z"/></g></svg>