<svg id="Camada_1" data-name="Camada 1" xmlns="http://www.w3.org/2000/svg" viewBox="0 0 30 30"><defs><style>.cls-1{fill:#000;}.cls-2{fill:none;stroke:#fff;stroke-miterlimit:10;}</style></defs><path class="cls-1" d="M15.56,18a.58.58,0,0,0-.58.58.58.58,0,0,0,1.16,0,.58.58,0,0,0-.57-.58Z"/><path class="cls-1" d="M15.56,20.12a.58.58,0,0,0-.58.58.58.58,0,0,0,1.16,0,.58.58,0,0,0-.57-.58Z"/><path class="cls-1" d="M15.56,12.61a.57.57,0,0,0,.58-.57A.58.58,0,1,0,15,12a.57.57,0,0,0,.58.57Z"/><path class="cls-1" d="M15.56,14.72a.58.58,0,1,0-.58-.58.58.58,0,0,0,.58.58Z"/><path class="cls-1" d="M15.56,10.53A.58.58,0,1,0,15,10a.58.58,0,0,0,.58.58Z"/><path class="cls-1" d="M11.53,18a.57.57,0,0,0-.57.58.56.56,0,0,0,.57.57.57.57,0,0,0,.58-.57.58.58,0,0,0-.57-.58Z"/><path class="cls-1" d="M11.53,15.92a.58.58,0,0,0,0,1.15.58.58,0,1,0,0-1.15Z"/><path class="cls-1" d="M11.53,20.12a.57.57,0,0,0-.57.58.56.56,0,0,0,.57.57.57.57,0,0,0,.58-.57.58.58,0,0,0-.57-.58Z"/><path class="cls-1" d="M11.53,12.61a.57.57,0,0,0,.58-.57.58.58,0,0,0-.58-.58A.57.57,0,0,0,11,12a.56.56,0,0,0,.57.57Z"/><path class="cls-1" d="M11.53,14.72a.58.58,0,1,0,0-1.16.58.58,0,0,0,0,1.16Z"/><path class="cls-1" d="M11.53,10.53a.58.58,0,1,0,0-1.15.58.58,0,0,0,0,1.15Z"/><path class="cls-1" d="M19.28,18a.57.57,0,0,0-.57.58.56.56,0,0,0,.57.57.57.57,0,0,0,.58-.57.58.58,0,0,0-.57-.58Z"/><path class="cls-1" d="M19.28,15.92a.58.58,0,0,0,0,1.15.58.58,0,0,0,0-1.15Z"/><path class="cls-1" d="M19.28,20.12a.57.57,0,0,0-.57.58.56.56,0,0,0,.57.57.57.57,0,0,0,.58-.57.58.58,0,0,0-.57-.58Z"/><path class="cls-1" d="M19.28,12.61a.57.57,0,0,0,.58-.57.58.58,0,0,0-.58-.58.57.57,0,0,0-.57.58.56.56,0,0,0,.57.57Z"/><path class="cls-1" d="M19.28,14.72a.58.58,0,0,0,0-1.16.58.58,0,0,0,0,1.16Z"/><path class="cls-1" d="M19.28,10.53a.58.58,0,1,0,0-1.15.58.58,0,0,0,0,1.15Z"/><path class="cls-1" d="M23.87,22.63H7.41V17.74l4.19-4.2,3.59,3.59a.4.4,0,0,0,.58,0h0L23,10v2a.42.42,0,0,0,.42.42.41.41,0,0,0,.41-.42v-3a.41.41,0,0,0-.41-.41h-3a.41.41,0,1,0,0,.82h2l-6.93,6.93-3.59-3.59a.42.42,0,0,0-.59,0h0L7.41,16.55V7.06A.41.41,0,0,0,7,6.64a.42.42,0,0,0-.42.42h0V23a.42.42,0,0,0,.42.42H23.87a.42.42,0,0,0,.42-.42A.41.41,0,0,0,23.87,22.63Z"/><rect class="cls-2" x="1.71" y="1.32" width="27.27" height="27.27" rx="5.02"/></svg>