<svg id="Camada_1" data-name="Camada 1" xmlns="http://www.w3.org/2000/svg" xmlns:xlink="http://www.w3.org/1999/xlink" viewBox="0 0 30 30"><defs><style>.cls-1,.cls-2,.cls-3,.cls-4{fill:none;}.cls-1,.cls-2{clip-rule:evenodd;}.cls-2{clip-path:url(#clip-path);}.cls-4{stroke:#fff;stroke-miterlimit:10;}.cls-5{clip-path:url(#clip-path-2);}.cls-6{clip-path:url(#clip-path-3);}.cls-7{fill:#fff;}.cls-8{clip-path:url(#clip-path-4);}.cls-9{fill:#727070;}</style><clipPath id="clip-path"><polygon class="cls-1" points="3.58 26.11 24.27 26.11 24.27 4.46 3.58 4.46 3.58 26.11 3.58 26.11"/></clipPath><clipPath id="clip-path-2"><polygon class="cls-2" points="3.58 4.46 24.27 4.46 24.27 26.11 3.58 26.11 3.58 4.46 3.58 4.46"/></clipPath><clipPath id="clip-path-3"><polygon class="cls-3" points="3.58 26.11 24.27 26.11 24.27 4.46 3.58 4.46 3.58 26.11 3.58 26.11"/></clipPath><clipPath id="clip-path-4"><rect class="cls-3" x="3.78" y="4.66" width="20.46" height="26.08"/></clipPath></defs><rect class="cls-4" x="1.36" y="1.26" width="27.27" height="27.27" rx="5.02"/><g class="cls-5"><g class="cls-6"><path class="cls-7" d="M20,18.71h0a6,6,0,0,0-.22-4.66,6.28,6.28,0,0,0-.82-1.21,2.08,2.08,0,0,0,.12-.71,2.16,2.16,0,0,0-1.1-1.89l1.39-2.45a.34.34,0,0,0,0-.25.3.3,0,0,0-.15-.18L16.5,5.75a.32.32,0,0,0-.43.12l-4.7,8.25a.34.34,0,0,0,0,.25.38.38,0,0,0,.14.19l.51.31-.47.83-.63-.39a.31.31,0,0,0-.25-.05.38.38,0,0,0-.18.15l-.47.84a.31.31,0,0,0,.12.43l3,1.78a.38.38,0,0,0,.16,0,.32.32,0,0,0,.27-.17L14,17.5a.36.36,0,0,0,0-.25.29.29,0,0,0-.15-.19l-.65-.4.47-.83.51.31a.39.39,0,0,0,.17,0,.31.31,0,0,0,.26-.16l1.15-2a2,2,0,0,0,1.1.31,1.83,1.83,0,0,0,.33,0,3.24,3.24,0,0,1,.55.8,4.11,4.11,0,0,1-.18,3.63h-1.9a.3.3,0,0,0-.31.27l-.1.67H9.55a.31.31,0,1,0,0,.62h5.6l-.3,1.94h-6a.33.33,0,0,0-.28.17L7.73,24a.34.34,0,0,0,0,.31.35.35,0,0,0,.26.15H20a.32.32,0,0,0,.31-.32V19a.32.32,0,0,0-.33-.31Zm-6.89-1-2.44-1.44.17-.29,2.43,1.44-.16.29Zm-.37-1.55-.59-.35.39-.69.59.36-.39.68Zm1.49-.75-.51-.31h0l-1.12-.67h0l-.51-.31,4.37-7.7,2.17,1.29L17.34,10h0l-.08,0h0a.09.09,0,0,1-.08,0h-.23a2.18,2.18,0,0,0-2.14,2.2v.2c0,.07,0,.13,0,.19v0c0,.07,0,.13,0,.19v0l.06.19h0a.53.53,0,0,0,.08.17h0c0,.06.06.1.08.16h0a.65.65,0,0,0,.1.15,0,0,0,0,0,0,0,.69.69,0,0,1,.11.13,0,0,0,0,0,0,0l-1.09,1.83Zm1.15-3.29a1.52,1.52,0,0,1,1.51-1.55h.19a.12.12,0,0,1,.08,0,.07.07,0,0,1,.06,0l.08,0,.06,0a1.56,1.56,0,0,1,1.05,1.49,1.37,1.37,0,0,1-.17.66c0,.05,0,.07,0,.11a.07.07,0,0,1,0,0,.28.28,0,0,1-.06.08l0,0s-.06.06-.08.1l0,0-.25.21a0,0,0,0,0,0,0l-.12.06s0,0,0,0-.06,0-.11,0l-.06,0-.1,0a1.18,1.18,0,0,1-.39.06,1.61,1.61,0,0,1-1.51-1.54Zm4.32,11.7H8.51l.49-1h6.13a.3.3,0,0,0,.31-.27L16,19.35h1.82a.34.34,0,0,0,.29-.16,4.74,4.74,0,0,0,.26-4.36,4.15,4.15,0,0,0-.45-.71h0a2.66,2.66,0,0,0,.6-.46h0c.06-.06.1-.13.16-.19a3.7,3.7,0,0,1,.57.9,5.42,5.42,0,0,1,0,4.57.28.28,0,0,0,.05.29.35.35,0,0,0,.26.15h.19v4.48Z"/><g class="cls-8"><path class="cls-9" d="M4.5,28.57l-.08.11a.27.27,0,0,1-.12-.09l-.1.06a.22.22,0,0,1-.12,0,.22.22,0,0,1-.2-.08.16.16,0,0,1-.06-.13.25.25,0,0,1,0-.13.27.27,0,0,1,.13-.1l-.06-.09a.24.24,0,0,1,0-.08A.14.14,0,0,1,4,28a.21.21,0,0,1,.15-.05.25.25,0,0,1,.15.05.17.17,0,0,1,.05.12.16.16,0,0,1,0,.09.3.3,0,0,1-.1.09l.1.14,0-.09.13,0,0,.1s0,0,0,.06l.07,0Zm-.44-.25s0,0-.07.06a.1.1,0,0,0,0,.07.11.11,0,0,0,0,.08.1.1,0,0,0,.08,0l.06,0,.07,0Zm.06-.16,0,0s0,0,0-.06a.08.08,0,0,0,0-.05.11.11,0,0,0-.06,0l0,0a.05.05,0,0,0,0,0,.11.11,0,0,0,0,.06Z"/><path class="cls-9" d="M4.67,27.91h.15v.53a.14.14,0,0,0,0,.08s0,0,.09,0,.08,0,.1,0a.16.16,0,0,0,0-.07v-.54h.15v.4a.77.77,0,0,1,0,.18.3.3,0,0,1,0,.1.18.18,0,0,1-.09.06l-.14,0-.16,0a.31.31,0,0,1-.09-.07.2.2,0,0,1,0-.08.92.92,0,0,1,0-.19Z"/><path class="cls-9" d="M5.42,28.66v-.75h.15v.3h.29v-.3H6v.75H5.86v-.33H5.57v.33Z"/><path class="cls-9" d="M6.2,27.91h.27l.14,0a.19.19,0,0,1,.11.07.35.35,0,0,1,.07.12.42.42,0,0,1,0,.17.37.37,0,0,1,0,.16.24.24,0,0,1-.08.13.26.26,0,0,1-.1.07H6.2Zm.15.13v.49h.2l.06,0a.29.29,0,0,0,0-.08.49.49,0,0,0,0-.13.57.57,0,0,0,0-.14.18.18,0,0,0-.05-.07l-.06,0H6.35Z"/><path class="cls-9" d="M7.09,28.66l-.18-.75h.15l.12.52.13-.52h.17l.13.52.11-.52h.15l-.17.75H7.54l-.15-.56-.14.56Z"/><path class="cls-9" d="M8,28.66v-.75h.14v.3h.29v-.3H8.6v.75H8.45v-.33H8.16v.33Z"/><path class="cls-9" d="M9.14,28.39v-.13h.32v.3a.58.58,0,0,1-.14.08.51.51,0,0,1-.17,0,.31.31,0,0,1-.2-.05.29.29,0,0,1-.13-.14.42.42,0,0,1-.05-.2.46.46,0,0,1,.05-.2A.32.32,0,0,1,9,27.94a.34.34,0,0,1,.18,0,.33.33,0,0,1,.21.06.29.29,0,0,1,.1.16l-.15,0a.15.15,0,0,0-.06-.09.15.15,0,0,0-.1,0,.21.21,0,0,0-.16.06.33.33,0,0,0-.05.19.37.37,0,0,0,.05.2.21.21,0,0,0,.16.06h.09l.08-.05v-.09Z"/><path class="cls-9" d="M3.77,29.91v-.75h.54v.13H3.92v.17h.37v.12H3.92v.21h.41v.12Z"/><path class="cls-9" d="M4.37,29.15h.1l.18.77h-.1Z"/></g><g class="cls-8"><path class="cls-9" d="M3.85,29.71V29H4v.75Z"/><path class="cls-9" d="M4.2,29h.15v.4a.38.38,0,0,0,0,.13.1.1,0,0,0,0,.07.17.17,0,0,0,.1,0,.12.12,0,0,0,.09,0,.08.08,0,0,0,0-.06.45.45,0,0,0,0-.13V29h.15v.39a.78.78,0,0,1,0,.19.13.13,0,0,1,0,.09.22.22,0,0,1-.09.07l-.14,0a.35.35,0,0,1-.16,0,.24.24,0,0,1-.08-.06.2.2,0,0,1,0-.08.92.92,0,0,1,0-.19Z"/><path class="cls-9" d="M5,29.71V29h.31l.17,0a.16.16,0,0,1,.09.07.21.21,0,0,1,0,.12.19.19,0,0,1,0,.14.26.26,0,0,1-.14.07.24.24,0,0,1,.08.06.48.48,0,0,1,.08.12l.09.15H5.43l-.1-.17-.08-.11,0,0H5.1v.32Zm.15-.44h.24s0,0,0,0a.43.43,0,0,0,0-.05.08.08,0,0,0,0-.06.06.06,0,0,0-.06,0H5.1Z"/><path class="cls-9" d="M5.68,29.71V29h.41A.16.16,0,0,1,6.2,29a.24.24,0,0,1,0,.15.36.36,0,0,1,0,.11l-.06.08-.08,0H5.83v.29Zm.15-.63v.22H6s0,0,0,0a.14.14,0,0,0,0-.06.14.14,0,0,0,0-.07s0,0-.06,0H5.83Z"/></g></g></g></svg>