<svg id="Camada_1" data-name="Camada 1" xmlns="http://www.w3.org/2000/svg" xmlns:xlink="http://www.w3.org/1999/xlink" viewBox="0 0 30 30"><defs><style>.cls-1,.cls-2,.cls-3,.cls-4{fill:none;}.cls-1,.cls-2{clip-rule:evenodd;}.cls-2{clip-path:url(#clip-path);}.cls-4{stroke:#000;stroke-miterlimit:10;}.cls-5{clip-path:url(#clip-path-2);}.cls-6{clip-path:url(#clip-path-3);}.cls-7{fill:#000;}</style><clipPath id="clip-path"><polygon class="cls-1" points="6.22 24.66 24.52 24.66 24.52 5.8 6.22 5.8 6.22 24.66 6.22 24.66"/></clipPath><clipPath id="clip-path-2"><polygon class="cls-2" points="6.22 5.8 24.52 5.8 24.52 24.66 6.22 24.66 6.22 5.8 6.22 5.8"/></clipPath><clipPath id="clip-path-3"><polygon class="cls-3" points="6.22 24.66 24.52 24.66 24.52 5.8 6.22 5.8 6.22 24.66 6.22 24.66"/></clipPath></defs><rect class="cls-4" x="1.78" y="1.32" width="27.27" height="27.27" rx="5.02"/><g class="cls-5"><g class="cls-6"><path class="cls-7" d="M6.74,17.5h.9v6.13l-.27.55a.29.29,0,0,0,.14.41c0,.05.06.05.13.05h4.22a.31.31,0,0,0,.29-.3.34.34,0,0,0,0-.14l-.27-.57V13.09l.63,1.45s0,.11.11.13L14,15.5a2,2,0,0,0,.27.73h0a1.54,1.54,0,0,0-1.51,1.57v3.09a.3.3,0,0,0,.3.3h.9v2.39l-.27.55a.3.3,0,0,0,.13.42.34.34,0,0,0,.14,0h3a.31.31,0,0,0,.29-.3.34.34,0,0,0,0-.14l-.27-.55V21.19h.9a.3.3,0,0,0,.29-.3V18.71h.59v4.87l-.27.55a.3.3,0,0,0,.13.42.34.34,0,0,0,.14,0h3.6a.3.3,0,0,0,.29-.3.34.34,0,0,0,0-.14l-.27-.55V18.71h.9a.3.3,0,0,0,.3-.29v-.05l-.16-.9h.72a.23.23,0,0,0,.22-.11.4.4,0,0,0,.09-.25l-.78-6a1.16,1.16,0,0,0-.43-.78L23,8.45a2.43,2.43,0,0,0-2.61-2.39A2.65,2.65,0,0,0,18,8.52l-.14,1.86a1.17,1.17,0,0,0-.42.78l-.3,2.18-.58.41a1.45,1.45,0,0,0-2.19-.13l-.49-.35L13,10.56a1.17,1.17,0,0,0-1.13-.8H11a1.65,1.65,0,0,0,.3-.92V7.07a1,1,0,0,0-1-1l-2,0A.37.37,0,0,0,8,6.16.29.29,0,0,0,8,6.43l.18.78.11.25V8.82a1.62,1.62,0,0,0,.29.92H8a1.56,1.56,0,0,0-1.51,1.58V17.2a.3.3,0,0,0,.29.3ZM7,16.88V12.24h.59V16.9H7v0Zm4.26,7,.09.16H10.05V17.2H9.47V24H8.12l.09-.16a.36.36,0,0,0,0-.14V16.28h3v7.44s0,.07.07.14Zm5.39-7.58h0a1.64,1.64,0,0,0,.22-.39l1.2-.83-.27,1.75a1.51,1.51,0,0,0-1.15-.53Zm-.3-.92a.91.91,0,0,1-.9.92.93.93,0,0,1-.92-.92v-.71a3.89,3.89,0,0,0,1.67.39h.11l0,.32Zm-3,5.26V18.76H14v1.86ZM15.78,24v-3.1h-.59V24h-.7l.09-.16a.36.36,0,0,0,0-.14v-3.4h1.81v3.4a.36.36,0,0,0,0,.14l.09.16Zm1.78-3.4H17V18.76h.59v1.86Zm0-2.48H17v-.62h-.59V19.7h-1.8V17.52H14v.62h-.59v-.3a.92.92,0,0,1,.9-.92h2.41a.91.91,0,0,1,.9.92v.3Zm1.8,5.72a.36.36,0,0,0,0-.14v-5h.9V24h-1l.11-.16Zm2.46,0,.09.16h-1V18.76h.9v5s0,.07.05.14Zm-3.61-5.72,1.1-7.44h.16l.81,1.4a.32.32,0,0,0,.41.12s.09-.05.11-.12l.81-1.4h.16l1.17,7.44Zm3.27-9a.91.91,0,1,1-1.81,0V8.66l1.2-1,.59.39v1.1ZM21,10.61l-.42.73-.41-.68a1.39,1.39,0,0,0,.83-.05Zm2.84,6.27h-.49l-.93-6.18h0a.59.59,0,0,1,.58.53l.79,5.65ZM18.62,8.54a2,2,0,0,1,2.11-1.86,2,2,0,0,1,1.81,1.86l.11,1.56h-.83a1.61,1.61,0,0,0,.29-.91V7.92A.3.3,0,0,0,22,7.67L21.05,7a.27.27,0,0,0-.36,0L19.18,8.29a.27.27,0,0,0-.11.25v.62a1.57,1.57,0,0,0,.29.92h-.83l.09-1.54Zm-1,5.19s.11-.11.11-.18l.29-2.3a.62.62,0,0,1,.59-.53h0l-.51,3.54L17,15.09v-.37a1.84,1.84,0,0,0-.05-.41l.75-.58Zm-2.19.07a.87.87,0,0,1,.83.62h0a3.21,3.21,0,0,1-1.44-.34.91.91,0,0,1,.65-.28Zm-2-.07.56.39a1.33,1.33,0,0,0-.11.58v.09l-1-.58-.85-2.06.65-.35.63,1.75a.21.21,0,0,0,.09.18ZM10.28,6.66a.37.37,0,0,1,.36.37v.25H9a.3.3,0,0,1-.3-.23l-.09-.39ZM8.86,8.84v-1L9,7.9h1.62v.92a.92.92,0,0,1-.9.92.86.86,0,0,1-.88-.9ZM8,10.4h3.87a.59.59,0,0,1,.57.42l.15.43-.69.35V11h-.59v4.66h-3V11H7.64v.62H7v-.3A.93.93,0,0,1,8,10.4Z"/><polygon class="cls-7" points="9.94 11.55 10.86 11.55 10.86 12.95 9.94 12.95 9.94 11.55 9.94 11.55 9.94 11.55"/><polygon class="cls-7" points="18.73 14.79 22.42 14.79 22.51 15.36 18.64 15.36 18.73 14.79 18.73 14.79 18.73 14.79"/></g></g></svg>