<svg id="Camada_1" data-name="Camada 1" xmlns="http://www.w3.org/2000/svg" viewBox="0 0 30 30"><defs><style>.cls-1{fill:#fff;}.cls-2{fill:none;stroke:#fff;stroke-miterlimit:10;}</style></defs><path class="cls-1" d="M18,10.91a.3.3,0,0,0-.31-.32H9.89a.32.32,0,1,0,0,.63h7.78A.3.3,0,0,0,18,10.91Z"/><path class="cls-1" d="M9.89,9h7.78A.3.3,0,0,0,18,8.73a.29.29,0,0,0-.31-.31H9.89a.3.3,0,0,0-.32.31A.3.3,0,0,0,9.89,9Z"/><path class="cls-1" d="M9.89,12.77a.32.32,0,1,0,0,.63h4.66a.32.32,0,1,0,0-.63Z"/><path class="cls-1" d="M23.33,17.44l-.4-.87.12-1a.32.32,0,0,0-.12-.32l-.81-.53-.41-.87a.29.29,0,0,0-.28-.18h-1V5.93a.3.3,0,0,0-.31-.32H7.4a.3.3,0,0,0-.32.32V21.18a.3.3,0,0,0,.32.31h8.71a.29.29,0,0,0,.31-.31.29.29,0,0,0-.31-.31H7.71V6.24H19.85V13.3l-.19-.12a.34.34,0,0,0-.34,0l-.81.53h-1a.3.3,0,0,0-.28.18l-.4.87-.81.53a.3.3,0,0,0-.13.32l.13,1-.41.87a.27.27,0,0,0,.07.34l.62.72.12,1a.3.3,0,0,0,.22.25l.69.19v4.67a.27.27,0,0,0,.18.28.21.21,0,0,0,.13,0,.27.27,0,0,0,.21-.09l1.62-1.62,1.62,1.62a.29.29,0,0,0,.34.06.3.3,0,0,0,.19-.28V19.9l.69-.19a.26.26,0,0,0,.21-.25l.13-1,.62-.72A.35.35,0,0,0,23.33,17.44Zm-3.61,5.11a.29.29,0,0,0-.43,0L18,23.82V20.4l.25.31a.32.32,0,0,0,.31.09l.65-.18V21.8a.29.29,0,0,0,.31.31.29.29,0,0,0,.31-.31V20.65l.56.15h.1a.38.38,0,0,0,.25-.09L21,20.4v3.42Zm2.4-4.39a.23.23,0,0,0-.06.15l-.13.84-.81.25a1.3,1.3,0,0,0-.15.1l-.56.65-.81-.25a.21.21,0,0,0-.19,0l-.81.25L18,19.5a.23.23,0,0,0-.16-.1L17,19.15l-.12-.84a.23.23,0,0,0-.06-.15l-.56-.66.34-.77a.44.44,0,0,0,0-.19l-.12-.84.71-.47a.51.51,0,0,0,.13-.12l.34-.78h.87a.28.28,0,0,0,.16-.06l.71-.47.72.47c.06,0,.09.06.15.06h.87l.35.78a.23.23,0,0,0,.12.12l.72.47-.13.84a.44.44,0,0,0,0,.19l.35.77Z"/><path class="cls-1" d="M19.53,15.26a1.87,1.87,0,1,0,1.87,1.87A1.87,1.87,0,0,0,19.53,15.26Zm0,3.12a1.25,1.25,0,1,1,1.25-1.25A1.25,1.25,0,0,1,19.53,18.38Z"/><rect class="cls-2" x="0.98" y="1.32" width="27.27" height="27.27" rx="5.02"/></svg>