<svg id="Camada_1" data-name="Camada 1" xmlns="http://www.w3.org/2000/svg" viewBox="0 0 30 30"><defs><style>.cls-1{fill:#fff;}.cls-2{fill:none;stroke:#fff;stroke-miterlimit:10;}</style></defs><g id="Layer_3" data-name="Layer 3"><path class="cls-1" d="M15.12,17.53H13.68V9.09h1.44Zm-1-.43h.59V9.51h-.59Z"/><path class="cls-1" d="M22.91,23.46H21.85V16.7H15.1V9.89h6.75V6.27h1.06ZM22.28,23h.21V6.7h-.21v3.62H15.52v6h6.76Z"/></g><g id="Layer_1" data-name="Layer 1"><path class="cls-1" d="M8.36,16.91a.26.26,0,1,0-.26-.26.26.26,0,0,0,.26.26"/><path class="cls-1" d="M8.36,17a.32.32,0,1,1,.31-.32A.31.31,0,0,1,8.36,17Zm0-.52a.21.21,0,1,0,.21.2A.21.21,0,0,0,8.36,16.45Z"/><path class="cls-1" d="M6.72,18a.26.26,0,0,0,0-.52.26.26,0,0,0,0,.52"/><path class="cls-1" d="M6.72,18A.31.31,0,1,1,7,17.72.31.31,0,0,1,6.72,18Zm0-.52a.21.21,0,1,0,.2.21A.21.21,0,0,0,6.72,17.51Z"/><path class="cls-1" d="M7.48,18.61a.26.26,0,0,0,.26-.26.26.26,0,0,0-.26-.26.26.26,0,0,0-.26.26.25.25,0,0,0,.26.26"/><path class="cls-1" d="M7.48,18.66a.31.31,0,1,1,.31-.31A.31.31,0,0,1,7.48,18.66Zm0-.51a.2.2,0,0,0-.21.2.21.21,0,0,0,.21.21.2.2,0,0,0,.2-.21A.2.2,0,0,0,7.48,18.15Z"/><path class="cls-1" d="M6.75,19a.26.26,0,1,0,0-.51.26.26,0,1,0,0,.51"/><path class="cls-1" d="M6.75,19.1a.32.32,0,1,1,.31-.31A.31.31,0,0,1,6.75,19.1Zm0-.52a.21.21,0,0,0-.21.21.2.2,0,0,0,.21.2.2.2,0,0,0,.2-.2A.2.2,0,0,0,6.75,18.58Z"/><path class="cls-1" d="M5.47,17.89a.26.26,0,1,0-.26-.26.26.26,0,0,0,.26.26"/><path class="cls-1" d="M5.47,17.94a.31.31,0,1,1,.31-.31A.31.31,0,0,1,5.47,17.94Zm0-.52a.21.21,0,1,0,0,.41.2.2,0,0,0,.2-.2A.2.2,0,0,0,5.47,17.42Z"/><path class="cls-1" d="M8.33,21.41a.26.26,0,1,0,0-.51.26.26,0,0,0,0,.51"/><path class="cls-1" d="M8.33,21.47a.32.32,0,1,1,.32-.32A.31.31,0,0,1,8.33,21.47Zm0-.52a.2.2,0,0,0-.2.2.2.2,0,0,0,.2.21.21.21,0,0,0,.21-.21A.2.2,0,0,0,8.33,21Z"/><path class="cls-1" d="M8.33,18.25A.26.26,0,1,0,8.07,18a.26.26,0,0,0,.26.26"/><path class="cls-1" d="M8.33,18.31A.32.32,0,1,1,8.64,18,.31.31,0,0,1,8.33,18.31Zm0-.52a.21.21,0,1,0,0,.41.2.2,0,0,0,.2-.21A.2.2,0,0,0,8.33,17.79Z"/><path class="cls-1" d="M12.35,19.94a.26.26,0,0,0,.26-.26.26.26,0,0,0-.52,0,.26.26,0,0,0,.26.26"/><path class="cls-1" d="M12.35,20a.31.31,0,1,1,.31-.31A.31.31,0,0,1,12.35,20Zm0-.52a.21.21,0,0,0-.21.21.2.2,0,0,0,.21.2.2.2,0,0,0,.2-.2A.2.2,0,0,0,12.35,19.47Z"/><path class="cls-1" d="M13.22,21.72a.26.26,0,1,0-.26-.26.26.26,0,0,0,.26.26"/><path class="cls-1" d="M13.22,21.77a.31.31,0,1,1,.31-.31A.31.31,0,0,1,13.22,21.77Zm0-.51a.21.21,0,0,0-.21.2.22.22,0,0,0,.21.21.21.21,0,0,0,.2-.21A.2.2,0,0,0,13.22,21.26Z"/><path class="cls-1" d="M13.3,19.94a.26.26,0,0,0,.26-.26.25.25,0,0,0-.26-.26.26.26,0,0,0-.26.26.26.26,0,0,0,.26.26"/><path class="cls-1" d="M13.3,20a.31.31,0,1,1,.31-.31A.31.31,0,0,1,13.3,20Zm0-.52a.2.2,0,0,0-.2.21.2.2,0,0,0,.2.2.2.2,0,0,0,.21-.2A.21.21,0,0,0,13.3,19.47Z"/><path class="cls-1" d="M12.9,19.13a.26.26,0,0,0,.26-.26.26.26,0,0,0-.52,0,.26.26,0,0,0,.26.26"/><path class="cls-1" d="M12.9,19.18a.31.31,0,1,1,.31-.31A.31.31,0,0,1,12.9,19.18Zm0-.51a.2.2,0,0,0-.2.2.2.2,0,0,0,.2.21.21.21,0,1,0,0-.41Z"/><path class="cls-1" d="M14.26,19.41a.26.26,0,1,0-.26-.26.26.26,0,0,0,.26.26"/><path class="cls-1" d="M14.26,19.46a.31.31,0,1,1,.31-.31A.31.31,0,0,1,14.26,19.46Zm0-.52a.21.21,0,0,0-.21.21.2.2,0,0,0,.21.2.2.2,0,0,0,.2-.2A.21.21,0,0,0,14.26,18.94Z"/><path class="cls-1" d="M7.72,17.67a.26.26,0,1,0-.26-.25.26.26,0,0,0,.26.25"/><path class="cls-1" d="M7.72,17.73A.32.32,0,1,1,8,17.42.31.31,0,0,1,7.72,17.73Zm0-.52a.2.2,0,0,0-.2.21.2.2,0,0,0,.2.2.21.21,0,1,0,0-.41Z"/><path class="cls-1" d="M5.67,22.12l-.08,0a.23.23,0,0,1-.15-.31A1.43,1.43,0,0,1,6.08,21,1.14,1.14,0,0,1,7,21a1.51,1.51,0,0,1,.71.78.25.25,0,0,1-.14.32.26.26,0,0,1-.32-.15,1,1,0,0,0-.44-.5.62.62,0,0,0-.51,0,1,1,0,0,0-.38.5.25.25,0,0,1-.23.16Z"/><path class="cls-1" d="M5.67,22.17a.16.16,0,0,1-.1,0A.26.26,0,0,1,5.4,22a.24.24,0,0,1,0-.22A1.49,1.49,0,0,1,6.06,21a1.15,1.15,0,0,1,.94,0,1.55,1.55,0,0,1,.74.82.24.24,0,0,1,0,.22.31.31,0,0,1-.16.16.3.3,0,0,1-.23,0,.3.3,0,0,1-.16-.17.92.92,0,0,0-.41-.47.54.54,0,0,0-.46,0A.9.9,0,0,0,6,22,.31.31,0,0,1,5.67,22.17ZM6.59,21a1.24,1.24,0,0,0-.48.11,1.38,1.38,0,0,0-.62.75.19.19,0,0,0,.36.13,1,1,0,0,1,.41-.53.72.72,0,0,1,.55,0,1.11,1.11,0,0,1,.48.54.18.18,0,0,0,.09.1.2.2,0,0,0,.15,0,.27.27,0,0,0,.11-.1.19.19,0,0,0,0-.15A1.43,1.43,0,0,0,7,21,.86.86,0,0,0,6.59,21Z"/></g><g id="Layer_3-2" data-name="Layer 3"><path class="cls-1" d="M19.05,21.71a1.32,1.32,0,0,1-1.12-.78,1.35,1.35,0,0,1-1.13.78,1.35,1.35,0,0,1-1.12-.78,1.35,1.35,0,0,1-1.13.78.24.24,0,0,1-.24-.24.24.24,0,0,1,.24-.24c.35,0,.69-.37.9-1a.24.24,0,0,1,.23-.16.24.24,0,0,1,.22.16c.21.6.55,1,.9,1s.69-.37.9-1a.24.24,0,0,1,.23-.16.24.24,0,0,1,.22.16c.21.6.55,1,.9,1s.69-.37.9-1a.24.24,0,0,1,.23-.16.24.24,0,0,1,.22.16c.2.57.52.94.85,1a.24.24,0,0,1,.22.26.25.25,0,0,1-.27.22,1.38,1.38,0,0,1-1-.78,1.35,1.35,0,0,1-1.13.78Z"/><path class="cls-1" d="M19.05,21.77A1.34,1.34,0,0,1,17.93,21a1.37,1.37,0,0,1-1.13.74A1.34,1.34,0,0,1,15.68,21a1.37,1.37,0,0,1-1.13.74.3.3,0,0,1-.29-.3.29.29,0,0,1,.29-.29c.33,0,.65-.36.85-.93a.29.29,0,0,1,.28-.2.29.29,0,0,1,.27.2c.2.57.53.93.85.93s.65-.36.85-.93a.29.29,0,0,1,.28-.2.29.29,0,0,1,.27.2c.2.57.53.93.85.93s.65-.36.85-.93a.29.29,0,0,1,.28-.2.29.29,0,0,1,.27.2c.19.54.5.9.81.93a.29.29,0,1,1-.06.58,1.42,1.42,0,0,1-1-.73A1.37,1.37,0,0,1,19.05,21.77Zm-1.12-.95,0,.08a1.3,1.3,0,0,0,1.08.76,1.3,1.3,0,0,0,1.08-.76l.05-.08,0,.08a1.34,1.34,0,0,0,1,.76.2.2,0,0,0,.21-.17.19.19,0,0,0-.17-.21c-.35,0-.69-.42-.9-1a.17.17,0,0,0-.17-.13.2.2,0,0,0-.18.13c-.22.62-.58,1-.95,1s-.73-.38-.95-1a.18.18,0,0,0-.17-.13.2.2,0,0,0-.18.13c-.22.62-.58,1-.95,1s-.73-.38-1-1a.18.18,0,0,0-.17-.13.2.2,0,0,0-.18.13c-.22.62-.58,1-.95,1a.2.2,0,0,0-.19.19.19.19,0,0,0,.19.19,1.3,1.3,0,0,0,1.08-.76l0-.08,0,.08a1.31,1.31,0,0,0,1.08.76,1.3,1.3,0,0,0,1.08-.76Z"/><path class="cls-1" d="M13.84,14.08a6.35,6.35,0,0,0-3.71,2.26A7.75,7.75,0,0,0,8.91,19a1.17,1.17,0,0,0-.63-.18,1.19,1.19,0,0,0-.84.29.25.25,0,0,0,0,.34.24.24,0,0,0,.35,0,.77.77,0,0,1,.49-.14.78.78,0,0,1,.58.28.25.25,0,0,0,.2.09h0a.27.27,0,0,0,.18-.19,8.23,8.23,0,0,1,1.22-2.85,5.9,5.9,0,0,1,3.33-2.07v.56A4.87,4.87,0,0,0,11.17,17a8.89,8.89,0,0,0-1.52,3.78,1.38,1.38,0,0,0-1.21-.85h0a1.6,1.6,0,0,0-.93.37,1.17,1.17,0,0,0-1.22-.65,1.26,1.26,0,0,0-1.09.92.25.25,0,0,0,.2.29.24.24,0,0,0,.28-.2.77.77,0,0,1,.68-.53c.6-.1.82.62.83.65a.24.24,0,0,0,.18.17.23.23,0,0,0,.23-.08,1.48,1.48,0,0,1,.85-.45h0c.84,0,1.06,1.44,1.06,1.45a.25.25,0,0,0,.24.21h0a.24.24,0,0,0,.23-.22,10.25,10.25,0,0,1,1.56-4.55A5.2,5.2,0,0,1,13,16a4.79,4.79,0,0,0-1.09,1.31A10.22,10.22,0,0,0,11.08,22a.24.24,0,0,0,.2.22h0a.24.24,0,0,0,.22-.15,2.42,2.42,0,0,1,.94-1.16,1.79,1.79,0,0,1,1.19-.13.23.23,0,1,0,.13-.44,2.22,2.22,0,0,0-1.52.16,2.08,2.08,0,0,0-.73.64,8.27,8.27,0,0,1,.8-3.64A4.14,4.14,0,0,1,13.84,16"/><path class="cls-1" d="M11.31,22.28h0A.29.29,0,0,1,11,22a10,10,0,0,1,.86-4.77,5.09,5.09,0,0,1,.68-.92,5.22,5.22,0,0,0-1,1A10,10,0,0,0,10,21.81a.3.3,0,0,1-.29.27.29.29,0,0,1-.3-.25c0-.06-.23-1.41-1-1.41a1.39,1.39,0,0,0-.82.44.31.31,0,0,1-.29.09.32.32,0,0,1-.21-.21s-.21-.7-.77-.61a.74.74,0,0,0-.64.49.28.28,0,0,1-.12.19.32.32,0,0,1-.23.05.31.31,0,0,1-.23-.35,1.31,1.31,0,0,1,1.13-1,1.25,1.25,0,0,1,1.25.63,1.61,1.61,0,0,1,.91-.34h0a1.34,1.34,0,0,1,1.18.75,8.77,8.77,0,0,1,1.5-3.66,4.93,4.93,0,0,1,2.67-1.82v-.45a5.78,5.78,0,0,0-3.24,2,7.9,7.9,0,0,0-1.2,2.82.33.33,0,0,1-.23.23.31.31,0,0,1-.3-.11.76.76,0,0,0-1-.13h0a.31.31,0,0,1-.42,0,.32.32,0,0,1-.08-.21.3.3,0,0,1,.08-.21,1.37,1.37,0,0,1,1.48-.15,7.5,7.5,0,0,1,1.21-2.62A6.3,6.3,0,0,1,13.83,14a.06.06,0,0,1,.07,0,.06.06,0,0,1-.05.06,6.22,6.22,0,0,0-3.68,2.25A7.74,7.74,0,0,0,9,19v.07l-.07,0a1.08,1.08,0,0,0-.6-.18,1.14,1.14,0,0,0-.8.27.2.2,0,0,0-.06.14.16.16,0,0,0,.06.13.18.18,0,0,0,.27,0,.79.79,0,0,1,.53-.15.84.84,0,0,1,.62.29.2.2,0,0,0,.2.07.17.17,0,0,0,.14-.14,8.23,8.23,0,0,1,1.23-2.87,6,6,0,0,1,3.36-2.09h.07v.67h-.05A4.83,4.83,0,0,0,11.21,17,8.81,8.81,0,0,0,9.7,20.74l0,.15-.07-.14a1.3,1.3,0,0,0-1.16-.82h0a1.64,1.64,0,0,0-.91.36l0,0,0,0a1.1,1.1,0,0,0-1.16-.63,1.17,1.17,0,0,0-1,.88.18.18,0,0,0,.15.22.22.22,0,0,0,.14,0,.22.22,0,0,0,.08-.13A.83.83,0,0,1,6.34,20c.64-.1.88.68.88.69a.17.17,0,0,0,.14.13.17.17,0,0,0,.18-.05,1.51,1.51,0,0,1,.89-.48c.88,0,1.11,1.44,1.12,1.5a.19.19,0,0,0,.19.17.2.2,0,0,0,.19-.18,10,10,0,0,1,1.57-4.58A5.25,5.25,0,0,1,13,15.93l.06.08A4.87,4.87,0,0,0,12,17.31a10.07,10.07,0,0,0-.84,4.7.17.17,0,0,0,.15.17.19.19,0,0,0,.19-.12,2.42,2.42,0,0,1,1-1.18,1.78,1.78,0,0,1,1.22-.14.18.18,0,0,0,.22-.12.15.15,0,0,0,0-.13.15.15,0,0,0-.1-.09,2.13,2.13,0,0,0-1.49.16,2.25,2.25,0,0,0-.71.62l-.1.13v-.16a8.74,8.74,0,0,1,.81-3.67,4.12,4.12,0,0,1,1.53-1.57s0,0,.07,0,0,.06,0,.07a4.13,4.13,0,0,0-1.49,1.53A8.24,8.24,0,0,0,11.6,21a2,2,0,0,1,.64-.52,2.26,2.26,0,0,1,1.57-.17.29.29,0,0,1,.17.14.3.3,0,0,1,0,.21.3.3,0,0,1-.36.19A1.66,1.66,0,0,0,12.5,21a2.33,2.33,0,0,0-.92,1.13A.28.28,0,0,1,11.31,22.28Z"/></g><rect class="cls-2" x="1.02" y="1.32" width="27.27" height="27.27" rx="5.02"/></svg>