<svg id="Camada_1" data-name="Camada 1" xmlns="http://www.w3.org/2000/svg" viewBox="0 0 30 30"><defs><style>.cls-1,.cls-3{fill:none;}.cls-1{stroke:#fff;stroke-miterlimit:10;}.cls-2{fill:#000;}</style></defs><rect class="cls-1" x="1.26" y="1.32" width="27.27" height="27.27" rx="5.02"/><path class="cls-2" d="M22.68,20.35a3.41,3.41,0,0,0-2.3-2.69l-2.68-.9v-.4h-.62V17l-.47,1.86L15.35,17.3h-.91l-1.26,1.51L12.71,17v-.59h-.62v.4l-2.68.9a3.41,3.41,0,0,0-2.3,2.69l-.69,4.12h17Zm-.22,2.45-.32-.07a.62.62,0,0,1-.49-.51l-.16-.95.69-.17Zm-7.73-4.88h.33l.74.89-.61.91.59,4.13H14l.59-4.13L14,18.81ZM7.61,21.1l.69.17-.15.95a.64.64,0,0,1-.5.51l-.32.07Zm-.39,2.36.56-.11a1.26,1.26,0,0,0,1-1L9,20.81l-1.29-.32v0a2.79,2.79,0,0,1,1.88-2.2l2.58-.86.69,2.76.7-.84.38.56-.57,4H9.94L10.13,22H13v-.63H10.19l0-.28L9.6,21l-.29,2.84H7.16Zm13.26.39L20.19,21l-.62.06,0,.28H16.77V22h2.89l.19,1.87H16.41l-.57-4,.38-.56.7.84.69-2.76,2.58.86a2.79,2.79,0,0,1,1.88,2.2v0l-1.29.33L21,22.33a1.26,1.26,0,0,0,1,1l.55.11.06.39Z"/><path class="cls-2" d="M10.22,10.76A1.54,1.54,0,0,0,9.59,12,1.56,1.56,0,0,0,11,13.54,3.32,3.32,0,0,0,11.85,15l1.21,1.22a1.59,1.59,0,0,0,1.1.46h1.47a1.59,1.59,0,0,0,1.1-.46L17.94,15a3.32,3.32,0,0,0,.87-1.46A1.56,1.56,0,0,0,20.2,12a1.54,1.54,0,0,0-.63-1.24V9.68l1.9-1.14L21,8.29A5.78,5.78,0,0,1,18.9,6.23l-.09-.16h-.17a8.11,8.11,0,0,1-3.58-.89l-.16-.09-.17.09a8.11,8.11,0,0,1-3.58.89H11l-.09.16A5.89,5.89,0,0,1,8.83,8.29l-.51.25,1.9,1.14Zm0,1.24a.93.93,0,0,1,.62-.88v1.46c0,.1,0,.2,0,.3A.93.93,0,0,1,10.22,12Zm7.28,2.56-1.21,1.22a1,1,0,0,1-.66.27H14.16a1,1,0,0,1-.66-.27l-1.21-1.22a2.79,2.79,0,0,1-.83-2V10.83a15.32,15.32,0,0,1,6.87,0v1.75A2.79,2.79,0,0,1,17.5,14.56ZM14.48,9A.93.93,0,0,1,14,8.11V7.57l.94-.24.93.24v.54a.93.93,0,0,1-.52.84l-.41.21Zm4.45,3.93c0-.1,0-.2,0-.3V11.12a.93.93,0,0,1,0,1.76Zm-7.6-6.19a8.68,8.68,0,0,0,3.57-.88,8.61,8.61,0,0,0,3.56.88,6.55,6.55,0,0,0,1.76,1.87l-1,.61a13.67,13.67,0,0,0-2.1-.44L17,9.34a13.85,13.85,0,0,1,1.91.4v.6a15.83,15.83,0,0,0-4-.52l.62-.32a1.54,1.54,0,0,0,.86-1.39v-1L14.9,6.69l-1.56.39v1A1.54,1.54,0,0,0,14.2,9.5l.62.32a15.9,15.9,0,0,0-4,.52v-.6a13.74,13.74,0,0,1,1.92-.4l-.09-.61a13.67,13.67,0,0,0-2.1.44l-1-.61A6.55,6.55,0,0,0,11.33,6.69Z"/><polygon class="cls-3" points="14.77 18.07 14.15 18.82 14.69 19.64 14.19 23.73 15.62 23.73 15.07 19.64 15.66 18.81 15.04 18.07 14.77 18.07"/><path class="cls-3" d="M14.12,7.7l.74-.17.81.18a1.59,1.59,0,0,1,0,.44,1.06,1.06,0,0,1-.78.8,1,1,0,0,1-.72-.78A2.83,2.83,0,0,1,14.12,7.7Z"/></svg>