<svg id="Camada_1" data-name="Camada 1" xmlns="http://www.w3.org/2000/svg" viewBox="0 0 1212.16 169.93"><defs><style>.cls-1{fill:#737171;}.cls-2{fill:none;stroke:#737171;stroke-linecap:round;stroke-miterlimit:10;stroke-width:2px;}.cls-3{fill:#821648;}.cls-4{fill:#805c5c;}.cls-5{fill:#e94e23;}.cls-6{fill:#f18832;}.cls-7{fill:#96d2da;}.cls-8{fill:#4bb697;}</style></defs><polygon class="cls-1" points="9.68 127.52 5.88 129.76 9.42 135.77 11.98 140.11 14.54 135.77 18.08 129.76 14.28 127.52 11.98 131.42 9.68 127.52"/><polygon class="cls-1" points="243.65 127.52 239.85 129.76 243.39 135.77 245.95 140.11 248.51 135.77 252.05 129.76 248.25 127.52 245.95 131.42 243.65 127.52"/><polygon class="cls-1" points="482.62 127.52 478.82 129.76 482.36 135.77 484.92 140.11 487.48 135.77 491.02 129.76 487.22 127.52 484.92 131.42 482.62 127.52"/><polygon class="cls-1" points="715.59 127.52 711.79 129.76 715.33 135.77 717.89 140.11 720.45 135.77 723.99 129.76 720.19 127.52 717.89 131.42 715.59 127.52"/><polygon class="cls-1" points="1189.53 127.52 1185.73 129.76 1189.27 135.77 1191.83 140.11 1194.39 135.77 1197.93 129.76 1194.13 127.52 1191.83 131.42 1189.53 127.52"/><path class="cls-2" d="M536.45,26V41.58s3,24.55-28.54,24.55H31.36s-19-2.46-19,17v42.45"/><path class="cls-2" d="M559.26,28V59.58s3,24.55-28.55,24.55H265.17s-19-2.46-19,17v24.45"/><path class="cls-2" d="M581.59,28.2V76.8s3,24.54-28.55,24.54H503.5s-19-2.46-19,17v-2.76"/><path class="cls-2" d="M649.42,26V41.58s-3.1,24.55,29.51,24.55h492.79s19.64-2.46,19.64,17v42.45"/><path class="cls-2" d="M625.83,28V59.58s-3.15,24.55,30,24.55H935.37s20-2.46,20,17v24.45"/><path class="cls-2" d="M602.75,28.2V76.8s-3.57,24.54,34,24.54h59s22.62-2.46,22.62,17v-2.76"/><circle class="cls-3" cx="536.64" cy="26.43" r="4.39"/><circle class="cls-4" cx="559.16" cy="26.43" r="4.39"/><circle class="cls-5" cx="581.68" cy="26.43" r="4.39"/><circle class="cls-6" cx="603.2" cy="26.43" r="4.39"/><circle class="cls-7" cx="626.72" cy="26.43" r="4.39"/><circle class="cls-8" cx="649.24" cy="26.43" r="4.39"/><polygon class="cls-1" points="952.97 127.52 949.17 129.76 952.71 135.77 955.27 140.11 957.82 135.77 961.36 129.76 957.56 127.52 955.27 131.42 952.97 127.52"/></svg>