<svg id="Camada_1" data-name="Camada 1" xmlns="http://www.w3.org/2000/svg" viewBox="0 0 1212.16 169.93"><defs><style>.cls-1{fill:#737171;}.cls-2{fill:none;stroke:#737171;stroke-linecap:round;stroke-miterlimit:10;stroke-width:2px;}.cls-3{fill:#821648;}.cls-4{fill:#805c5c;}.cls-5{fill:#4bb697;}.cls-6{fill:#e94e23;}.cls-7{fill:#f18832;}.cls-8{fill:#96d2da;}</style></defs><polygon class="cls-1" points="10.87 97.16 7.07 99.4 10.61 105.41 13.17 109.75 15.73 105.41 19.27 99.4 15.47 97.16 13.17 101.06 10.87 97.16"/><line class="cls-2" x1="13.17" y1="63.75" x2="13.17" y2="95.88"/><polygon class="cls-1" points="1196.69 97.16 1192.89 99.4 1196.43 105.41 1198.99 109.75 1201.54 105.41 1205.08 99.4 1201.28 97.16 1198.99 101.06 1196.69 97.16"/><line class="cls-2" x1="1198.99" y1="63.75" x2="1198.99" y2="95.88"/><circle class="cls-3" cx="13.17" cy="63.56" r="4.39"/><polygon class="cls-1" points="245.87 97.16 242.07 99.4 245.61 105.41 248.17 109.75 250.73 105.41 254.26 99.4 250.47 97.16 248.17 101.06 245.87 97.16"/><line class="cls-2" x1="248.17" y1="64.75" x2="248.17" y2="96.88"/><circle class="cls-4" cx="248.17" cy="63.56" r="4.39"/><circle class="cls-5" cx="1198.99" cy="63.56" r="4.39"/><polygon class="cls-1" points="483.16 98.16 479.36 100.4 482.9 106.41 485.46 110.75 488.02 106.41 491.56 100.4 487.75 98.16 485.46 102.06 483.16 98.16"/><line class="cls-2" x1="485.46" y1="63.75" x2="485.46" y2="95.88"/><circle class="cls-6" cx="485.46" cy="63.56" r="4.39"/><polygon class="cls-1" points="720.73 97.16 716.93 99.4 720.47 105.41 723.02 109.75 725.58 105.41 729.12 99.4 725.32 97.16 723.02 101.06 720.73 97.16"/><line class="cls-2" x1="723.02" y1="63.75" x2="723.02" y2="95.88"/><circle class="cls-7" cx="723.02" cy="63.56" r="4.39"/><polygon class="cls-1" points="959.76 97.16 955.96 99.4 959.5 105.41 962.06 109.75 964.62 105.41 968.15 99.4 964.36 97.16 962.06 101.06 959.76 97.16"/><line class="cls-2" x1="962.06" y1="63.75" x2="962.06" y2="95.88"/><circle class="cls-8" cx="962.06" cy="63.56" r="4.39"/></svg>