<svg id="Camada_1" data-name="Camada 1" xmlns="http://www.w3.org/2000/svg" xmlns:xlink="http://www.w3.org/1999/xlink" viewBox="0 0 196 78"><defs><style>.cls-1,.cls-5{fill:none;}.cls-2{clip-path:url(#clip-path);}.cls-3{fill:#fff;}.cls-4{fill:#5cb24a;}.cls-5{stroke:#fff;stroke-linecap:round;stroke-linejoin:round;stroke-width:0.12px;}.cls-6{fill:#9b1d62;}.cls-7{fill:#95d2d9;}.cls-8{clip-path:url(#clip-path-2);}.cls-9{opacity:0.1;}.cls-10{clip-path:url(#clip-path-3);}</style><clipPath id="clip-path"><rect class="cls-1" x="-651.89" y="-150.33" width="601.89" height="175.63"/></clipPath><clipPath id="clip-path-2"><rect class="cls-1" x="0.34" y="-150.39" width="598.89" height="123.39"/></clipPath><clipPath id="clip-path-3"><rect class="cls-1" x="0.34" y="-150.39" width="239.12" height="123.39" transform="translate(239.79 -177.39) rotate(-180)"/></clipPath><image id="image" width="2000" height="1333" xlink:href="../../Base/shutterstock_704671762.jpg"/></defs><title>Template e-mail</title><g class="cls-2"><use transform="translate(-653.99 -151.73) scale(0.41 0.41)" xlink:href="#image"/></g><path class="cls-3" d="M47.16,37.36a11.32,11.32,0,0,1,1.32-.26h4.78l.26-1.05h-.26c-.53-.26-.8-.26-1.06-.52a3.67,3.67,0,0,1-.8-1.05c-.53-1.31-.79-2.88-1.32-4.72a39.07,39.07,0,0,1-1.33-4.46,5.73,5.73,0,0,0-.8-2.36l-.26-.26-2.12.53-4.25,11a2.82,2.82,0,0,1-.79,1.31c0,.26-.54.26-.8.52l-.27,1.05H45.3V36.05H44.24c-.53,0-.8,0-1.06-.26a.9.9,0,0,1-.27-.52.94.94,0,0,1,.27-.79l.79-2.1c.8,0,1.33-.26,2.13-.26h2.12l.79,2.1v1.05c0,.26,0,.52-.26.52a9.74,9.74,0,0,1-1.59.26v1.31Zm-2.92-6.29,1.86-5.51h.26L48,30.81c-.53,0-1.32.26-1.85.26Z"/><path class="cls-3" d="M59.89,36.32v1a1.35,1.35,0,0,0,.8-.26H64.4V36.05h-.53c-.26,0-.53-.26-.79-.26v-1l.26-5.24a4.28,4.28,0,0,1,2.39-.79c.53,0,.79,0,1.06.53a2.21,2.21,0,0,1,.53,1.57v3.93c0,.53-.27.79-.27,1-.26,0-.53.26-.79.26L66,37.1H70.5l.27-1.05H70a1,1,0,0,1-.53-.26c-.26-.26-.26-.52-.26-1a17.44,17.44,0,0,1,.26-2.88V29.5a2,2,0,0,0-.79-1.84,3.29,3.29,0,0,0-2.39-.78,1.74,1.74,0,0,0-1.33.52,15.2,15.2,0,0,1-1.85,1.05c0-.53-.54-.79-1.07-1.31a4,4,0,0,0-1.85-.26,1.74,1.74,0,0,0-1.33.52A11.4,11.4,0,0,0,57,28.45h0a1.94,1.94,0,0,1,.27-1.05v-.52H57a4.67,4.67,0,0,0-1.32.26c-.53,0-1.33.26-2.13.26v1.05h.27c.53,0,.8,0,.8.26.26.26.26.53.26,1.05v5c0,.53,0,.79-.26,1a2.7,2.7,0,0,1-.8.26l-.27,1.05H58l.27-1.05v-.26l-.27.26H57.5c-.26,0-.26-.26-.53-.26v-6a4.32,4.32,0,0,1,2.39-1.05c.53,0,1.06,0,1.33.53a2.21,2.21,0,0,1,.53,1.57L61,34.74c0,.53,0,.79-.26,1,0,.26-.27.26-.8.53Z"/><path class="cls-3" d="M79.79,37.36a1.44,1.44,0,0,0,1.06-.78c.26-.26.8-.79.8-1L81.38,35a.94.94,0,0,1-.53.27.84.84,0,0,1-.53.26c-.27,0-.53-.26-.8-.26,0-.27-.26-.53-.26-.79a21,21,0,0,0,.26-2.88,8.18,8.18,0,0,0,.27-1.84,2.58,2.58,0,0,0-.8-2.1,4.53,4.53,0,0,0-2.65-.78,2.64,2.64,0,0,0-1.59.52,5.22,5.22,0,0,0-2.12,1.05l.26,1.05h0l1.59-.79c.27,0,.8-.26,1.06-.26a2.3,2.3,0,0,1,1.6.52,3.8,3.8,0,0,1,.53,1.58v.78l-4.25,1.31a1.4,1.4,0,0,0-1.06.53,1.54,1.54,0,0,0-.27,1,2.58,2.58,0,0,0,.8,2.1,2.43,2.43,0,0,0,2.12,1c.27,0,.53-.26,1.06-.52s.8-.79,1.33-1.31h.27c0,1.31.79,1.83,2.12,1.83Zm-4.25-1.83c-.26,0-.79-.26-.79-.53a1.33,1.33,0,0,1-.53-1c0-.27.26-.53.53-.79l2.92-.79-.27,2.36c-.26,0-.53.26-.8.53a2,2,0,0,1-1.06.26Z"/><path class="cls-3" d="M82.44,36.58l.27.52H90.4l.53-.26V35.27c0-.53,0-1.05.27-1.31v-.79H90.13a2.58,2.58,0,0,1-.79,2.1,2.07,2.07,0,0,1-1.33.52l-2.92.26c.53-.78,1.33-1.83,2.66-3.41,1.06-1.57,2.38-3.4,3.45-5v-.52l-5-.26H83.24A5.58,5.58,0,0,1,83,29v1.31H84A1.93,1.93,0,0,1,84.3,29c0-.26.26-.26.53-.52.26,0,.53-.26,1.06-.26h2.39l-5.84,8.39Z"/><path class="cls-3" d="M97.3,37.36a4.55,4.55,0,0,0,2.65-.78,7.11,7.11,0,0,0,2.12-1.84,10.81,10.81,0,0,0,.53-2.88,6.4,6.4,0,0,0-.53-2.62,3.47,3.47,0,0,0-1.59-1.84,3.62,3.62,0,0,0-2.39-.52,8,8,0,0,0-2.65.52,7,7,0,0,0-1.86,2.1,5.21,5.21,0,0,0-.79,2.88A7.52,7.52,0,0,0,93.32,35a11.16,11.16,0,0,0,1.59,1.84,7.89,7.89,0,0,0,2.39.52Zm.53-1.31c-.8,0-1.33-.52-1.86-1.31a5.51,5.51,0,0,1-.79-3.14,5.11,5.11,0,0,1,.53-2.36,2.06,2.06,0,0,1,3.71.26,5.51,5.51,0,0,1,.8,3.14c0,1,0,1.84-.53,2.36a2,2,0,0,1-1.86,1ZM95.18,25.56a12.69,12.69,0,0,1,2.65-2.09c.26,0,.26.26.53.26a7.2,7.2,0,0,1,2.12,1.83l.27-.26.53-.52-2.13-2.1c-.53-.52-1.06-1.05-1.06-1.31h-.53c0,.26-.53.52-1.32,1.31-.53.79-1.33,1.31-1.86,2.1l.53.52.27.26Z"/><path class="cls-3" d="M110.56,36.32l-.26,1a2,2,0,0,0,1.06-.26h3.45l.26-1.05h-.79a.91.91,0,0,1-.53-.26c0-.26-.27-.52-.27-1a20.23,20.23,0,0,0,.27-2.88A9.13,9.13,0,0,0,114,29.5a2,2,0,0,0-.79-1.84,4.37,4.37,0,0,0-2.39-.78,2.64,2.64,0,0,0-1.59.52,5.64,5.64,0,0,1-1.6,1.05h0V27.4c0-.26.27-.26.27-.52h-.27a3.59,3.59,0,0,0-1.32.26c-.8,0-1.59.26-2.12.26l-.27,1.05h.53a1,1,0,0,1,.8.26c0,.26.26.53.26,1.05v5c0,.53-.26.79-.26,1-.27,0-.53.26-1.06.26V37.1h4.51l.26-1.05v-.26a.25.25,0,0,0-.26.26h-.54a1,1,0,0,1-.53-.26c-.26-.26-.26-.52-.26-1a27.29,27.29,0,0,1,.26-3.41V29.5a4.31,4.31,0,0,1,2.39-.79c.53,0,1.06,0,1.33.53.26.26.26.78.26,1.57v3.93c0,.53,0,.79-.26,1s-.53.26-.8.53Z"/><path class="cls-3" d="M116.4,37.36a2,2,0,0,0,1.06-.26h3.71V35.79a.25.25,0,0,1-.26.26h-.27c-.26,0-.53-.26-.79-.26v-6c.26-1.57.26-2.36.53-2.62l-.27-.26a2.92,2.92,0,0,0-1.32.26c-.8,0-1.6.26-2.39.26v1.05h.53c.26,0,.53,0,.53.26a1,1,0,0,1,.27.79v5.24c0,.53,0,.79-.27,1s-.53.26-.8.53l-.26,1Zm2.12-12.84c.53,0,.8-.27,1.33-.53.26-.26.26-.52.26-1a1,1,0,0,0-.26-.78,1.37,1.37,0,0,0-1.06-.53,1.94,1.94,0,0,0-1.06.53c-.27.26-.27.52-.27,1.05a1.52,1.52,0,0,0,.27,1,1,1,0,0,0,.79.27Z"/><path class="cls-3" d="M130.46,37.36a1.44,1.44,0,0,0,1.06-.78c.27-.26.8-.79.8-1l-.27-.53a.9.9,0,0,1-.53.27.84.84,0,0,1-.53.26c-.27,0-.53-.26-.8-.26,0-.27-.26-.53-.26-.79a21,21,0,0,0,.26-2.88,8.18,8.18,0,0,0,.27-1.84,2.58,2.58,0,0,0-.8-2.1,4.53,4.53,0,0,0-2.65-.78,2.64,2.64,0,0,0-1.59.52,5.22,5.22,0,0,0-2.12,1.05l.26,1.05h.27a5.64,5.64,0,0,1,1.32-.79,12,12,0,0,1,1.33-.26,2.07,2.07,0,0,1,1.33.52,3.8,3.8,0,0,1,.53,1.58v.78l-4.25,1.31a1.4,1.4,0,0,0-1.06.53,1.59,1.59,0,0,0-.26,1,2.58,2.58,0,0,0,.79,2.1,2.43,2.43,0,0,0,2.12,1c.27,0,.53-.26,1.06-.52s.8-.79,1.33-1.31h.27c0,1.31.79,1.83,2.12,1.83Zm-4.25-1.83c-.26,0-.79-.26-.79-.53a1.33,1.33,0,0,1-.53-1c0-.27.26-.53.53-.79l2.92-.79-.27,2.36c-.26,0-.53.26-.79.53a2.07,2.07,0,0,1-1.07.26Z"/><path class="cls-3" d="M137.89,37.36a2.92,2.92,0,0,0,1.32-.26h5.57c1.33,0,2.13.26,2.66.26l.26-.26a10.43,10.43,0,0,1,.27-2.88,9.56,9.56,0,0,1,.26-1.58v-.26l-1.59.26a4.81,4.81,0,0,1-.53,2.1.84.84,0,0,1-.79.79c-.27.26-1.07.26-1.86.26H142.4l-.53-.52V34.22c0-2.89,0-5.77.26-8.39v-1c.27-.26.27-.26.53-.53a2,2,0,0,0,1.06-.26v-1h-5.57v1.31h.8c.26,0,.53,0,.53.27a1.14,1.14,0,0,1,.26.78v8.92a2,2,0,0,1-.53,1.31c0,.26-.53.52-1.06.52l-.26,1.31Z"/><path class="cls-3" d="M153.27,37.36a3.86,3.86,0,0,0,1.6-.52,11.7,11.7,0,0,0,1.85-1.05l-.26-.79h0a11.42,11.42,0,0,1-2.66.53,2.58,2.58,0,0,1-2.38-1.05,4.17,4.17,0,0,1-.8-2.88h5.84l.26-.27a1.53,1.53,0,0,0,.27-1,3.46,3.46,0,0,0-.8-2.62,4.89,4.89,0,0,0-5.3,0A4.12,4.12,0,0,0,149,29.5a5.92,5.92,0,0,0-.8,2.88,5.61,5.61,0,0,0,1.33,3.67,5.76,5.76,0,0,0,3.71,1.31Zm-2.65-6.81a2.39,2.39,0,0,1,.8-1.84,3.82,3.82,0,0,1,1.59-.52c.53,0,1.06,0,1.33.52.26.26.26.53.26,1.31v.26a.9.9,0,0,1-.53.27Z"/><path class="cls-3" d="M168.13,27.92l.27-1.57h0a20.23,20.23,0,0,1-3.19.53h-2.12a2.89,2.89,0,0,0-2.12.52,2.68,2.68,0,0,0-1.59,1.31,3.13,3.13,0,0,0-.53,2.1c0,.52,0,1.31.26,1.57a3.17,3.17,0,0,0,1.33,1.31h0a11.35,11.35,0,0,0-1.86,1.58,2,2,0,0,0,.53,1.31,2.43,2.43,0,0,0,1.86.78v.27a2.64,2.64,0,0,0-1.33,1,3.72,3.72,0,0,0-1.06.78,3.21,3.21,0,0,0,1.06,2.1,4.56,4.56,0,0,0,2.65.79,4.38,4.38,0,0,0,2.66-.53,3.27,3.27,0,0,0,2.12-1.57,2,2,0,0,0,1.06-1.84,1.43,1.43,0,0,0-.8-1.31c-.53-.52-1.06-.52-1.59-.78-.53,0-1.32-.27-2.38-.27a12.13,12.13,0,0,1-2.13-.52c-.53,0-.79-.26-.79-.53s.26-.52.79-1a2.94,2.94,0,0,0,1.33.26,5.25,5.25,0,0,0,2.39-.53,2.71,2.71,0,0,0,1.59-1.31,3.44,3.44,0,0,0,.79-2.1,2.36,2.36,0,0,0-1.06-2.09l.27-.27Zm-5,5.25a2.28,2.28,0,0,1-1.59-.79,2.19,2.19,0,0,1-.53-1.83,2.21,2.21,0,0,1,.53-1.84,2,2,0,0,1,1.32-.52,1.63,1.63,0,0,1,1.6.78,2,2,0,0,1,.79,1.84,2.16,2.16,0,0,1-.53,1.57,1.88,1.88,0,0,1-1.59.79ZM162,37.63a15.06,15.06,0,0,1,2.65.52c.53,0,.8.26,1.06.26a1,1,0,0,1,.27.79,2,2,0,0,1-.27,1,2,2,0,0,1-1.06.52,4.82,4.82,0,0,1-3.18,0,2,2,0,0,1-.53-1.31,1,1,0,0,1,.26-.78,3.53,3.53,0,0,1,.8-1Z"/><path class="cls-3" d="M176.89,37.36a1.44,1.44,0,0,0,1.06-.78c.26-.26.53-.79.79-1l-.26-.53a.94.94,0,0,1-.53.27.84.84,0,0,1-.53.26c-.27,0-.53-.26-.8-.26,0-.27-.27-.53-.27-.79a20.23,20.23,0,0,0,.27-2.88,8.18,8.18,0,0,0,.27-1.84,2.58,2.58,0,0,0-.8-2.1,4.55,4.55,0,0,0-2.65-.78,2.68,2.68,0,0,0-1.6.52,5.28,5.28,0,0,0-2.12,1.05L170,29.5h0l1.59-.79c.26,0,.8-.26,1.06-.26a2.25,2.25,0,0,1,1.59.52,3.66,3.66,0,0,1,.53,1.58v.78l-4.24,1.31a1.38,1.38,0,0,0-1.06.53,1.54,1.54,0,0,0-.27,1,2.58,2.58,0,0,0,.8,2.1,2.42,2.42,0,0,0,2.12,1c.27,0,.53-.26,1.06-.52s.8-.79,1.33-1.31h.26c0,1.31.8,1.83,2.13,1.83Zm-4.25-1.83a2,2,0,0,1-1.06-.53c-.27-.26-.27-.52-.27-1,0-.27.27-.53.53-.79l2.66-.79v2.36c-.27,0-.53.26-.8.53a2,2,0,0,1-1.06.26Z"/><path class="cls-3" d="M179.54,37.36a7.47,7.47,0,0,1,2.39-.26h2.12l.26-1.05h-.79a.91.91,0,0,1-.53-.26c-.27-.26-.27-.52-.27-1,0-3.14,0-6.29.27-8.91,0-2.89.26-4.46.53-4.72l-.27-.27a17.56,17.56,0,0,1-3.71.53l-.27,1.05h.53c.53,0,.8,0,.8.26a2.71,2.71,0,0,1,.26.79V34.22c0,.52,0,.78-.26,1.05,0,.26,0,.52-.27.52,0,.26-.26.26-.79.53v1Z"/><path class="cls-3" d="M73.42,64.9a8.88,8.88,0,0,0,4.51-1.05,9.05,9.05,0,0,0,3.18-3.15,10.49,10.49,0,0,0,1.07-5,7.46,7.46,0,0,0-2.13-5.51c-1.32-1.31-3.45-1.83-6.1-1.83H66.26v2.09h.53a.25.25,0,0,1,.26-.26c.54,0,.54.26.8.26V60.7c0,.79,0,1.31-.26,1.57a2,2,0,0,1-1.33.53L66,64.9a3.51,3.51,0,0,0,1.33-.27h4.24a5.92,5.92,0,0,0,1.86.27ZM72.89,51c1.59,0,2.65.26,3.45,1.31.8.79,1.06,2.36,1.06,4.46A6.56,6.56,0,0,1,76.34,61a3.43,3.43,0,0,1-2.92,1.31A2,2,0,0,1,72.09,62a5.29,5.29,0,0,1-.26-1.31c0-2.62.26-5.77.26-9.18a.9.9,0,0,1,.27-.52Z"/><path class="cls-3" d="M92.26,64.9c.26,0,.79-.53,1.32-1.05s.8-1.05,1.33-1.58l-.53-.78a2.06,2.06,0,0,1-1.06.52.91.91,0,0,1-.53-.26.94.94,0,0,1-.27-.79V59.65a2.77,2.77,0,0,0,.27-1.31,12,12,0,0,0,.26-2.1A3,3,0,0,0,92,53.62a4.52,4.52,0,0,0-3.45-1,8,8,0,0,0-2.12.53c-1.06.52-1.86,1-2.92,1.57L84,56.24l.27.27,1.59-.79c.53-.26.8-.53,1.33-.53a2.28,2.28,0,0,1,1.59.53,1.91,1.91,0,0,1,.53,1.57v.53l-4.78,1a2,2,0,0,0-1.32.52A3.23,3.23,0,0,0,83,61a2.49,2.49,0,0,0,.53,1.84,3.38,3.38,0,0,0,1.06,1.57,5,5,0,0,0,1.86.53,4.58,4.58,0,0,0,1.33-.53c.53-.52,1.06-.79,1.59-1.31h.26a1.45,1.45,0,0,0,.8,1.31,3.89,3.89,0,0,0,1.86.53ZM87.75,62c-.53,0-.8,0-1.06-.26,0-.26-.27-.79-.27-1s0-.52.27-.52a.26.26,0,0,1,.26-.27l2.39-.52v2.1c-.27.26-.53.26-.8.52Z"/><path class="cls-3" d="M106.05,64.9c.27,0,.8-.53,1.06-.79a4.66,4.66,0,0,0,1.06-1.31l.54-.53-.54-.78c0,.26,0,.26-.26.26a.84.84,0,0,1-.53.26.91.91,0,0,1-.53-.26.94.94,0,0,1-.27-.79c0-3.67,0-7.08.27-10,0-2.62.26-4.2.53-4.46l-.27-.52a8.7,8.7,0,0,0-2.12.26,18.67,18.67,0,0,1-3.45.52l-.26,1.84h.53c.53,0,.79,0,1.06.26v3.93c0-.26-.53-.26-1.06-.26a4.68,4.68,0,0,0-3.19,1,6.24,6.24,0,0,0-2.38,2.1,7.21,7.21,0,0,0-.8,3.41,6.59,6.59,0,0,0,1.33,4.19,4.29,4.29,0,0,0,3.45,1.58,19.39,19.39,0,0,0,2.91-1.84h.27a1.43,1.43,0,0,0,.8,1.31c.26.53,1.06.53,1.85.53ZM101.54,62a1.62,1.62,0,0,1-1.59-.78,9.54,9.54,0,0,1-.53-2.89A5.27,5.27,0,0,1,100,56a1.63,1.63,0,0,1,1.59-.79h.53c.27,0,.53,0,.53.27h.27v6a.26.26,0,0,1-.27.26.91.91,0,0,1-.53.26Z"/><path class="cls-3" d="M114.81,64.9a7.52,7.52,0,0,0,3.45-.79,6.29,6.29,0,0,0,2.12-2.36,6.52,6.52,0,0,0,.79-3.41,5.49,5.49,0,0,0-1.59-4.19,4.67,4.67,0,0,0-4-1.58,5.67,5.67,0,0,0-3.18.79A5.16,5.16,0,0,0,110,55.72a6.52,6.52,0,0,0-.79,3.41,5.5,5.5,0,0,0,1.59,4.19,5.44,5.44,0,0,0,4,1.58Zm.53-2.1c-.8,0-1.06-.53-1.59-1.31a9,9,0,0,1-.53-3.41,5.11,5.11,0,0,1,.53-2.36,2,2,0,0,1,1.32-.53,1.45,1.45,0,0,1,1.59,1.05,10.09,10.09,0,0,1,.53,3.41,5.11,5.11,0,0,1-.53,2.36,1.44,1.44,0,0,1-1.32.79Z"/><path class="cls-3" d="M126.21,64.9a9.63,9.63,0,0,0,2.92-.53A4.75,4.75,0,0,0,131,63.06a3,3,0,0,0,.8-2.1c0-.52,0-1.05-.27-1.31a2.74,2.74,0,0,0-1.33-1,9.85,9.85,0,0,0-2.38-1.31,3.79,3.79,0,0,1-1.07-.78,1,1,0,0,1-.26-.79c0-.26,0-.53.26-.53.27-.26.54-.26,1.07-.26s.79,0,1.06.26a2,2,0,0,1,.53,1.32v.26H131c0-.79.26-1.31.26-2.1a3.43,3.43,0,0,0,.27-1.31l-.27-.26a.82.82,0,0,1-.53-.27,1.31,1.31,0,0,1-.79-.26h-1.59a9.38,9.38,0,0,0-2.92.53,3.35,3.35,0,0,0-1.86,1.31,3.44,3.44,0,0,0-.79,2.1,2.94,2.94,0,0,0,.79,2.09,3.26,3.26,0,0,0,2.12,1.31A8.83,8.83,0,0,1,127.54,61c.27.27.53.53.53.79a1,1,0,0,1-.26.79c-.27,0-.8.26-1.07.26a1.61,1.61,0,0,1-1.59-.79c-.53-.26-.53-.78-.53-1.57l-1.85.26c0,1.57-.27,2.62-.27,3.15l.27.26a.91.91,0,0,0,.53.26,2,2,0,0,0,1.32.26,3.31,3.31,0,0,0,1.59.27Z"/><path class="cls-3" d="M45,50.47c0-.52,0-.78-.27-1a1.37,1.37,0,0,0-1.06-.53,3.49,3.49,0,0,0-2.12.79,5.72,5.72,0,0,0-1.33,2.1,5.78,5.78,0,0,0-.8,2.62A5.27,5.27,0,0,0,40,56.77a2.35,2.35,0,0,0,1.6.78,2.31,2.31,0,0,0,1.59-.78,2.67,2.67,0,0,0,1.32-1.58l-.26-.26H44c-.26.26-.53.79-.79,1-.53.26-.8.53-1.06.53-.53,0-.8-.27-1.06-.79a3.81,3.81,0,0,1-.27-1.84A8.67,8.67,0,0,0,44,52.31,2.26,2.26,0,0,0,45,50.47ZM43.18,50c.26,0,.53.26.53.79a2,2,0,0,1-.53,1.31,11,11,0,0,1-2.39,1.05c.27-.53.27-1.05.53-1.58a3.81,3.81,0,0,1,.8-1.05A1.38,1.38,0,0,1,43.18,50Z"/><path class="cls-3" d="M55.91,56.24V56c.27-.26.27-1,.8-2.1a6.74,6.74,0,0,0,.53-1.83,2.88,2.88,0,0,0,.26-1.31,2,2,0,0,0-.26-1.31,1.37,1.37,0,0,0-1.06-.53l-1.86,1.84a26.71,26.71,0,0,0-1.86,2.88h0A10.68,10.68,0,0,1,53,52.05a5.13,5.13,0,0,1,.27-1.31,2,2,0,0,0-.53-1.31c-.27-.27-.53-.53-.8-.53a4.15,4.15,0,0,0-1.85,1.84,26.71,26.71,0,0,0-1.86,2.88h0c0-.52.26-1.31.26-1.83A5.35,5.35,0,0,0,49,50.21a1.12,1.12,0,0,1,.27-.78L49,49.16H46.1V50h.79c.27,0,.27,0,.53.26a.9.9,0,0,1,.27.53c0,.26-.27,1-.53,2.88s-.53,2.89-.53,3.67h.79c.27-.26.27-.26.53-.26V55.46c.8-1.31,1.33-2.63,1.86-3.41.53-1,1.06-1.31,1.59-1.31h.27a.81.81,0,0,1,.26.52c0,.26-.26,1.31-.53,2.89a12.94,12.94,0,0,1-.79,3.14h.79a.84.84,0,0,1,.53-.26l.27-1.31c.53-1.31,1.32-2.62,1.86-3.67.79-1,1.32-1.31,1.59-1.31h.53v1.57a17.41,17.41,0,0,0-.8,2.1A3.62,3.62,0,0,1,54.85,56V57a.57.57,0,0,0,.53.52A8.8,8.8,0,0,0,58,55.46l-.26-.27H57.5a4.46,4.46,0,0,1-1.06.79c-.26,0-.26.26-.53.26Z"/><polygon class="cls-4" points="18.24 26.88 23.55 26.88 23.55 19.27 10.55 19.27 10.55 32.12 18.24 32.12 18.24 26.88 18.24 26.88"/><polygon class="cls-5" points="18.24 26.88 23.55 26.88 23.55 19.27 10.55 19.27 10.55 32.12 18.24 32.12 18.24 26.88 18.24 26.88"/><polygon class="cls-6" points="28.85 37.37 20.63 37.37 20.63 29.24 28.85 29.24 28.85 37.37 28.85 37.37"/><polygon class="cls-5" points="28.85 37.37 20.63 37.37 20.63 29.24 28.85 29.24 28.85 37.37 28.85 37.37"/><polygon class="cls-7" points="32.3 19.27 23.55 19.27 23.55 10.62 32.3 10.62 32.3 19.27 32.3 19.27"/><polygon class="cls-5" points="32.3 19.27 23.55 19.27 23.55 10.62 32.3 10.62 32.3 19.27 32.3 19.27"/><g class="cls-8"><use transform="translate(-1.76 -151.79) scale(0.41 0.41)" xlink:href="#image"/></g><g class="cls-9"><g class="cls-10"><path class="cls-3" d="M85.32,13.41c-.22-1.12,1.56.84,1.06-.72C86.29,13,84.8,12.22,85.32,13.41Z"/><path class="cls-3" d="M86.38,12.69h0l0-.16Z"/><path class="cls-3" d="M181.27,53.35a1.64,1.64,0,0,1,.68.07C181.54,53.22,182.38,52.16,181.27,53.35Z"/><path class="cls-3" d="M124.34,57.89l.32.08A.48.48,0,0,0,124.34,57.89Z"/><path class="cls-3" d="M182,53.42Z"/><path class="cls-3" d="M187.73,45.65c-1,1,.07,1,.17,1.53-1,1.31-1,.12-1.63.23-.59.88-.64,2-1.21,2.47-.13-.05-.27,0-.26-.22-.33,1.21-2.27,2.32-2.59,3.78a.42.42,0,0,1-.26,0,1.82,1.82,0,0,1,.91.61c-.42.45-.45,1.17-1,1,.28-.26.15-.43.16-.67l-.29.62c-.94-.09.43-.81,0-1.19-.71,1.07-1.29,2.56-2.11,3.11-.67-.35,1.39-1.8,0-1.31l1.24-.89c-1.61,0,.69-.6-.91-.69-1.52,1.28-1.29,1.87-2.77,3.11,0,.59.52.31.51.9-1.43,2.45-2.76.21-3.51,2.17-.06.67.37,1.54-1,2l-.12-.92a1.59,1.59,0,0,0-.83,1.17c-.08.33-.22.65-1.14.83.13-.42,1-.9.75-.85-1.3,0-.45.81-1.26,1.22l-.47-.58a19.94,19.94,0,0,1-5.43,2.35c.09-.23.4-.51-.12-.65-2.55.77-5.79.48-8.38.09l-1,.61c-.23,0-.43-.28-.17-.4-1-.25-.06.39-.56.63-.59,0-.77-.36-.39-.55-1.81.49-5.27.88-7.1-.06l.39-.14c-1.44-.41-1.85,1-3.15.26l.29-.07c-3.17-.77-6.83-1.08-8.94-2.7-.73.74-2.92-1.35-3.52-.25-1.54-1.23-1-1.23-3.22-2.59-.61-.32-1.26.33-2.1.09L127,59l-1.35.13-.23-1c-.27-.06-.53-.13-.79-.21.26.19.48.57.35.72-1.26-.3-2.54-1.8-2.39-2.11-1-.31-1.89-.63-2.8-1,.19-.19.65,0,1.06,0-1.66-.23.12-.72-1.37-1,.07.22-.3.27-.4.36a8.93,8.93,0,0,0-2.57-2.24l.46-.2c-.73-.69-1.48-1.37-2.21-2.14a15.15,15.15,0,0,1-2-2.67c.25.82-.5,1.09-.94.52l.45-.6c-.59-.18.15.78-.77.22-.39-.83.38-.91.83-.58-.26-.27-.5-.55-.74-.84.15-.15.36,0,.63,0-.6-.19-.27-2-1.22-2.26l.15-.15c-1.07-2.24-1.79-3.25-2.79-5.12-.56.23-.81-.57-1.53-.92-.26-.73-.49-1.54-.76-2.37a13.93,13.93,0,0,0-1.13-2.47c-.91-1-.63-.09-1.23-.43.43-.35-.54-2,.28-1.31a27.85,27.85,0,0,0-3.42-4.62c0,.38.07.73-.18.67-.35-.39-.43-1.12-.17-1.19l.12.08a14,14,0,0,1-2.57-4.53,19.58,19.58,0,0,0-1.11-2.34,4.48,4.48,0,0,0-1.52-1.59l.13.08-2.05-1.77c-.65-1,.76.34.49-.58A10.75,10.75,0,0,1,91.21,13a9.52,9.52,0,0,0-2.13-2.44c.07-1.24-1-2.42-2.24-3.63a13.75,13.75,0,0,1-3-3.66l-.17.36c-.71-.2-.38-.7-.64-1.1-.16.25.23.73-.19.59C78.9-.5,75.38-5.08,71.42-9c-1.51-1.36-2.14.77-3.53-1.53l1-.09a20.22,20.22,0,0,1-2.61-1.66c-.86-.59-1.68-1.22-2.5-1.85S62.14-15.39,61.3-16a19.3,19.3,0,0,0-2.66-1.48c.29,0,.41-.17.73.05-.4-.89-2.55-1.79-2.79-1.45-.49-.39.09-.39-.11-.78-.55-.72-2.15-.59-2.25-1.26,0-.11.29,0,.44,0-.6-.09-2.14-1.42-2-.64a7.86,7.86,0,0,0-1.8-1.16,5.3,5.3,0,0,1-1.62-1c-1,.19-2.07-1.54-2.74-.85.28-.39-.19-.89-.87-1.29a5.25,5.25,0,0,0-2.1-.69c.41-.11-.59-.64-.08-.82-1-.49-1.93-.78-2-.26-1.26-2-4-.94-4.28-2.74a45.91,45.91,0,0,1-8.13-3.17c.3-.38.94,0,1.58.34s1.27.66,1.46.19c-2.4-.92-4.15-1-6-2.75-.41-.52.54-.09.82-.11A11.63,11.63,0,0,1,24.14-38c-.77-.83-1.47-1.64-2.25-2.38.08,0,.27.1.45.23-.25-.32-.38-.88-.73-.61l.31.28c-.09.46-.57.29-1.11,0s-1-.78-1.21-.74c.72.06.55-.48.44-1s-.06-.94.85-.72c-.16-.21-.47-.46-.72-.3-.07-.42,0-.58.51-.32a2.8,2.8,0,0,0-.77-.93,1.05,1.05,0,0,1-.24-.27.65.65,0,0,1-.1-.41c.21,0,.29.16.55.2a.9.9,0,0,1-.52-.79.66.66,0,0,1,.37-.57c.06.12.23.18.11.3a9.29,9.29,0,0,1,1.63-1.63,7.28,7.28,0,0,1,2.76-1.51c-.27,1.13.87-.07,1.32.6l1.1-.77-.64-.13C27.3-49.93,28-50.89,29-51.12l-.64.69c.64-.37,1.28-.75,1.9-1.16-.41.12-.83.22-1.25.33.87-.92-.56-.82.9-1.37-.24.23,1-.54,1.77-.5h0a3.46,3.46,0,0,1,1.51-1.44c.33.06.38.81.6.85.05-.44.57-.9,1.09-1.46a2.65,2.65,0,0,0,1-1.7c0,.3.29.58.41.56,0-.25-.07-.5-.12-.74.5-.36.59-.42.82-.15.53-.75.23-.75,0-.77s-.38,0,.26-.86c0,.16.08.13,0,.47a6.16,6.16,0,0,0,.93-2.93c.08-1,0-2,.06-2.94.37-.33.45.09.52.52s.06.86.41.5a9.5,9.5,0,0,0-1.42-4.24,18.78,18.78,0,0,0-1.22-1.79c-.44-.6-.94-1.11-1.4-1.63.11.13.2.29.3.43-.53.24-.77-.16-1.13-.71s-.86-1.22-1.59-1.27c.33.07.69-.35.54-.28-1.6-1-3.63-1.27-6.27-1.27l.36-.25a15.88,15.88,0,0,0-3.83-.53c-.34.3-1,.27-.57.68a4.74,4.74,0,0,0-2.57-.36,9.1,9.1,0,0,0-2.32.68c-1.43.58-2.8,1.18-4.37.83.34-.08.75-.43.48-.37l-2.36.8c.3.44.38.22,1,.48a2.71,2.71,0,0,1-1.47.86c1-.56-.18-.77-.71-.93.11.13,0,.33.06.47-1.46-.57,0,1-1.85.82l0-.27a6.44,6.44,0,0,1-1.85.83c-.41-.49.63-.42.57-.88-1,.25-1.69,1.49-2.7,1.14.38-.25,1-.39,1.36-.64a2.82,2.82,0,0,0-1.93-.17h.07l-1.72.09.46.08c-.88,1.73-2.43.85-3.84,2.2,1.38-1.28.14-.58.11-1.24-.47-.07-1.15-.11-1-.33-.66.69-1.4-.07-2.32.94-.1-.19-.83.19-.79-.36-1,.42.33.29.31.57-1.38,1.07-3.88.12-5.86,1.66-1.81.93-2,1.69-3.65,2.55-.69-.15.28-.87.28-.87a4.49,4.49,0,0,0-2.6.76c.13-.23-.1-.32-.45-.45-.71.27-.26.86-1.31.87a3.09,3.09,0,0,1,.48-1c-.8.44-1.53,1.08-2.36,1.54-.35-.27.37-.69.61-1-.95.47-2.48,1.13-2.61,1.78l.7,0c-.35.15-.34-.4-.1-.59a.86.86,0,0,1,1.4,0l-.59.32c1,.95,2.46-1,3.76-1.31l-.27,1,1.09-1.1c.34.14.67.55.09.87,1,.14.71-.54,1.63-.31.11,0,.08.1,0,.16l.82-.52c-.12.23.32.56-.26.6,1.73,0,2.4-1.38,3.18-.91l-.12.09c2.14-.91,0-.69,1.51-1.88l1.55,1.24,0-.68c.23-.05.7-.12.68.16.75-.66-.21-.24.18-.77,1.26.27,3-1.06,3.5-.12.28-.58-1.16-.1-.05-.74.61,1,1.32-.53,2.47-.28-.18.63-1.21.57-.07.82.38-1.09,2-.28,2.84-.66-.14-.76,1.79-.76,3.18-1.34,0,.27,2.82-.22,4.23-.25l0,.14c.09-.82,1.52-1,2.49-1.38.06.47-.08.69-.58,1l.95-.21a1.76,1.76,0,0,1,1-.72l-.12.63C14.47-70.1,15.62-71,17.33-71c0-.55-1.62-1.19,0-1.93.13.27.3.75-.12,1,.14-.07.47-.36.8-.3l-.58.63c.79,0,.29-.48.9-.57.08.41.5.19.49.54-.14.07-.56-.06-.75.15a3,3,0,0,1,1.85.26.47.47,0,0,1,.34-.69c1.22-.2.49.44,1.21.56.26-.31,1.05-.08,1-.7.36,0,.44.28.58.45a6.08,6.08,0,0,1,1.62-.22c.57,0,1-.12.65-.48l-.17,0,.11,0h0a5.81,5.81,0,0,1,3.24.38c1.05.36,2,.9,3,1.19l-.09.19A18.21,18.21,0,0,1,34.59-69c.25.27.18.89-.1.91a4.52,4.52,0,0,1,.69.72,2.61,2.61,0,0,1,.39,1.27c-.67-.7-.17.39-.61-.74a9.44,9.44,0,0,1,.24,1.26,3.15,3.15,0,0,0,.62,1.19c-.3-.15-.43.09-.45.4a2.55,2.55,0,0,0,.06,1,4.86,4.86,0,0,0,.34-.77,3.63,3.63,0,0,1,0,1.61l-.68-.32a7.46,7.46,0,0,0-.53,2.75c-.12.91-.55,1.83-1.64,1.91,0,.77,1.07-.63,1.14.12-.78.77-2.33.68-2.6.88-1.42.55-.55,1.68-2.12,2.31.3.11.84.6-.18,1.43-1.12.49-1.78-.26-1.22-.78.24-.15.4-.14.43-.06.29-.26.67-.59.14-.61l0,.3c-.62,0-2.06.79-1.9.25-.7.6-.16.54.49.36-1.52.35-2.16,1-3.73,1.47.29,0,.63.19.4.3-2.29.71-.76.87-2.17,1.66-1,.07-.1-1-1.44,0-1,.25-.51-.49-.23-.86a7.85,7.85,0,0,1-2.11,1.25A5.74,5.74,0,0,0,15.63-48a6.59,6.59,0,0,1,.67-1.29,11.12,11.12,0,0,0-1,1.8l-.08.23.22-.17a5.72,5.72,0,0,1,.56-.35,3.78,3.78,0,0,0-.28.46c-.24.48-.35.85-.51.8.08.45.32.33.55.33s.42.1.6.8a3.12,3.12,0,0,0,.12,1.62c.13.49.22.89-.06,1.09-.22-1.08-.33-1-.52-.87s-.18.18-.3.12-.24-.2-.36-.89a11.48,11.48,0,0,1,.33,1.59c0,.1-.15,0-.23-.18.05,1.17.34,1.31.67,1.47s.69.28,1.17,1.23c-.46-.09-.42.77-.18,1.06-.39-.81.36-.64,1-.11.47,1.29.93,1.15,1.33,1.7a5.93,5.93,0,0,1-.34-.72c.44,0,.8.55,1.43,1.2-.18.25-.65-.53-.56-.19.56.21.78.73,1.06,1.32a2.71,2.71,0,0,0,1.24,1.55c.3.64-.44.56-.13,1.09,1.53.66,1,1.54,2.59,2.21-.09-.7-.22-.63,1-.37-.78-.42-1.58-.84-2.35-1.34.59.2,1.21.33,1.81.48a14.53,14.53,0,0,1-1.85-1.17c.89.21.74.25.71-.32.17.65.68.89,1.21,1.11a2.93,2.93,0,0,1,1.46,1l-.73,1c1.3,1.55,3.19,1.28,5.15,2.69l-.58-.56c.52-.28,1.34.65,2.13.82-.26.34.1.69.28,1.08.11-.29,1.56.81,2.12.15l.71,1c1.62,1.05,2.48-.13,4,.84-.68.16-.09.8-1.31.54.54.28,1,.59,1.12.34.2.39,1.75.26,2.06.87.31,0,.59-.39,1.18,0,0,.11-.1.18-.1.18.1-.18,1.08.24.77-.44,1,2,4.61,2.5,5.45,4.28,1.19.58,2.61,1.31,3.65,1.92-.14.07-.12.18-.29,0,1.18,1.22,1.54-.5,2.86.94.42,1.11-1-.27-.67.29-.55,1.29,2,1.13,2.56,2.51l-.29-.1c.52.93,2.25.88,3.45,1.94,0,0-.14,0-.13.16,1.27.08,3.06,1.13,4.4,1.91-.7.12-.73-.2-.83.4.59.36.39-.82,1.55-.08.16.52.76,1.34.49,1.88l-1-.79c0,1,1.3,1,1.74,1.56l-.28.2c1.58,1.17,2.18.51,3.71,2v-.34c1.41.16.42,1,1.69,1.31l-.29.86a21.3,21.3,0,0,1,3.63,2A5.61,5.61,0,0,1,73.12-1c-.59-.27-1.2-.57-1.69-.76a16.13,16.13,0,0,0,1.26,1,2.59,2.59,0,0,0,1.24.64c-.27-.15-.69-.27-.82-.57a6,6,0,0,1,3.3,1.85c-.66.48,0,1.24.76,2.08s1.66,1.84,1.58,2.66a11.32,11.32,0,0,1,2.83,2.86,33.9,33.9,0,0,0,2.66,3.43c.23-1.64.62.66,1.48-.32.53.5.68.74.66.84l.78,2.19c0,.64-.65-.35-.84-.12.91,1.29,0,.86.37,1.88.23-.45.86,0,1.29.82l-.33-1.35c1.94,1.29.33,2.15,2.19,3.51l-.74-.32c.85.78,2.51,3.33,4,3.68,0,.25-.15.68-.51.32a22.77,22.77,0,0,0,2.76,3.33,8.38,8.38,0,0,1,2.1,3.23H97c.34.38,1,.44,1,1.15-.13,0-.38,0-.27.2s1.2.85,1.37,1.53l-.6-.31c1,2.5,2.75,3.11,4,5-.82.44-.15,2.44.18,3.43l-.13,0c1.31,2.75,3,4.37,4.66,6.89a8.77,8.77,0,0,0,1.61,4.09c1,1.55,2.29,3.13,3.3,4.44-.24-.47.56-.45,1-.16.43.66,2,.8,1.34,1.4l-.19-.18c-.09,1,1.3,1.77,2.28,2.41l.76-.84c.84,1.5,2.64,2.35,4.29,3S124.93,63,125.36,64c.77,0,1.58.37,2.34.39l-.26.54a23,23,0,0,0,5.06,1.93l-.6.25c1.31.49,2.18-1.13,3.38-.8l.12,1c2.3.61,4.52,2,7,1.57a.51.51,0,0,1-.57.33c1.1.27,4.25,1.3,4,0-.08.79,2.45.41,3.76.13l-.25.57a4.62,4.62,0,0,1,2.71-1c.35.1.29.49-.18.32,1.18.35.95-.5,2.38-.16l-.55.37c1.23.06,1.14-.14,1.81-.57.77-.21,2.31.11,2.52.64a1.58,1.58,0,0,1,1.53-.67c.11.2-.15.34-.28.41,2.09.28,3-.87,4.46-.46a.44.44,0,0,0,.28.32,16.63,16.63,0,0,1-2.85.18c0,.55,1.39.54.38,1.37,1.06-.48,2.79-1.56,4.14-1.54a.59.59,0,0,1,.2.16l-.12.08a1.61,1.61,0,0,0,.82-.24,4.79,4.79,0,0,0,1.14-.08c.26.42,1.64-.16,2.33-.38-.24-.55.66-.76-.31-.94.11,0-.1.11-.54.27a1.52,1.52,0,0,0-.26.14l0-.06c-.44.15-1,.31-1.65.47a2.06,2.06,0,0,1,1.75-.7c.23-.46.46-1,.6-1.2,1.13.52,3,.12,3.51.42,1.84-1.31,4.15-3.09,4.31-4.78.32-.5.7-.22,1-.24-.17.31-.47.57-.5.81.69-1,2.37-2.46,2-3.2,1.24-.78,0,1.07,1.22-.42v.36c3.53-1.87,2.85-5.84,7-7.69-.28.14-.41.21-.55.16,3.88-2.88,6.6-7.39,10.84-9.79,1.14-.74.91-1.2,1.26-2l.64.28.54-1.5c1.12-1.73,3.61-1.13,4.82-3.56l-.53-.11c.73-.53,2-2.08,2.2-1.6,0-.12-.07-.53.35-.59l.24.23,1.31-1.88c1.47-.94.65,1.18,2.61-.39.63-.7,1.4-2.46,1-2.41-.3.23-.87.47-1.11.23l.55-.69c-.52-.85-.65-2.06-2.72-1.23l-.74,1.41-.67-.05.93-.83c-.83.11-.91.71-1.11,1.24a1,1,0,0,0-.82,0l-.48,1.66c-.39-.18,0-1-.89-.54-.22.78,1.06.23.4,1.19-.83.12-.91-.29-1.28.54-.26-.12-.23-.36-.06-.65-.36.71-1.38,1.38-1.32,2-.92.07-1.77,1.76-2.34,1a4.51,4.51,0,0,1-1,1.89c.17-1.66-1.93,1.65-2.49.54,0,1.36-2.14,2.57-3,4.08,0-.12,0-.36.18-.42a6,6,0,0,1-1.69.79c.49.69-.42,1.79-.62,2.69-1.36.19-.18-1.17-1-1.49.5.45-.95,1.83-.28,2-1,.24-.71.34-1.5.15.61.85-.45.68-.52,1.63-1.24.5-.91-.48-1.66.7C187.12,46.76,187.73,45.65,187.73,45.65Zm-22.94,19.9h0l.61-.14Zm-2.58.33a10.18,10.18,0,0,0,1.13-.09.27.27,0,0,1-.22.43C163.24,66.07,162.61,66,162.21,65.88ZM168.65,69c-.44.2-.62.13-.71,0a5.66,5.66,0,0,0,.78-.27.26.26,0,0,1,0-.08A.64.64,0,0,1,168.65,69Z"/><path class="cls-3" d="M169.24,68a1.28,1.28,0,0,1,.17-.1l-.3,0-.1.23Z"/><polygon class="cls-3" points="127.08 58.88 127.03 59.02 127.29 58.99 127.08 58.88"/><polygon class="cls-3" points="118.24 60.35 117.63 60.25 118.66 60.64 118.24 60.35"/></g></g></svg>