<svg id="Camada_1" data-name="Camada 1" xmlns="http://www.w3.org/2000/svg" xmlns:xlink="http://www.w3.org/1999/xlink" viewBox="0 0 91 51"><defs><style>.cls-1{fill:none;}.cls-2{clip-path:url(#clip-path);}.cls-3{fill:#e47f17;}.cls-4{fill:#504f51;}.cls-5{fill:#495057;}.cls-6{clip-path:url(#clip-path-2);}</style><clipPath id="clip-path"><rect class="cls-1" x="-651.89" y="-250.33" width="601.89" height="175.63"/></clipPath><clipPath id="clip-path-2"><rect class="cls-1" x="0.34" y="-250.39" width="598.89" height="123.39"/></clipPath><image id="image" width="2000" height="1333" xlink:href="../../Base/shutterstock_704671762.jpg"/></defs><title>Template e-mail</title><g class="cls-2"><use transform="translate(-653.99 -251.73) scale(0.41 0.41)" xlink:href="#image"/></g><path class="cls-3" d="M30.13,31.24a.62.62,0,0,1-.57.36H28.9l.36-.77a.51.51,0,0,1,.45-.29h.74Z"/><path class="cls-3" d="M34.58,31.6h-.86l.44-1a.46.46,0,0,1,.4-.25h.93l-.42.89A.54.54,0,0,1,34.58,31.6Z"/><path class="cls-3" d="M39.52,31.6H38.46l.59-1.25a.45.45,0,0,1,.42-.27H40.7l-.52,1.1A.73.73,0,0,1,39.52,31.6Z"/><path class="cls-3" d="M45,31.6H43.55l.7-1.49a.57.57,0,0,1,.52-.33h1.46l-.7,1.5A.56.56,0,0,1,45,31.6Z"/><path class="cls-3" d="M48.58,31.6h1.31a.8.8,0,0,0,.73-.47l.64-1.35H50a.8.8,0,0,0-.74.47Z"/><path class="cls-3" d="M48.3,29.17H46.88l.66-1.4a.71.71,0,0,1,.65-.42h1.37l-.68,1.45A.63.63,0,0,1,48.3,29.17Z"/><path class="cls-3" d="M45.89,26.7h-1.2l.56-1.2a.56.56,0,0,1,.51-.33h1.16l-.57,1.23A.51.51,0,0,1,45.89,26.7Z"/><path class="cls-3" d="M43.44,24.23h-.93l.42-.9a.52.52,0,0,1,.47-.3h.87l-.44.95A.43.43,0,0,1,43.44,24.23Z"/><path class="cls-4" d="M21.8,42.28l.72-5.44c.14-1,.36-2.43.54-3.4h0c-.46,1-1,2.21-1.56,3.24l-2.83,5.21a.62.62,0,0,1-.56.33H17.5l-.75-5.42c-.15-1.17-.25-2.33-.31-3.36h-.05c-.21.92-.52,2.45-.76,3.4l-1.26,5a.6.6,0,0,1-.59.46h-.69l2.62-10.07h1.58L18.08,38c.11.87.21,1.78.24,2.52h.05c.31-.74.74-1.64,1.18-2.48l3.11-5.81h1.63l-1.23,9.63a.52.52,0,0,1-.51.44Z"/><path class="cls-4" d="M22.55,42.33h-.79l.72-5.49c.14-1,.34-2.32.51-3.24-.39.85-.95,2-1.51,3.1l-2.82,5.21a.69.69,0,0,1-.6.36h-.6v0l-.75-5.43c-.13-1-.24-2.16-.3-3.22-.07.29-.14.62-.22,1-.17.78-.36,1.67-.52,2.3l-1.26,5a.65.65,0,0,1-.63.5H13v-.06l2.62-10.1h1.66v0L18.12,38c.11.83.21,1.7.24,2.44.29-.67.69-1.52,1.15-2.41l3.12-5.83h1.7L23.1,41.85A.56.56,0,0,1,22.55,42.33Zm-.7-.09h.7a.46.46,0,0,0,.46-.4l1.23-9.59H22.68L19.58,38c-.47.92-.89,1.8-1.17,2.48l0,0h-.11v0c0-.76-.13-1.66-.24-2.53l-.79-5.73H15.74l-2.59,10h.63a.57.57,0,0,0,.55-.43l1.26-5c.16-.63.35-1.51.52-2.3.09-.4.17-.79.24-1.1v0h.12v0c.07,1.1.17,2.26.31,3.36l.75,5.39h.52a.61.61,0,0,0,.53-.31l2.82-5.21c.59-1.14,1.18-2.39,1.57-3.24v0h.12v0c-.17.92-.39,2.38-.54,3.41Z"/><path class="cls-4" d="M29.77,42.28c.06-.5.18-1.12.27-1.87l-.18.42a2.63,2.63,0,0,1-2.77,1.62A2.13,2.13,0,0,1,25,40.06a5,5,0,0,1,5-5.17,7.89,7.89,0,0,1,2,.26s-.76,5-1,6.69a.51.51,0,0,1-.51.44ZM30.71,36a3.59,3.59,0,0,0-1-.12c-1.88,0-3.42,1.94-3.42,4,0,.81.29,1.6,1.24,1.6s2.39-1.33,2.75-3.26Z"/><path class="cls-4" d="M27.09,42.49A2.17,2.17,0,0,1,25,40.06,5.09,5.09,0,0,1,30,34.84a7.75,7.75,0,0,1,2,.27h0v0c0,.05-.76,5-1,6.68a.55.55,0,0,1-.55.49h-.76v0c0-.23.06-.48.11-.75s.08-.52.12-.82l-.06.14A2.66,2.66,0,0,1,27.09,42.49ZM30,34.93a5,5,0,0,0-5,5.13,2.09,2.09,0,0,0,2,2.35,2.59,2.59,0,0,0,2.73-1.6l.3-.68,0,.29c0,.41-.11.79-.16,1.13s-.08.48-.1.69h.66a.47.47,0,0,0,.47-.41c.21-1.57.91-6.18,1-6.65A7.8,7.8,0,0,0,30,34.93Zm-2.48,6.54c-1.11,0-1.28-1-1.28-1.64,0-2.13,1.62-4,3.46-4a3.57,3.57,0,0,1,1,.12h0v0l-.42,2.18C30,40.15,28.59,41.47,27.54,41.47Zm2.18-5.56c-1.8,0-3.38,1.84-3.38,3.92,0,.58.16,1.56,1.2,1.56s2.35-1.32,2.71-3.22L30.66,36A3.87,3.87,0,0,0,29.72,35.91Z"/><path class="cls-4" d="M37.75,42a4.63,4.63,0,0,1-2.09.45,2.59,2.59,0,0,1-2.78-2.79A4.58,4.58,0,0,1,37.3,34.9a3.69,3.69,0,0,1,1.51.31l-.36,1a2.86,2.86,0,0,0-1.22-.27c-1.89,0-3.07,1.85-3.07,3.56A1.71,1.71,0,0,0,36,41.42,3.73,3.73,0,0,0,37.63,41Z"/><path class="cls-4" d="M35.66,42.48a2.65,2.65,0,0,1-2.82-2.84,4.63,4.63,0,0,1,4.46-4.78,3.61,3.61,0,0,1,1.53.32h0l-.38,1.07,0,0a2.71,2.71,0,0,0-1.2-.27c-1.87,0-3,1.83-3,3.52A1.65,1.65,0,0,0,36,41.37a3.62,3.62,0,0,0,1.65-.4l.06,0L37.8,42h0A4.63,4.63,0,0,1,35.66,42.48Zm1.64-7.54a4.56,4.56,0,0,0-4.38,4.7,2.55,2.55,0,0,0,2.74,2.75,4.6,4.6,0,0,0,2-.43l-.1-.88a3.85,3.85,0,0,1-1.64.38,1.76,1.76,0,0,1-1.84-2c0-1.73,1.19-3.6,3.11-3.6a2.87,2.87,0,0,1,1.2.25l.33-.91A4,4,0,0,0,37.3,34.94Z"/><path class="cls-4" d="M39.11,42.28,40,37.62c.17-.94.29-1.9.36-2.57h1.09c-.06.51-.12,1-.19,1.57h0a2.6,2.6,0,0,1,2.21-1.73,2,2,0,0,1,.36,0l-.24,1.22a2.86,2.86,0,0,0-.34,0c-1.08,0-2,1.3-2.35,3l-.5,2.7a.6.6,0,0,1-.59.48Z"/><path class="cls-4" d="M39.84,42.33h-.78v0L40,37.61c.17-1,.29-1.92.36-2.56v0h1.18v.05c0,.43-.1.91-.17,1.43a2.57,2.57,0,0,1,2.19-1.65,3.7,3.7,0,0,1,.37,0h0l-.25,1.31h0l-.34,0c-1,0-2,1.25-2.31,3l-.5,2.7A.64.64,0,0,1,39.84,42.33Zm-.68-.09h.68a.54.54,0,0,0,.54-.45l.51-2.7c.33-1.75,1.33-3,2.39-3l.31,0L43.81,35l-.31,0a2.54,2.54,0,0,0-2.17,1.71v0H41.2v0c.08-.54.14-1.06.19-1.52h-1c-.07.65-.19,1.6-.36,2.54Z"/><path class="cls-4" d="M50.71,37.89c0,2.24-1.59,4.56-4,4.56a2.77,2.77,0,0,1-2.83-3c0-2.39,1.66-4.58,4-4.58A2.77,2.77,0,0,1,50.71,37.89Zm-5.56,1.54c0,1.18.65,2,1.7,2,1.47,0,2.57-1.88,2.57-3.57a1.79,1.79,0,0,0-1.69-2C46.18,35.87,45.15,37.77,45.15,39.43Z"/><path class="cls-4" d="M46.69,42.49a2.79,2.79,0,0,1-2.87-3,4.38,4.38,0,0,1,4-4.63,2.82,2.82,0,0,1,2.88,3C50.75,40.1,49.2,42.49,46.69,42.49Zm1.18-7.56a4.29,4.29,0,0,0-4,4.54,2.72,2.72,0,0,0,2.79,2.94c2.45,0,4-2.35,4-4.52A2.73,2.73,0,0,0,47.87,34.93Zm-1,6.57a1.83,1.83,0,0,1-1.75-2.07c0-1.7,1.08-3.6,2.63-3.6,1.28,0,1.73,1.11,1.73,2.06C49.46,39.6,48.35,41.5,46.85,41.5Zm.88-5.59c-1.5,0-2.54,1.86-2.54,3.52,0,1.19.67,2,1.66,2,1.45,0,2.53-1.86,2.53-3.53C49.38,37,49,35.91,47.73,35.91Z"/><path class="cls-4" d="M53.5,32.36a10.18,10.18,0,0,1,2.18-.22,3.62,3.62,0,0,1,2.47.77,2.34,2.34,0,0,1,.73,1.83,3.5,3.5,0,0,1-1.21,2.63,4.81,4.81,0,0,1-3.05,1,7.82,7.82,0,0,1-1-.07l-.68,3.61a.51.51,0,0,1-.51.42h-.8Zm.28,4.84a4.28,4.28,0,0,0,1,.11,2.57,2.57,0,0,0,2.84-2.48c0-1.21-.86-1.69-2-1.69a4.66,4.66,0,0,0-1.09.1Z"/><path class="cls-4" d="M52.4,42.33h-.85l1.91-10h0a10,10,0,0,1,2.19-.23,3.63,3.63,0,0,1,2.5.79,2.4,2.4,0,0,1,.74,1.86A3.5,3.5,0,0,1,57.7,37.4a4.79,4.79,0,0,1-3.08,1,8.7,8.7,0,0,1-1-.07L53,41.87A.57.57,0,0,1,52.4,42.33Zm-.75-.09h.75a.48.48,0,0,0,.47-.39l.69-3.65h0a7.09,7.09,0,0,0,1,.07,4.66,4.66,0,0,0,3-1,3.45,3.45,0,0,0,1.2-2.59,2.31,2.31,0,0,0-.72-1.8,3.56,3.56,0,0,0-2.44-.76,10.33,10.33,0,0,0-2.14.21Zm3.14-4.89a4.17,4.17,0,0,1-1-.11h0v0l.76-4h0a4.55,4.55,0,0,1,1.1-.11c1.32,0,2.05.62,2.05,1.74A2.6,2.6,0,0,1,54.79,37.35Zm-1-.18a4.29,4.29,0,0,0,1,.09,2.52,2.52,0,0,0,2.79-2.43c0-1.37-1.06-1.65-2-1.65a4.28,4.28,0,0,0-1,.1Z"/><path class="cls-4" d="M59.08,42.28l2-10.61h1.24L60.42,41.73a.67.67,0,0,1-.66.55Z"/><path class="cls-4" d="M59.76,42.33H59v0l2-10.65h1.32v.05L60.46,41.74A.72.72,0,0,1,59.76,42.33Zm-.63-.09h.63a.64.64,0,0,0,.62-.51l1.9-10H61.13Z"/><path class="cls-4" d="M70.3,42.28l1-5.12c.17-.81.27-1.51.35-2.11h1.1l-.17,1.42h0a3.18,3.18,0,0,1,2.68-1.58,1.77,1.77,0,0,1,1.84,2,6.2,6.2,0,0,1-.14,1.16l-.71,3.77a.58.58,0,0,1-.57.46H74.9l.79-4.18a5.53,5.53,0,0,0,.09-.93c0-.72-.28-1.25-1.13-1.25S72.51,37,72.18,38.77l-.57,3a.57.57,0,0,1-.56.47Z"/><path class="cls-4" d="M75.65,42.33h-.8v0l.79-4.19a5.41,5.41,0,0,0,.09-.92c0-.8-.37-1.21-1.09-1.21s-2.09,1-2.43,2.82l-.57,3a.62.62,0,0,1-.6.51h-.8l1-5.18c.14-.68.25-1.37.35-2.11v0h1.19l-.17,1.34a3.21,3.21,0,0,1,2.65-1.51,1.82,1.82,0,0,1,1.88,2A7.16,7.16,0,0,1,77,38.06l-.72,3.76A.63.63,0,0,1,75.65,42.33Zm-.7-.09h.7a.52.52,0,0,0,.52-.43l.72-3.76A6.42,6.42,0,0,0,77,36.89a1.73,1.73,0,0,0-1.8-2,3.14,3.14,0,0,0-2.64,1.56v0h-.1l.18-1.42h-1c-.1.72-.21,1.4-.34,2.08l-1,5.07h.7a.53.53,0,0,0,.52-.43l.57-3.05c.32-1.72,1.55-2.89,2.51-2.89.78,0,1.18.44,1.18,1.3a7,7,0,0,1-.09.94Z"/><path class="cls-4" d="M67.28,42.28c.06-.5.18-1.12.27-1.87l-.18.42a2.63,2.63,0,0,1-2.77,1.62,2.13,2.13,0,0,1-2.07-2.39,5,5,0,0,1,5-5.17,7.89,7.89,0,0,1,2,.26s-.76,5-1,6.69a.51.51,0,0,1-.51.44ZM68.22,36a3.59,3.59,0,0,0-1-.12c-1.88,0-3.42,1.94-3.42,4,0,.81.29,1.6,1.24,1.6s2.39-1.33,2.75-3.26Z"/><path class="cls-4" d="M64.6,42.49a2.17,2.17,0,0,1-2.12-2.43,5.09,5.09,0,0,1,5.05-5.22,7.75,7.75,0,0,1,2,.27h0v0c0,.05-.76,5-1,6.68a.55.55,0,0,1-.55.49h-.76v0c0-.23.06-.48.11-.75s.08-.52.12-.82l-.06.14A2.66,2.66,0,0,1,64.6,42.49Zm2.93-7.56a5,5,0,0,0-5,5.13,2.09,2.09,0,0,0,2,2.35,2.59,2.59,0,0,0,2.73-1.6l.3-.68,0,.29c0,.41-.11.79-.16,1.13s-.08.48-.1.69H68a.47.47,0,0,0,.47-.41c.21-1.57.91-6.18,1-6.65A7.8,7.8,0,0,0,67.53,34.93Zm-2.48,6.54c-1.11,0-1.28-1-1.28-1.64,0-2.13,1.62-4,3.46-4a3.57,3.57,0,0,1,1,.12h0v0l-.42,2.18C67.47,40.15,66.1,41.47,65.05,41.47Zm2.18-5.56c-1.8,0-3.38,1.84-3.38,3.92,0,.58.16,1.56,1.2,1.56s2.35-1.32,2.71-3.22L68.17,36A3.87,3.87,0,0,0,67.23,35.91Z"/><path class="cls-5" d="M35.1,11.48a1.47,1.47,0,0,1-.51,1.2,2.31,2.31,0,0,1-1.46.41h-.52V15h-.82V10h1.44a2.15,2.15,0,0,1,1.4.38A1.37,1.37,0,0,1,35.1,11.48Zm-2.49.93H33a1.57,1.57,0,0,0,.92-.22.81.81,0,0,0,.3-.69.79.79,0,0,0-.26-.64,1.32,1.32,0,0,0-.82-.21h-.57Z"/><path class="cls-5" d="M40.07,13.07a2,2,0,0,1-.48,1.44,1.7,1.7,0,0,1-1.32.52,1.8,1.8,0,0,1-.94-.24,1.54,1.54,0,0,1-.62-.69,2.23,2.23,0,0,1-.22-1A2,2,0,0,1,37,11.63a1.72,1.72,0,0,1,1.33-.52,1.69,1.69,0,0,1,1.3.53A2,2,0,0,1,40.07,13.07Zm-2.76,0c0,.87.33,1.31,1,1.31s1-.44,1-1.31-.32-1.3-1-1.3a.81.81,0,0,0-.73.34A1.7,1.7,0,0,0,37.31,13.07Z"/><path class="cls-5" d="M44.79,15,44.3,13.2c-.06-.19-.17-.62-.32-1.3h0c-.14.61-.24,1-.32,1.31L43.13,15h-.89l-1.06-3.78H42L42.48,13c.11.47.19.86.24,1.19h0a4.92,4.92,0,0,1,.1-.57c0-.22.09-.38.12-.49l.58-2h.88l.56,2q0,.16.12.51a3.18,3.18,0,0,1,.1.54h0c0-.28.12-.67.24-1.18L46,11.18h.81L45.69,15Z"/><path class="cls-5" d="M49.76,15a1.83,1.83,0,0,1-1.38-.51,2,2,0,0,1-.5-1.42,2.2,2.2,0,0,1,.46-1.46,1.61,1.61,0,0,1,1.27-.53,1.57,1.57,0,0,1,1.18.46,1.73,1.73,0,0,1,.44,1.25v.43H48.71a1.23,1.23,0,0,0,.3.85,1,1,0,0,0,.78.3A3,3,0,0,0,51,14.12v.65a2.35,2.35,0,0,1-.6.2A3.51,3.51,0,0,1,49.76,15Zm-.15-3.31A.81.81,0,0,0,49,12a1.15,1.15,0,0,0-.28.71h1.72a1.06,1.06,0,0,0-.23-.71A.75.75,0,0,0,49.61,11.72Z"/><path class="cls-5" d="M54.76,11.11a2.15,2.15,0,0,1,.4,0l-.08.75a1.42,1.42,0,0,0-.36,0,1,1,0,0,0-.78.31,1.13,1.13,0,0,0-.3.82v2h-.8V11.18h.63l.1.67h0a1.35,1.35,0,0,1,.49-.54A1.16,1.16,0,0,1,54.76,11.11Z"/><path class="cls-5" d="M58.21,15a1.83,1.83,0,0,1-1.38-.51,2,2,0,0,1-.5-1.42,2.2,2.2,0,0,1,.46-1.46,1.61,1.61,0,0,1,1.27-.53,1.55,1.55,0,0,1,1.18.46,1.73,1.73,0,0,1,.44,1.25v.43H57.16a1.23,1.23,0,0,0,.3.85,1,1,0,0,0,.79.3,3,3,0,0,0,1.24-.28v.65a2.29,2.29,0,0,1-.59.2A3.54,3.54,0,0,1,58.21,15Zm-.15-3.31a.81.81,0,0,0-.61.24,1.15,1.15,0,0,0-.28.71h1.72a1.06,1.06,0,0,0-.23-.71A.75.75,0,0,0,58.06,11.72Z"/><path class="cls-5" d="M62.57,15a1.33,1.33,0,0,1-1.11-.51,2.33,2.33,0,0,1-.39-1.44,2.31,2.31,0,0,1,.4-1.45,1.34,1.34,0,0,1,1.11-.52,1.3,1.3,0,0,1,1.13.55h0A4.58,4.58,0,0,1,63.7,11V9.64h.8V15h-.62l-.15-.49h0A1.3,1.3,0,0,1,62.57,15Zm.21-.65a.86.86,0,0,0,.72-.28,1.41,1.41,0,0,0,.23-.9v-.11a1.67,1.67,0,0,0-.23-1,.85.85,0,0,0-.73-.3.73.73,0,0,0-.65.34,1.8,1.8,0,0,0-.23,1,1.7,1.7,0,0,0,.23,1A.73.73,0,0,0,62.78,14.38Z"/><path class="cls-5" d="M70.8,11.11a1.32,1.32,0,0,1,1.1.52,2.26,2.26,0,0,1,.4,1.44,2.26,2.26,0,0,1-.4,1.44,1.46,1.46,0,0,1-2.23,0h0l-.15.45h-.6V9.64h.8v1.27c0,.09,0,.23,0,.42s0,.3,0,.35h0A1.28,1.28,0,0,1,70.8,11.11Zm-.21.66a.84.84,0,0,0-.7.29,1.7,1.7,0,0,0-.22.95v.06a1.83,1.83,0,0,0,.22,1,.85.85,0,0,0,.72.31.72.72,0,0,0,.64-.34,1.78,1.78,0,0,0,.22-1C71.47,12.2,71.18,11.77,70.59,11.77Z"/><path class="cls-5" d="M73.36,11.18h.87L75,13.33a3.34,3.34,0,0,1,.23.86h0a4.22,4.22,0,0,1,.11-.46l.87-2.55h.87l-1.62,4.28A1.52,1.52,0,0,1,74,16.64a2.29,2.29,0,0,1-.52-.05V16a1.82,1.82,0,0,0,.42,0,.84.84,0,0,0,.81-.67l.15-.36Z"/><g class="cls-6"><use transform="translate(-1.76 -251.79) scale(0.41 0.41)" xlink:href="#image"/></g></svg>