<svg id="Camada_1" data-name="Camada 1" xmlns="http://www.w3.org/2000/svg" viewBox="0 0 101.11 101.11"><defs><style>.cls-1{fill:#680f39;}</style></defs><title>ícones</title><path class="cls-1" d="M84.83,40.43V64.15H69.26L57.79,49H33.48V42.33l19.63-6.2V16.57h8.4a15.44,15.44,0,0,1,2.92-3h-42a8.61,8.61,0,0,0-8.61,8.61V79a8.6,8.6,0,0,0,8.61,8.6H79.1a9,9,0,0,0,4.1-1,8.61,8.61,0,0,0,2.32-1.74A8.19,8.19,0,0,0,87.85,79V34.85C87.07,36.13,86,38.09,84.83,40.43ZM33.48,16.57H50.09V33L33.48,38Zm-10.87,0h7.85V49H16.87V22.31A5.74,5.74,0,0,1,22.61,16.57ZM16.87,52.06H57l9.39,12.09H16.87ZM30.46,84.53H22.61a5.74,5.74,0,0,1-5.74-5.74V66.41H30.46Zm20.39,0H33.48V66.41H50.85Zm28.33,0H53.11V66.41H67.77L81.49,84.07A5.57,5.57,0,0,1,79.18,84.53Zm5.72-5.28a5.55,5.55,0,0,1-1.21,3.49L71.53,67.17h13.3V79.25Z"/><path class="cls-1" d="M61.86,32.51,72.81,54a.88.88,0,0,0,.76.53.76.76,0,0,0,.37-.08.63.63,0,0,0,.38-.37c.08-.15,9-17.45,11-21.45a13,13,0,0,0,0-11.78,13,13,0,0,0-11.7-7.25,13.07,13.07,0,0,0-12.39,9.14A12.71,12.71,0,0,0,61.86,32.51ZM73.64,19.14a7.48,7.48,0,1,1-7.47,7.48A7.45,7.45,0,0,1,73.64,19.14Z"/></svg>