<svg id="Camada_1" data-name="Camada 1" xmlns="http://www.w3.org/2000/svg" viewBox="0 0 101.11 101.11"><defs><style>.cls-1{fill:#680f39;}</style></defs><title>ícones</title><path class="cls-1" d="M88.94,53.64a6.77,6.77,0,0,0-8-5.16L67.25,51.22a6,6,0,0,0-4.6-2.58l-20.4-1.37a12.13,12.13,0,0,0-8.06,2.34L22.66,58.07l-9.6,9.52a2.05,2.05,0,0,0,0,2.9L26.29,83.72a2.16,2.16,0,0,0,2.9,0l8.39-8.39L51.77,77.1A20.56,20.56,0,0,0,65.48,74L85.88,60.9A6.72,6.72,0,0,0,88.94,53.64ZM27.82,79.36,17.42,69l6.21-6.21L34,73.15ZM83.7,57.43,63.3,70.49a16.42,16.42,0,0,1-11,2.5L37.82,71.22l-11-11.13,9.84-7.26a7.8,7.8,0,0,1,5.32-1.53l20.4,1.37a2.08,2.08,0,0,1,1.86,1.86,2,2,0,0,1-1.54,2.09l-5,1.13a20.89,20.89,0,0,1-6,.57l-5.81-.25a2.06,2.06,0,0,0-.24,4.12l5.8.24a23.21,23.21,0,0,0,7.1-.65l5-1.13a5.9,5.9,0,0,0,4.68-5.4L81.6,52.59a2.75,2.75,0,0,1,3.23,2.1A2.43,2.43,0,0,1,83.7,57.43Z"/><path class="cls-1" d="M37,41.54a2,2,0,0,0,1.13-.32,59.12,59.12,0,0,1,8.39-4.35c5.72,3.22,11.12,4.92,16,4.92a19.79,19.79,0,0,0,7.58-1.46C81,35.9,84.67,23,84.83,22.51a2,2,0,0,0-.65-2.09A2.08,2.08,0,0,0,82,20.1c-3.07,1.29-6.7.08-10.57-1.21C63.3,16.14,53.22,12.84,45,33a66,66,0,0,0-9.11,4.67,2.08,2.08,0,0,0-.64,2.83A1.94,1.94,0,0,0,37,41.54ZM70.15,22.76c3.07,1,6.21,2.09,9.44,1.93-1.7,3.71-5.08,9.44-11.13,11.85-4.84,1.94-10.56,1.38-17-1.61a79,79,0,0,1,12.75-3.3,2,2,0,0,0-.65-4,84.52,84.52,0,0,0-13.3,3.47C56.61,18.24,63,20.34,70.15,22.76Z"/></svg>