<svg id="Camada_1" data-name="Camada 1" xmlns="http://www.w3.org/2000/svg" viewBox="0 0 35 35" width="35px"><defs><style>.cls-1{fill:#eaeaea;}.cls-2{fill:#a9a9aa;}</style></defs><title>ícones</title><rect class="cls-1" x="0.93" y="0.93" width="33.14" height="33.14" rx="5.02"/><path class="cls-2" d="M13.2,25.84h8.6a4,4,0,0,0,1.93-7.58L22.5,19.49a2.42,2.42,0,0,1-.7,4.73H13.2a2.42,2.42,0,0,1-.7-4.73l-1.23-1.23a4,4,0,0,0,1.93,7.58Z"/><path class="cls-2" d="M16.69,9.16v9.08l-2.15-2.15L13.4,17.23l3.53,3.53a.81.81,0,0,0,1.14,0l3.53-3.53-1.14-1.14-2.15,2.15V9.16Z"/></svg>