<svg id="Camada_1" data-name="Camada 1" xmlns="http://www.w3.org/2000/svg" viewBox="0 0 20 20" width="25px"><defs><style>.cls-1{fill:#979797;}</style></defs><path class="cls-1" d="M14.7,9.75A5.16,5.16,0,0,0,10,5V4.18H9.15V5A5.15,5.15,0,0,0,4.43,9.75H3.57v.84h.86A5.15,5.15,0,0,0,9.15,15.3v.86H10V15.3a5.17,5.17,0,0,0,4.72-4.71h.85V9.75Zm-.58.84A4.59,4.59,0,0,1,10,14.72v-.81H9.15v.81A4.59,4.59,0,0,1,5,10.59h.81V9.75H5A4.58,4.58,0,0,1,9.15,5.62v.81H10V5.62a4.58,4.58,0,0,1,4.14,4.13H13.3v.84Z"/><path class="cls-1" d="M10.11,16.28H9v-.86a5.24,5.24,0,0,1-4.7-4.71H3.45V9.63h.87A5.24,5.24,0,0,1,9,4.92V4.05h1.09v.87a5.25,5.25,0,0,1,4.7,4.71h.87v1.08h-.87a5.25,5.25,0,0,1-4.7,4.71ZM9.27,16h.59v-.84H10a5,5,0,0,0,4.6-4.6v-.12h.85V9.88h-.85V9.76A5,5,0,0,0,10,5.16H9.86V4.3H9.27v.85H9.16a5,5,0,0,0-4.61,4.6v.12H3.7v.58h.85v.12a5,5,0,0,0,4.61,4.6h.11Zm0-1.17H9.13A4.7,4.7,0,0,1,4.89,10.6l0-.14H5.7V9.88H4.87l0-.14A4.69,4.69,0,0,1,9.13,5.49h.14V6.3h.59V5.48H10a4.7,4.7,0,0,1,4.25,4.25v.14h-.82v.58h.82v.14A4.69,4.69,0,0,1,10,14.84l-.13,0V14H9.27ZM5.15,10.71A4.43,4.43,0,0,0,9,14.58v-.8h1.09v.8A4.44,4.44,0,0,0,14,10.71h-.8V9.63H14a4.44,4.44,0,0,0-3.87-3.87v.79H9V5.76A4.44,4.44,0,0,0,5.15,9.63H6v1.08Z"/><rect class="cls-1" x="9" y="9.61" width="1.12" height="1.12"/><path class="cls-1" d="M10.25,10.85H8.88V9.48h1.37ZM9.13,10.6H10V9.73H9.13Z"/></svg>