<svg id="Camada_1" data-name="Camada 1" xmlns="http://www.w3.org/2000/svg" viewBox="0 0 20 20" width="25px"><defs><style>.cls-1{fill:#979797;stroke:#979797;stroke-miterlimit:10;stroke-width:0.25px;}</style></defs><path class="cls-1" d="M7.05,4.17a.32.32,0,0,0-.28.31v.31H4.59a.31.31,0,0,0-.28.31V15.86a.31.31,0,0,0,.31.31H15.38a.31.31,0,0,0,.31-.31V5.1a.31.31,0,0,0-.31-.31H13.23V4.48a.32.32,0,0,0-.34-.31.33.33,0,0,0-.28.31v.31H7.39V4.48A.32.32,0,0,0,7.05,4.17ZM4.93,5.4H6.77v.52A.94.94,0,0,0,6.17,7a1,1,0,0,0,.71.71A.92.92,0,0,0,8,6.79a.93.93,0,0,0-.61-.87V5.4h5.22v.52a.92.92,0,0,0,.11,1.77.92.92,0,0,0,.51-1.77V5.4h1.84V8.17H4.93Zm2.2,1a.31.31,0,0,1,.31.31.31.31,0,1,1-.61,0A.3.3,0,0,1,7.13,6.41Zm5.85,0a.31.31,0,0,1,.31.31A.31.31,0,0,1,13,7a.3.3,0,0,1-.31-.31A.31.31,0,0,1,13,6.41Zm-8,2.38H15.07v6.76H4.93Z"/></svg>