<svg id="Camada_1" data-name="Camada 1" xmlns="http://www.w3.org/2000/svg" viewBox="0 0 20 20" width="25px"><defs><style>.cls-1{fill:#979797;}</style></defs><path class="cls-1" d="M15.72,7.22a.64.64,0,0,0-.64-.64H11.72V5.71a.89.89,0,0,0-.89-.89H8.62a.89.89,0,0,0-.89.89v.87H4.38a.65.65,0,0,0-.65.64v3.06a.27.27,0,0,0,.14.24l.42.18v4.17a.64.64,0,0,0,.64.64h9.59a.64.64,0,0,0,.64-.64V10.64c.15-.07.29-.13.43-.21a.26.26,0,0,0,.14-.23ZM8.25,5.71a.37.37,0,0,1,.37-.37h2.21a.38.38,0,0,1,.38.37v.87h-3Zm6.39,9.16a.12.12,0,0,1-.12.12H4.93a.12.12,0,0,1-.12-.12v-4a13.14,13.14,0,0,0,3.75.74V12a.47.47,0,0,0,.47.47h1.39a.47.47,0,0,0,.47-.47v-.37a11.94,11.94,0,0,0,3.75-.78v4ZM9.08,12V11.1h1.29V12Zm1.81-.84v-.06a.48.48,0,0,0-.47-.48H9a.48.48,0,0,0-.47.48v.07a12,12,0,0,1-4.32-1V7.22a.12.12,0,0,1,.13-.12h10.7a.12.12,0,0,1,.12.12v2.83A11.12,11.12,0,0,1,10.89,11.12Z"/><path class="cls-1" d="M14.52,15.64H4.93a.78.78,0,0,1-.77-.77V10.79l-.34-.16a.38.38,0,0,1-.22-.35V7.22a.77.77,0,0,1,.77-.77H7.6V5.71a1,1,0,0,1,1-1h2.21a1,1,0,0,1,1,1v.74h3.23a.77.77,0,0,1,.76.77v3a.38.38,0,0,1-.2.34l-.36.18v4.15A.78.78,0,0,1,14.52,15.64ZM4.38,6.7a.52.52,0,0,0-.52.52v3.06a.13.13,0,0,0,.08.12l.41.19.07,0v4.25a.53.53,0,0,0,.52.52h9.59a.53.53,0,0,0,.52-.52V10.56l.07,0,.42-.21a.14.14,0,0,0,.07-.12v-3a.52.52,0,0,0-.51-.52H11.6v-1A.76.76,0,0,0,10.83,5H8.62a.77.77,0,0,0-.77.76v1Zm10.14,8.42H4.93a.25.25,0,0,1-.25-.25V10.73l.17.06a12.67,12.67,0,0,0,3.72.73h.12V12a.34.34,0,0,0,.34.35h1.39a.34.34,0,0,0,.34-.35v-.48h.12a12.78,12.78,0,0,0,3.72-.77l.17-.07v4.19A.26.26,0,0,1,14.52,15.12Zm-9.59-4v3.78h9.59V11a12.56,12.56,0,0,1-3.51.72V12a.59.59,0,0,1-.59.6H9a.59.59,0,0,1-.59-.6v-.24A13.18,13.18,0,0,1,4.93,11.09Zm5.57,1H9V11H10.5Zm-1.3-.25h1.05v-.6H9.2Zm-.51-.57H8.55a11.79,11.79,0,0,1-4.36-1l-.07,0v-3A.26.26,0,0,1,4.38,7h10.7a.25.25,0,0,1,.25.25v2.9l-.07,0a11.23,11.23,0,0,1-4.36,1.09h-.14v-.2a.35.35,0,0,0-.34-.35H9a.35.35,0,0,0-.34.35ZM4.37,10a11.81,11.81,0,0,0,4.07,1A.6.6,0,0,1,9,10.46h1.39A.6.6,0,0,1,11,11a11.07,11.07,0,0,0,4.07-1V7.22H4.38Zm7-3.34H8.12v-1a.49.49,0,0,1,.5-.49h2.21a.5.5,0,0,1,.5.49Zm-3-.25h2.71V5.71a.25.25,0,0,0-.25-.24H8.62a.25.25,0,0,0-.25.24Z"/></svg>