<svg id="Camada_1" data-name="Camada 1" xmlns="http://www.w3.org/2000/svg" viewBox="0 0 20 20"><defs><style>.cls-1{fill:#979797;}</style></defs><path class="cls-1" d="M6.8,9.08a1.69,1.69,0,0,1-.4-1.2V7.09A1.65,1.65,0,0,1,6.8,5.9a1.46,1.46,0,0,1,1.13-.43,1.48,1.48,0,0,1,1.14.43,1.72,1.72,0,0,1,.4,1.2v.78a1.7,1.7,0,0,1-.4,1.2,1.51,1.51,0,0,1-1.14.43A1.49,1.49,0,0,1,6.8,9.08Zm5.32-3.52h1.14l-5,9.21H7.12ZM8.28,8.36A.58.58,0,0,0,8.41,8V7a.57.57,0,0,0-.13-.4.51.51,0,0,0-.7,0,.62.62,0,0,0-.12.4V8a.61.61,0,0,0,.12.41.51.51,0,0,0,.7,0Zm3.1,6.08a1.72,1.72,0,0,1-.4-1.2v-.79a1.69,1.69,0,0,1,.4-1.19,1.48,1.48,0,0,1,1.14-.43,1.46,1.46,0,0,1,1.13.43,1.68,1.68,0,0,1,.4,1.21v.77a1.7,1.7,0,0,1-.4,1.2,1.51,1.51,0,0,1-1.13.43A1.51,1.51,0,0,1,11.38,14.44Zm1.48-.72a.58.58,0,0,0,.13-.41v-.93a.57.57,0,0,0-.13-.4.44.44,0,0,0-.34-.14.47.47,0,0,0-.36.14.62.62,0,0,0-.12.4v.93a.61.61,0,0,0,.12.41.47.47,0,0,0,.36.14A.44.44,0,0,0,12.86,13.72Z"/></svg>