<svg id="Camada_1" data-name="Camada 1" xmlns="http://www.w3.org/2000/svg" viewBox="0 0 20 20"><defs><style>.cls-1{fill:#fff;}.cls-2{fill:none;stroke:#fff;stroke-miterlimit:10;stroke-width:0.5px;}</style></defs><title>ícones</title><path class="cls-1" d="M18.11,7.82,18,7a.36.36,0,0,0-.34-.31l-.51,0-.27-.19-.59-.68a.38.38,0,0,0-.25-.13l-.4,0-.56-.12-.61-.16L14.2,5A.34.34,0,0,0,14,4.86l-.62-.2-.08,0-.31,0h-.29a.35.35,0,0,0-.29.18l-.14.24,0,0A.38.38,0,0,0,12,5h-.16l-.18-.12.15,0a.36.36,0,0,0,.24-.21l.09-.2a.29.29,0,0,0,0-.09L12.24,4a.66.66,0,0,0,0-.14v0a.35.35,0,0,0-.17-.22l-.12-.07,0-.09s0,0,0,0l-.27-.66a.35.35,0,0,0-.32-.22h-.23a.35.35,0,0,0-.32.22l-.22.52h-.09l-.69-.21h-.1a.35.35,0,0,0-.25.1l-.21.2,0,0-.24,0-.1,0-.27.13-.19-.1V3.38l0-.06a.36.36,0,0,0,.06-.2V2.79a.39.39,0,0,0,0-.18l-.29-.48A.35.35,0,0,0,7.82,2H7.67a.36.36,0,0,0-.36.36V2.4l-.08.06H6.86l-.51-.12H6.27A.35.35,0,0,0,6,2.43l-.16.14a.34.34,0,0,0-.12.27v.31a.32.32,0,0,0,0,.19L6,3.6l-.31.29H5.51V3.57a.35.35,0,0,0-.32-.35l-.24,0h0a.41.41,0,0,0-.22.07l-.09.08-.11,0h0a.33.33,0,0,0-.24.15l0,0H3.86a.37.37,0,0,0-.25.1.36.36,0,0,0-.11.25V4a.36.36,0,0,0,0,.1.3.3,0,0,0-.14.1l-.21.28a.35.35,0,0,0-.08.26A.38.38,0,0,0,3.24,5l.31.23v.5l0,.17H3.23A.3.3,0,0,0,3,6l-.64.67a.35.35,0,0,0-.1.24v.13L2,7.32a.36.36,0,0,0-.1.25v.29A.36.36,0,0,0,2,8.08l.35.46.07.06.33.25a.34.34,0,0,0,.22.07h.4a.33.33,0,0,0,.12.28l.18.15a.32.32,0,0,0,.23.09h.08l.3-.07.33,0h0a.4.4,0,0,0,.15,0l.53-.25A.27.27,0,0,0,5.4,9l0,.15a.39.39,0,0,0,.11.31l.37.33a.36.36,0,0,0,.24.09h.39l.39.22.08,0,.38.11,0,.06-.09.28a.33.33,0,0,0,0,.22l.15.45a.35.35,0,0,0,.33.24H8l.12.14v0l.18.18V12l-.15.3a.51.51,0,0,0,0,.17l0,.3-.08.15a.34.34,0,0,0,0,.28l.09.29a.42.42,0,0,0,.09.14l.21.22a.39.39,0,0,0,.25.1H9v.15a.35.35,0,0,0,.22.33l.23.09.11.21.06.25,0,.05,0,.13,0,.11-.21.23L9,15.69a.37.37,0,0,0-.13.12l-.39.56a.36.36,0,0,0,0,.44l.22.25a.18.18,0,0,0,.07.05l.47.32,0,0,.45.22v.05a.36.36,0,0,0,.36.32h.34a.35.35,0,0,0,.24-.1l.38-.37.06-.07.41-.7.55-.43a.32.32,0,0,0,.13-.21l.1-.5v-.54l.66-.39.31,0h.06a.31.31,0,0,0,.21-.07l.2-.15.59,0h0a.35.35,0,0,0,.25-.1l.51-.49.05-.07.43-.67.25-.19a.35.35,0,0,0,.14-.28v-.21l.16-.2a.35.35,0,0,0,.08-.22v-.53l.18-.47a.33.33,0,0,0,0-.22l-.1-.36.06-.24.28-.15.06,0,.42-.34,0,0,.29-.31h0L18,8.83a.36.36,0,0,0,.08-.23V7.82Zm-.35.78-.54.63-.3.3-.41.35-.43.22-.11.48.11.45-.21.53v.6l-.23.3v.33l-.3.22-.47.73-.51.5-.72,0-.29.22-.44-.07-.94.57v.67l-.1.49-.6.47-.45.76-.37.36h-.34l0-.24-.62-.31L9,16.82l-.23-.25L9.15,16l.51-.26.3-.33.11-.32L10,14.85l-.07-.28L9.7,14.2l-.35-.14v-.28l-.11-.22H8.7l-.21-.22-.09-.29.13-.24,0-.4L8.68,12v-.31l-.27-.29-.23-.27h-.4l-.15-.45.13-.42L7.58,10l-.52-.15-.48-.27H6.1l-.37-.33,0-.38-.29-.32H5.26l-.13.27L4.6,9,4.21,9l-.35.09-.18-.16.15-.36-.12-.16-.23.16H2.92l-.33-.25-.35-.46V7.57l.35-.36V6.94l.64-.67h.56l.11-.49V5.05l-.46-.33.22-.27L4,4.36l.06-.12L3.86,4V3.87l.49,0,.14-.22.12.1.3-.23.23,0V4l.25.2H5.8l.52-.47,0-.21-.26-.41V2.84l.16-.14.56.13.52,0,.31-.23V2.31h.16l.28.48v.33L8,3.27V3.7L8.53,4,9,3.78l.47-.07V3.6l.22-.2.74.23h.38l.3-.75h.23l.27.66.06.24.24.14,0,.05-.05.35-.08.2-.45.11L11.07,5l.11.26.28,0,.3.2H12l0,.21,0,.12h.14l.08-.2.25-.21.17-.3H13l.31,0,.62.21.38.51.73.2.6.13.43,0,.62.72.39.27.62,0,.08.78V8.6Z"/><path class="cls-2" d="M18.11,7.82,18,7a.36.36,0,0,0-.34-.31l-.51,0-.27-.19-.59-.68a.38.38,0,0,0-.25-.13l-.4,0-.56-.12-.61-.16L14.2,5A.34.34,0,0,0,14,4.86l-.62-.2-.08,0-.31,0h-.29a.35.35,0,0,0-.29.18l-.14.24,0,0A.38.38,0,0,0,12,5h-.16l-.18-.12.15,0a.36.36,0,0,0,.24-.21l.09-.2a.29.29,0,0,0,0-.09L12.24,4a.66.66,0,0,0,0-.14v0a.35.35,0,0,0-.17-.22l-.12-.07,0-.09s0,0,0,0l-.27-.66a.35.35,0,0,0-.32-.22h-.23a.35.35,0,0,0-.32.22l-.22.52h-.09l-.69-.21h-.1a.35.35,0,0,0-.25.1l-.21.2,0,0-.24,0-.1,0-.27.13-.19-.1V3.38l0-.06a.36.36,0,0,0,.06-.2V2.79a.39.39,0,0,0,0-.18l-.29-.48A.35.35,0,0,0,7.82,2H7.67a.36.36,0,0,0-.36.36V2.4l-.08.06H6.86l-.51-.12H6.27A.35.35,0,0,0,6,2.43l-.16.14a.34.34,0,0,0-.12.27v.31a.32.32,0,0,0,0,.19L6,3.6l-.31.29H5.51V3.57a.35.35,0,0,0-.32-.35l-.24,0h0a.41.41,0,0,0-.22.07l-.09.08-.11,0h0a.33.33,0,0,0-.24.15l0,0H3.86a.37.37,0,0,0-.25.1.36.36,0,0,0-.11.25V4a.36.36,0,0,0,0,.1.3.3,0,0,0-.14.1l-.21.28a.35.35,0,0,0-.08.26A.38.38,0,0,0,3.24,5l.31.23v.5l0,.17H3.23A.3.3,0,0,0,3,6l-.64.67a.35.35,0,0,0-.1.24v.13L2,7.32a.36.36,0,0,0-.1.25v.29A.36.36,0,0,0,2,8.08l.35.46.07.06.33.25a.34.34,0,0,0,.22.07h.4a.33.33,0,0,0,.12.28l.18.15a.32.32,0,0,0,.23.09h.08l.3-.07.33,0h0a.4.4,0,0,0,.15,0l.53-.25A.27.27,0,0,0,5.4,9l0,.15a.39.39,0,0,0,.11.31l.37.33a.36.36,0,0,0,.24.09h.39l.39.22.08,0,.38.11,0,.06-.09.28a.33.33,0,0,0,0,.22l.15.45a.35.35,0,0,0,.33.24H8l.12.14v0l.18.18V12l-.15.3a.51.51,0,0,0,0,.17l0,.3-.08.15a.34.34,0,0,0,0,.28l.09.29a.42.42,0,0,0,.09.14l.21.22a.39.39,0,0,0,.25.1H9v.15a.35.35,0,0,0,.22.33l.23.09.11.21.06.25,0,.05,0,.13,0,.11-.21.23L9,15.69a.37.37,0,0,0-.13.12l-.39.56a.36.36,0,0,0,0,.44l.22.25a.18.18,0,0,0,.07.05l.47.32,0,0,.45.22v.05a.36.36,0,0,0,.36.32h.34a.35.35,0,0,0,.24-.1l.38-.37.06-.07.41-.7.55-.43a.32.32,0,0,0,.13-.21l.1-.5v-.54l.66-.39.31,0h.06a.31.31,0,0,0,.21-.07l.2-.15.59,0h0a.35.35,0,0,0,.25-.1l.51-.49.05-.07.43-.67.25-.19a.35.35,0,0,0,.14-.28v-.21l.16-.2a.35.35,0,0,0,.08-.22v-.53l.18-.47a.33.33,0,0,0,0-.22l-.1-.36.06-.24.28-.15.06,0,.42-.34,0,0,.29-.31h0L18,8.83a.36.36,0,0,0,.08-.23V7.82Zm-.35.78-.54.63-.3.3-.41.35-.43.22-.11.48.11.45-.21.53v.6l-.23.3v.33l-.3.22-.47.73-.51.5-.72,0-.29.22-.44-.07-.94.57v.67l-.1.49-.6.47-.45.76-.37.36h-.34l0-.24-.62-.31L9,16.82l-.23-.25L9.15,16l.51-.26.3-.33.11-.32L10,14.85l-.07-.28L9.7,14.2l-.35-.14v-.28l-.11-.22H8.7l-.21-.22-.09-.29.13-.24,0-.4L8.68,12v-.31l-.27-.29-.23-.27h-.4l-.15-.45.13-.42L7.58,10l-.52-.15-.48-.27H6.1l-.37-.33,0-.38-.29-.32H5.26l-.13.27L4.6,9,4.21,9l-.35.09-.18-.16.15-.36-.12-.16-.23.16H2.92l-.33-.25-.35-.46V7.57l.35-.36V6.94l.64-.67h.56l.11-.49V5.05l-.46-.33.22-.27L4,4.36l.06-.12L3.86,4V3.87l.49,0,.14-.22.12.1.3-.23.23,0V4l.25.2H5.8l.52-.47,0-.21-.26-.41V2.84l.16-.14.56.13.52,0,.31-.23V2.31h.16l.28.48v.33L8,3.27V3.7L8.53,4,9,3.78l.47-.07V3.6l.22-.2.74.23h.38l.3-.75h.23l.27.66.06.24.24.14,0,.05-.05.35-.08.2-.45.11L11.07,5l.11.26.28,0,.3.2H12l0,.21,0,.12h.14l.08-.2.25-.21.17-.3H13l.31,0,.62.21.38.51.73.2.6.13.43,0,.62.72.39.27.62,0,.08.78V8.6Z"/></svg>