<svg id="Camada_1" data-name="Camada 1" xmlns="http://www.w3.org/2000/svg" viewBox="0 0 20 20"><defs><style>.cls-1{fill:#fff;}</style></defs><path class="cls-1" d="M5.8,18H.46V12.67H5.8Zm-4.58-.77H5V13.44H1.22Z"/><path class="cls-1" d="M12.67,18H7.33V12.67h5.34Zm-4.58-.77h3.82V13.44H8.09Z"/><path class="cls-1" d="M12.67,7.33H7.33V2h5.34ZM8.09,6.56h3.82V2.75H8.09Z"/><path class="cls-1" d="M19.54,18H14.2V12.67h5.34ZM15,17.25h3.82V13.44H15Z"/><rect class="cls-1" x="9.62" y="8.47" width="0.76" height="1.53"/><polygon class="cls-1" points="17.25 11.53 16.49 11.53 16.49 10.38 3.51 10.38 3.51 11.53 2.75 11.53 2.75 9.62 17.25 9.62 17.25 11.53"/></svg>