<svg id="Camada_1" data-name="Camada 1" xmlns="http://www.w3.org/2000/svg" viewBox="0 0 20 20"><defs><style>.cls-1{fill:#fff;}.cls-2,.cls-3{fill:none;stroke:#fff;}.cls-2{stroke-miterlimit:10;stroke-width:0.75px;}.cls-3{stroke-linecap:round;stroke-linejoin:round;}</style></defs><path class="cls-1" d="M7.56,10.49A1.88,1.88,0,0,0,8.35,9,1.43,1.43,0,1,0,5.5,9a1.88,1.88,0,0,0,.79,1.49,2.49,2.49,0,0,0-1.94,2c0,.43,1.29.64,2.58.64l-.73-.72.55-1.33H7.1l.55,1.33-.72.72c1.29,0,2.58-.21,2.58-.64A2.49,2.49,0,0,0,7.56,10.49Zm-.51.42H6.8l-.23-.28a1,1,0,0,0,.36.07,1,1,0,0,0,.35-.06Z"/><rect class="cls-2" x="1.81" y="3.75" width="16.38" height="12.51" rx="1.03"/><line class="cls-3" x1="11.31" y1="12.05" x2="15.31" y2="12.05"/><line class="cls-3" x1="11.31" y1="10.05" x2="15.31" y2="10.05"/><line class="cls-3" x1="11.31" y1="8.05" x2="15.31" y2="8.05"/></svg>