<svg id="Camada_1" data-name="Camada 1" xmlns="http://www.w3.org/2000/svg" viewBox="0 0 20 20"><defs><style>.cls-1{fill:#fff;}</style></defs><title>ícones</title><path class="cls-1" d="M17.21,7.79a3.47,3.47,0,0,0,.9-3.33L18,3.88,15.87,6l-1.4-.34-.34-1.4,2.09-2.1L15.64,2a3.46,3.46,0,0,0-4.23,4.2l-1,1a1.41,1.41,0,0,1-.54-.94l0-.11L6.29,2.59A2.67,2.67,0,0,0,2.6,2.46a2.62,2.62,0,0,0-.06,3.75L6.16,9.84l.11,0a1.39,1.39,0,0,1,.93.55l-1,1a3.45,3.45,0,0,0-3.3.9A3.52,3.52,0,0,0,2,15.64l.15.58,2.1-2.1,1.39.34L6,15.86,3.91,18l.58.15a3.7,3.7,0,0,0,.87.11A3.45,3.45,0,0,0,8.72,13.9l1.82-1.81,3.05,3.07.33,1.2,2.8,1.86,1.47-1.47-1.85-2.81-1.2-.34-3.05-3.07L13.91,8.7A3.42,3.42,0,0,0,17.21,7.79Zm-1.3,6.74,1.4,2.13-.68.68-2.12-1.41-.31-1.12L11,11.6l.59-.59,3.18,3.2ZM6.48,9.2,3,5.73A1.92,1.92,0,0,1,3.07,3a2,2,0,0,1,2.74.11L9.2,6.47a2.1,2.1,0,0,0,.72,1.22L7.69,9.92A2,2,0,0,0,6.48,9.2Zm5.13.84h0l-.58.58L8,13.71l.06.2A2.77,2.77,0,0,1,5.3,17.53l1.46-1.46L6.23,13.9l-2.18-.54L2.6,14.82a2.77,2.77,0,0,1,3.61-2.71l.2.06,5.77-5.78-.06-.2a2.75,2.75,0,0,1,.68-2.81,2.8,2.8,0,0,1,2-.82L13.37,4,13.9,6.2l2.18.54,1.46-1.46a2.82,2.82,0,0,1-.81,2A2.76,2.76,0,0,1,13.92,8l-.2-.06Z"/><rect class="cls-1" x="8.76" y="10.69" width="0.64" height="0.68" transform="translate(-5.14 9.67) rotate(-45.06)"/><rect class="cls-1" x="9.87" y="9.58" width="0.64" height="0.68" transform="translate(-4.03 10.13) rotate(-45.06)"/><rect class="cls-1" x="10.98" y="8.47" width="0.64" height="0.68" transform="translate(-2.92 10.59) rotate(-45.06)"/><rect class="cls-1" x="6.2" y="3.22" width="0.69" height="4.64" transform="translate(-2 6.23) rotate(-44.9)"/><rect class="cls-1" x="5.2" y="4.21" width="0.69" height="4.64" transform="translate(-2.99 5.82) rotate(-44.9)"/></svg>