<svg id="Camada_1" data-name="Camada 1" xmlns="http://www.w3.org/2000/svg" viewBox="0 0 20 20"><defs><style>.cls-1{fill:none;stroke:#fff;stroke-miterlimit:10;}</style></defs><title>ícones</title><polyline class="cls-1" points="13.64 10.18 13.64 3.4 11.5 3.4 11.5 10.18"/><polyline class="cls-1" points="5.79 10.18 5.79 1.97 3.65 1.97 3.65 10.18"/><polyline class="cls-1" points="9.72 10.18 9.72 6.61 7.58 6.61 7.58 10.18"/><polyline class="cls-1" points="14 12.32 14 14.1 11.86 14.1 11.86 12.32"/><polyline class="cls-1" points="5.79 12.32 5.79 18.03 3.65 18.03 3.65 12.32"/><polyline class="cls-1" points="10.07 12.32 10.07 15.53 7.93 15.53 7.93 12.32"/><line class="cls-1" x1="1.51" y1="11.25" x2="18.64" y2="11.25"/><line class="cls-1" x1="17.21" y1="10.18" x2="17.21" y2="7.68"/><polyline class="cls-1" points="18.28 8.75 17.21 7.68 16.14 8.75"/><line class="cls-1" x1="17.21" y1="12.32" x2="17.21" y2="14.82"/><polyline class="cls-1" points="18.28 13.75 17.21 14.82 16.14 13.75"/></svg>