<svg id="Camada_1" data-name="Camada 1" xmlns="http://www.w3.org/2000/svg" viewBox="0 0 62 62" width="50px"><defs><style>.cls-1{fill:#680f39;stroke:#680f39;stroke-miterlimit:10;stroke-width:0.7px;}</style></defs><path class="cls-1" d="M30.53,44.48A5.11,5.11,0,0,1,26.9,43a5.09,5.09,0,0,1-8.71-3.76,5.1,5.1,0,0,1-3.64-7.95,5.46,5.46,0,0,1-1.38-1.88,5.11,5.11,0,0,1,1.92-6.3l-.09-.3a5.08,5.08,0,0,1,2.64-6.07,5.09,5.09,0,0,1,4-6l.15,0a7,7,0,0,1,.07-.8,5.11,5.11,0,0,1,10.14.8,4.59,4.59,0,0,1,.9.24,5.1,5.1,0,0,1,3.27,5.76l.32.17a5.09,5.09,0,0,1,2.23,6.2,5.1,5.1,0,0,1,2.14,5.65,5,5,0,0,1-1.61,2.52,5.19,5.19,0,0,1,.9,2.88,5.1,5.1,0,0,1-4.53,5.07,5.12,5.12,0,0,1-5.11,5.28ZM26.9,40.87h0a.81.81,0,0,1,.69.38,3.48,3.48,0,0,0,6.33-2.65.79.79,0,0,1,.17-.71.8.8,0,0,1,.68-.28h.28a3.49,3.49,0,0,0,2.42-6,.79.79,0,0,1,.17-1.27A3.48,3.48,0,0,0,39,25.66h0a3.5,3.5,0,0,0-1.61-1.48.82.82,0,0,1-.46-.49A.81.81,0,0,1,37,23a3.49,3.49,0,0,0-1.29-4.75A3,3,0,0,0,35,18a.9.9,0,0,1-.48-.42.77.77,0,0,1,0-.63,3.47,3.47,0,0,0-2.07-4.45,3.26,3.26,0,0,0-1.2-.2h0a.81.81,0,0,1-.63-.3.79.79,0,0,1-.29-.66,3.49,3.49,0,0,0-6.88-1.12,3.51,3.51,0,0,0,0,1.12.81.81,0,0,1-.81.95,3.47,3.47,0,0,0-3.5,3.45,3.29,3.29,0,0,0,.2,1.2.79.79,0,0,1,0,.64.82.82,0,0,1-.49.4,3.48,3.48,0,0,0-2.3,4.35,3,3,0,0,0,.31.71.77.77,0,0,1,.06.66.78.78,0,0,1-.45.49,3.49,3.49,0,0,0-1.81,4.58,3.54,3.54,0,0,0,1.49,1.64.82.82,0,0,1,.18,1.28,3.45,3.45,0,0,0,2.73,5.9.81.81,0,0,1,.87.74.71.71,0,0,1,0,.25,3.48,3.48,0,0,0,6.33,2.65A.79.79,0,0,1,26.9,40.87Z"/><path class="cls-1" d="M29,57.34H24.82a.81.81,0,0,1-.81-.81V43.38a.79.79,0,0,1,.51-.75,3.6,3.6,0,0,0,1.7-1.38.79.79,0,0,1,.68-.38h0a.82.82,0,0,1,.68.37,3.55,3.55,0,0,0,1.69,1.39.8.8,0,0,1,.52.75V56.53A.81.81,0,0,1,29,57.34Zm-3.36-1.62h2.55V43.9A4.87,4.87,0,0,1,26.9,43a5.35,5.35,0,0,1-1.28.94Z"/><path class="cls-1" d="M44,44.17a4.31,4.31,0,0,1-3-1.17,4.36,4.36,0,0,1-2.33,1.12,4.28,4.28,0,0,1-4.84-3.63v-.12a.67.67,0,0,1,0-.2,3.1,3.1,0,0,0,.09-.81A2.41,2.41,0,0,0,34,39v-.62a.81.81,0,0,1,.86-.75h.19a3.49,3.49,0,0,0,2.42-6,.81.81,0,0,1,0-1.14.75.75,0,0,1,.18-.13A3.49,3.49,0,0,0,39,25.62a3.57,3.57,0,0,0-1.64-1.48.81.81,0,0,1-.43-1.06L37,23a3.46,3.46,0,0,0-1.3-4.71.82.82,0,0,1-.34-1.09.8.8,0,0,1,.34-.34,4.09,4.09,0,0,1,1.07-.36,1.8,1.8,0,0,1,.05-.52,4.29,4.29,0,0,1,8.52.52,3.69,3.69,0,0,1,.65.18,4.27,4.27,0,0,1,2.76,4.72l.16.09a4.3,4.3,0,0,1,1.92,5.11,4.28,4.28,0,0,1,2,3.56h0a4.3,4.3,0,0,1-1.43,3.23A4.28,4.28,0,0,1,50,39.28a4.23,4.23,0,0,1-1.71.64,4.28,4.28,0,0,1-2,3.59A4.19,4.19,0,0,1,44,44.17Zm-3-3.23h0a.8.8,0,0,1,.68.38,2.67,2.67,0,0,0,4.84-2,.81.81,0,0,1,.61-1,.69.69,0,0,1,.25,0h.22a2.68,2.68,0,0,0,2.67-2.68h0a2.7,2.7,0,0,0-.81-1.89.82.82,0,0,1,.17-1.29,2.67,2.67,0,0,0-.2-4.78.85.85,0,0,1-.45-.48.8.8,0,0,1,.07-.66,2.67,2.67,0,0,0-1-3.64h0a2.48,2.48,0,0,0-.55-.24.78.78,0,0,1-.48-.41.79.79,0,0,1,0-.64,2.66,2.66,0,0,0-1.61-3.4h0a2.92,2.92,0,0,0-.92-.16h0a.84.84,0,0,1-.63-.28.78.78,0,0,1-.19-.65,2.65,2.65,0,0,0-.47-2,2.68,2.68,0,0,0-3.72-.68,2.64,2.64,0,0,0-1.12,1.81,2.54,2.54,0,0,0,0,.87.82.82,0,0,1-.19.65.78.78,0,0,1-.41.26,5.07,5.07,0,0,1,.88,5.07,5.13,5.13,0,0,1,1.9,6.31,5.21,5.21,0,0,1-1.4,1.88,5.08,5.08,0,0,1-3.63,7.93v.17a4.4,4.4,0,0,1-.09,1,2.67,2.67,0,0,0,3.17,2.06,2.64,2.64,0,0,0,1.68-1.14.83.83,0,0,1,.72-.37ZM51.93,30.13"/><path class="cls-1" d="M42.77,57.34H39.38a.8.8,0,0,1-.8-.81V43.13a.79.79,0,0,1,.51-.76,2.56,2.56,0,0,0,1.3-1.06.81.81,0,0,1,1.12-.25.85.85,0,0,1,.25.25,2.69,2.69,0,0,0,1.29,1.06.81.81,0,0,1,.52.76v13.4A.81.81,0,0,1,42.77,57.34Zm-2.58-1.62H42V43.61a3.54,3.54,0,0,1-.89-.64,4.72,4.72,0,0,1-.89.65Z"/><path class="cls-1" d="M11.66,55.72H51.93a.81.81,0,1,1,0,1.62H11.66"/></svg>