<svg id="Camada_1" data-name="Camada 1" xmlns="http://www.w3.org/2000/svg" viewBox="0 0 62 62" width="50px"><defs><style>.cls-1{fill:#680f39;stroke:#680f39;stroke-miterlimit:10;stroke-width:0.5px;}</style></defs><path class="cls-1" d="M49.05,41.37h-.12c2-6,.77-10.58-.65-13.4a15.26,15.26,0,0,0-2.35-3.49,6.09,6.09,0,0,0,.35-2.05A6.26,6.26,0,0,0,43.1,17l4-7a1,1,0,0,0,.11-.72.94.94,0,0,0-.41-.54L39,4a.89.89,0,0,0-1.24.36L24.18,28.15a.89.89,0,0,0,.29,1.26l1.48.9-1.36,2.4-1.83-1.14a.93.93,0,0,0-.7-.12.9.9,0,0,0-.53.42l-1.36,2.41a.92.92,0,0,0,.36,1.26l8.54,5.11a1.12,1.12,0,0,0,.47.12.92.92,0,0,0,.77-.48l1.35-2.4a1,1,0,0,0,.12-.73.94.94,0,0,0-.41-.54l-1.89-1.14,1.36-2.4,1.47.9a1.12,1.12,0,0,0,.47.12.92.92,0,0,0,.77-.48l3.3-5.84a5.71,5.71,0,0,0,3.18.91,5.06,5.06,0,0,0,.95-.06,9.33,9.33,0,0,1,1.59,2.28q2.2,4.43-.53,10.46H36.56a.89.89,0,0,0-.89.78l-.29,1.93H18.93a.9.9,0,0,0,0,1.8H35.08l-.88,5.59H16.81A.93.93,0,0,0,16,52l-2.3,4.69A.93.93,0,0,0,14.51,58h34.6a.92.92,0,0,0,.88-.91V42.27a.92.92,0,0,0-.94-.9ZM29.19,38.61l-7-4.15.47-.84,7,4.14-.47.85Zm-1.06-4.45-1.71-1,1.12-2,1.71,1-1.12,2ZM32.43,32,31,31.09h0l-3.24-1.92h0l-1.48-.9L38.85,6.08,45.1,9.81,41.39,16.3h0c-.06,0-.18-.06-.24-.06h-.06a.35.35,0,0,1-.23-.06h-.65A6.25,6.25,0,0,0,34,22.49v.61c0,.18.06.36.06.54v.06c.06.18.06.36.12.54v.06l.18.54h0a1.08,1.08,0,0,0,.23.48h0c.06.18.18.3.24.48h0a1.76,1.76,0,0,0,.29.42.06.06,0,0,0,.06.06c.12.12.18.24.3.36s0,.06,0,.06L32.43,32Zm3.3-9.5a4.39,4.39,0,0,1,4.36-4.44h.53a.36.36,0,0,1,.24.06.22.22,0,0,1,.18.06c.05,0,.17.06.23.06s.12.06.18.06a4.46,4.46,0,0,1,3,4.26A4,4,0,0,1,44,24.48c-.06.12-.12.18-.12.3a.22.22,0,0,1,0,.12.83.83,0,0,1-.18.24l-.12.12c-.06.12-.18.18-.24.3l-.05.06a7.31,7.31,0,0,1-.71.6.06.06,0,0,0-.06.06l-.35.18c-.06,0-.06.06-.12.06s-.18.12-.3.12-.11.06-.17.06a2.6,2.6,0,0,0-.3.06,3.37,3.37,0,0,1-1.12.18,4.63,4.63,0,0,1-4.36-4.45ZM48.17,56.22H15.93l1.41-2.88H35a.89.89,0,0,0,.89-.79l1.47-9.31h5.25a.93.93,0,0,0,.82-.49c2.3-4.74,2.59-9,.77-12.56a15.09,15.09,0,0,0-1.3-2h0a7.56,7.56,0,0,0,1.71-1.33h0c.18-.18.3-.36.47-.54a11.83,11.83,0,0,1,1.65,2.59c1.36,2.64,2.48,7.09.12,13.16a.86.86,0,0,0,.12.85,1,1,0,0,0,.76.42h.53V56.22Z"/></svg>