<svg id="Camada_1" data-name="Camada 1" xmlns="http://www.w3.org/2000/svg" viewBox="0 0 62 62" width="50px"><defs><style>.cls-1{fill:#680f39;stroke:#680f39;stroke-miterlimit:10;stroke-width:0.5px;}</style></defs><path class="cls-1" d="M32.89,29.18A9.57,9.57,0,0,1,30,28.74L8.48,22a1.61,1.61,0,0,1,0-3.06L30,12.12a9.43,9.43,0,0,1,5.71,0L57.31,18.9a1.61,1.61,0,0,1,0,3.06L35.75,28.74A9.59,9.59,0,0,1,32.89,29.18ZM9,20.47,30.5,27.25a8,8,0,0,0,4.78,0l21.56-6.78.23-.83-.23.74L35.28,13.6a8,8,0,0,0-4.78,0h0L9,20.38l-.23.83Zm21.32-7.61h0Z"/><path class="cls-1" d="M32.89,45A36.06,36.06,0,0,1,18,41.79a3.25,3.25,0,0,1-1.9-3V23.93a.78.78,0,0,1,1.56,0v14.9a1.71,1.71,0,0,0,1,1.55,34.58,34.58,0,0,0,28.51,0,1.71,1.71,0,0,0,1-1.55V23.93a.78.78,0,0,1,.78-.78h0a.78.78,0,0,1,.78.78v14.9a3.24,3.24,0,0,1-1.91,3A36,36,0,0,1,32.89,45Z"/><path class="cls-1" d="M10.67,43.25a.77.77,0,0,1-.78-.78V22.14a.78.78,0,0,1,1.56,0V42.47A.77.77,0,0,1,10.67,43.25Z"/><path class="cls-1" d="M10.67,47.6a3,3,0,1,1,3-3A2.95,2.95,0,0,1,10.67,47.6Zm0-4.35a1.4,1.4,0,1,0,1.4,1.4A1.4,1.4,0,0,0,10.67,43.25Z"/><path class="cls-1" d="M14,55.32H7.34v-.78A14.18,14.18,0,0,1,8.79,48.6a.78.78,0,0,1,1-.38.78.78,0,0,1,.38,1,13.34,13.34,0,0,0-1.28,4.51h3.48a13.11,13.11,0,0,0-1.28-4.51.78.78,0,0,1,1.42-.65A14.18,14.18,0,0,1,14,54.54Z"/></svg>