<svg id="Camada_1" data-name="Camada 1" xmlns="http://www.w3.org/2000/svg" viewBox="0 0 62 62" width="50px"><defs><style>.cls-1{fill:#680f39;}</style></defs><path class="cls-1" d="M47,27.83A5.85,5.85,0,1,1,52.75,22,5.82,5.82,0,0,1,47,27.83Zm0-10.07A4.22,4.22,0,1,0,51.12,22,4.19,4.19,0,0,0,47,17.76Z"/><path class="cls-1" d="M47,28A6.06,6.06,0,1,1,53,22,6,6,0,0,1,47,28Zm0-11.7A5.64,5.64,0,1,0,52.54,22,5.6,5.6,0,0,0,47,16.34Zm0,10.07A4.43,4.43,0,1,1,51.33,22,4.4,4.4,0,0,1,47,26.41ZM47,18a4,4,0,1,0,3.94,4A4,4,0,0,0,47,18Z"/><path class="cls-1" d="M15.9,27.83A5.85,5.85,0,1,1,21.67,22,5.82,5.82,0,0,1,15.9,27.83Zm0-10.07A4.22,4.22,0,1,0,20,22,4.19,4.19,0,0,0,15.9,17.76Z"/><path class="cls-1" d="M15.9,28a6.06,6.06,0,1,1,6-6.06A6,6,0,0,1,15.9,28Zm0-11.7A5.64,5.64,0,1,0,21.46,22,5.6,5.6,0,0,0,15.9,16.34Zm0,10.07A4.43,4.43,0,1,1,20.25,22,4.4,4.4,0,0,1,15.9,26.41Zm0-8.44a4,4,0,1,0,3.93,4A4,4,0,0,0,15.9,18Z"/><path class="cls-1" d="M31.45,22.56a8.25,8.25,0,1,1,8.14-8.25A8.2,8.2,0,0,1,31.45,22.56Zm0-14.87A6.63,6.63,0,1,0,38,14.31,6.57,6.57,0,0,0,31.45,7.69Z"/><path class="cls-1" d="M31.45,22.77a8.46,8.46,0,1,1,8.35-8.46A8.41,8.41,0,0,1,31.45,22.77Zm0-16.5a8,8,0,1,0,7.93,8A8,8,0,0,0,31.45,6.27Zm0,14.88a6.84,6.84,0,1,1,6.73-6.84A6.79,6.79,0,0,1,31.45,21.15Zm0-13.26a6.42,6.42,0,1,0,6.31,6.42A6.37,6.37,0,0,0,31.45,7.89Z"/><path class="cls-1" d="M55.76,52.29H45.46V35.43a12.73,12.73,0,0,0-1.41-5.74l-.43-.85.9-.29a7.91,7.91,0,0,1,2.49-.4A8.82,8.82,0,0,1,55.76,37Zm-8.67-1.62h7V37A7.19,7.19,0,0,0,47,29.78a6.59,6.59,0,0,0-1.09.09,14.05,14.05,0,0,1,1.17,5.56Z"/><path class="cls-1" d="M56,52.5H45.25V35.43a12.63,12.63,0,0,0-1.39-5.65l-.53-1.06,1.13-.37A8.29,8.29,0,0,1,47,27.94,9,9,0,0,1,56,37Zm-10.3-.42h9.88V37A8.61,8.61,0,0,0,47,28.36a7.76,7.76,0,0,0-2.42.39l-.67.21.31.63a12.91,12.91,0,0,1,1.44,5.84Zm8.67-1.2H46.88V35.43A14,14,0,0,0,45.73,30l-.11-.24.26-.05A7.17,7.17,0,0,1,47,29.57,7.4,7.4,0,0,1,54.34,37Zm-7-.42h6.62V37A7,7,0,0,0,47,30a5.16,5.16,0,0,0-.79.05,14.4,14.4,0,0,1,1.08,5.39Z"/><path class="cls-1" d="M17.45,52.29H7.18V37a8.82,8.82,0,0,1,8.75-8.87,10,10,0,0,1,2.45.38l1,.26-.47.9a12.42,12.42,0,0,0-1.44,5.77ZM8.81,50.67h7V35.43A13.94,13.94,0,0,1,17,29.85a6.36,6.36,0,0,0-1.07-.11A7.19,7.19,0,0,0,8.81,37Z"/><path class="cls-1" d="M17.66,52.5H7V37a9,9,0,0,1,9-9.08,9.84,9.84,0,0,1,2.5.39l1.23.33-.58,1.13a12.15,12.15,0,0,0-1.42,5.67ZM7.39,52.08h9.85V35.43a12.68,12.68,0,0,1,1.46-5.86l.35-.67-.73-.19a9.12,9.12,0,0,0-2.39-.38A8.61,8.61,0,0,0,7.39,37ZM16,50.88H8.6V37a7.4,7.4,0,0,1,7.33-7.45,5.7,5.7,0,0,1,1.11.11l.26,0-.11.25A13.67,13.67,0,0,0,16,35.43Zm-7-.42h6.59v-15A13.92,13.92,0,0,1,16.71,30a4.42,4.42,0,0,0-.78-.07A7,7,0,0,0,9,37Z"/><path class="cls-1" d="M43.75,56.94H19.16V35.43a12.3,12.3,0,1,1,24.59,0Zm-23-1.63H42.13V35.43a10.68,10.68,0,1,0-21.35,0Z"/><path class="cls-1" d="M44,57.15H19V35.43a12.51,12.51,0,1,1,25,0Zm-24.59-.42H43.54V35.43a12.09,12.09,0,1,0-24.17,0Zm23-1.21H20.57V35.43a10.89,10.89,0,1,1,21.77,0ZM21,55.1H41.92V35.43a10.47,10.47,0,1,0-20.93,0Z"/></svg>