<svg id="Camada_1" data-name="Camada 1" xmlns="http://www.w3.org/2000/svg" viewBox="0 0 62 62" width="50px"><defs><style>.cls-1,.cls-2{fill:#680f39;}.cls-2{stroke:#680f39;stroke-miterlimit:10;}</style></defs><polygon class="cls-1" points="35.18 41.99 32.22 41.99 32.22 39.18 29.91 39.18 29.91 41.99 26.96 41.99 26.96 44.31 29.91 44.31 29.91 47.13 32.22 47.13 32.22 44.31 35.18 44.31 35.18 41.99"/><path class="cls-2" d="M52.15,52.26H10A3.26,3.26,0,0,1,6.73,49V34.06H55.4V49A3.26,3.26,0,0,1,52.15,52.26ZM7.88,35.2V49A2.12,2.12,0,0,0,10,51.12H52.15A2.11,2.11,0,0,0,54.25,49V35.2Z"/><path class="cls-2" d="M31.07,49.9a6.69,6.69,0,1,1,6.68-6.69A6.7,6.7,0,0,1,31.07,49.9Zm0-12.23a5.54,5.54,0,1,0,5.54,5.54A5.54,5.54,0,0,0,31.07,37.67Z"/><path class="cls-2" d="M55.4,35.2H46.18v-4H42.45v4H19.68v-4H16v4H6.73V23.61A3.27,3.27,0,0,1,10,20.35H52.15a3.26,3.26,0,0,1,3.25,3.26Zm-8.07-1.14h6.92V23.61a2.1,2.1,0,0,0-2.1-2.11H10a2.11,2.11,0,0,0-2.11,2.11V34.06h6.93v-4h6v4H41.31v-4h6Z"/><path class="cls-2" d="M20.82,35.2h-6V30.08h6ZM16,34.06h3.73V31.22H16Z"/><path class="cls-2" d="M47.33,35.2h-6V30.08h6Zm-4.88-1.14h3.73V31.22H42.45Z"/><path class="cls-2" d="M19.45,38.67H14.81v-4a.57.57,0,0,1,.57-.57.56.56,0,0,1,.57.57v2.9h3.5a.57.57,0,0,1,.58.57A.58.58,0,0,1,19.45,38.67Z"/><path class="cls-2" d="M47.33,38.67H42.79a.58.58,0,0,1-.57-.57.57.57,0,0,1,.57-.57h3.39v-2.9a.58.58,0,0,1,1.15,0Z"/><path class="cls-2" d="M41.31,21.5a.57.57,0,0,1-.57-.58v-5.1a1.94,1.94,0,0,0-1.94-1.94H23.34a1.94,1.94,0,0,0-1.94,1.94v5.1a.58.58,0,1,1-1.15,0v-5.1a3.09,3.09,0,0,1,3.09-3.08H38.8a3.08,3.08,0,0,1,3.08,3.08v5.1A.57.57,0,0,1,41.31,21.5Z"/><path class="cls-2" d="M37.57,21.5a.58.58,0,0,1-.58-.58V17.27a.24.24,0,0,0-.24-.24H25.38a.24.24,0,0,0-.24.24v3.65a.57.57,0,1,1-1.14,0V17.27a1.38,1.38,0,0,1,1.38-1.38H36.75a1.38,1.38,0,0,1,1.39,1.38v3.65A.58.58,0,0,1,37.57,21.5Z"/></svg>