<svg id="Camada_1" data-name="Camada 1" xmlns="http://www.w3.org/2000/svg" viewBox="0 0 62 62" width="50px"><defs><style>.cls-1{fill:#680f39;}</style></defs><path class="cls-1" d="M32.58,38a1.6,1.6,0,1,0,1.57,1.6A1.56,1.56,0,0,0,32.58,38Z"/><path class="cls-1" d="M32.58,45.41A1.6,1.6,0,1,0,34.15,47a1.56,1.56,0,0,0-1.57-1.6Z"/><path class="cls-1" d="M32.58,26.5A1.61,1.61,0,1,0,31,24.9a1.61,1.61,0,0,0,1.57,1.6Z"/><path class="cls-1" d="M32.58,33.87A1.6,1.6,0,1,0,31,32.27a1.61,1.61,0,0,0,1.57,1.6Z"/><path class="cls-1" d="M32.58,19.13A1.61,1.61,0,1,0,31,17.52a1.57,1.57,0,0,0,1.57,1.61Z"/><path class="cls-1" d="M21.78,38a1.6,1.6,0,1,0,1.57,1.6A1.61,1.61,0,0,0,21.78,38Z"/><path class="cls-1" d="M21.78,30.65a1.6,1.6,0,1,0,1.57,1.6,1.65,1.65,0,0,0-1.57-1.6Z"/><path class="cls-1" d="M21.78,45.41A1.61,1.61,0,0,0,20.21,47a1.55,1.55,0,0,0,1.57,1.53,1.61,1.61,0,0,0,1.57-1.6,1.58,1.58,0,0,0-1.57-1.53Z"/><path class="cls-1" d="M21.78,26.49a1.6,1.6,0,1,0-1.57-1.6,1.61,1.61,0,0,0,1.57,1.6Z"/><path class="cls-1" d="M21.78,19.13a1.61,1.61,0,1,0-1.57-1.61,1.57,1.57,0,0,0,1.57,1.61Z"/><path class="cls-1" d="M42.53,38a1.6,1.6,0,1,0,1.57,1.6A1.53,1.53,0,0,0,42.53,38Z"/><path class="cls-1" d="M42.53,30.65a1.6,1.6,0,1,0,1.57,1.6,1.57,1.57,0,0,0-1.57-1.6Z"/><path class="cls-1" d="M42.53,45.41A1.61,1.61,0,0,0,41,47a1.55,1.55,0,0,0,1.57,1.53,1.61,1.61,0,0,0,1.57-1.6,1.51,1.51,0,0,0-1.57-1.53Z"/><path class="cls-1" d="M42.53,26.49A1.6,1.6,0,1,0,41,24.89a1.61,1.61,0,0,0,1.57,1.6Z"/><path class="cls-1" d="M42.53,19.13A1.61,1.61,0,1,0,41,17.52a1.61,1.61,0,0,0,1.57,1.61Z"/><path class="cls-1" d="M54.9,52.21H10.72V38.87L21.91,27.4l9.69,9.8a1,1,0,0,0,1.57,0h0L52.41,17.59v5.34a1.12,1.12,0,1,0,2.23,0V14.72a1.16,1.16,0,0,0-1.12-1.13h-8a1.14,1.14,0,0,0,0,2.27H51L32.38,34.8,22.7,25a1.05,1.05,0,0,0-1.57,0h0L10.72,35.6V9.65a1.12,1.12,0,1,0-2.23,0h0v43.7a1.16,1.16,0,0,0,1.12,1.13H54.9a1.14,1.14,0,0,0,0-2.27Z"/></svg>