<svg id="Camada_1" data-name="Camada 1" xmlns="http://www.w3.org/2000/svg" viewBox="0 0 62 62" width="50px"><defs><style>.cls-1{fill:#680f39;stroke:#680f39;stroke-miterlimit:10;stroke-width:0.4px;}</style></defs><path class="cls-1" d="M50.58,45.49a8.63,8.63,0,0,0-5.78-6.76l-6.74-2.24v-1H36.49V37l-1.17,4.68-3.17-3.8h-2.3l-3.16,3.8L25.52,37V35.48H24v1l-6.74,2.24a8.61,8.61,0,0,0-5.78,6.76L9.7,55.86H52.3ZM50,51.65l-.8-.16A1.56,1.56,0,0,1,48,50.21l-.4-2.39,1.73-.43ZM30.59,39.4h.83l1.86,2.23-1.53,2.29,1.48,10.37H28.77l1.48-10.37-1.52-2.29Zm-17.89,8,1.74.43L14,50.21a1.59,1.59,0,0,1-1.24,1.28l-.81.16Zm-1,5.92,1.4-.28a3.14,3.14,0,0,0,2.47-2.56l.64-3.82L13,45.84v-.09a7.05,7.05,0,0,1,4.73-5.53l6.48-2.16L25.91,45l1.77-2.12.94,1.4-1.43,10H18.55l.47-4.7H26.3V48H19.17l.07-.7-1.56-.16L17,54.29H11.55Zm33.32,1-.71-7.13-1.56.16.07.7H35.7v1.57H43l.47,4.7H34.82l-1.43-10,.93-1.4L36.09,45l1.74-6.95,6.47,2.16A7,7,0,0,1,49,45.75v.09l-3.26.81.64,3.82A3.15,3.15,0,0,0,48.9,53l1.39.28.16,1Z"/><path class="cls-1" d="M19.25,21.4a3.88,3.88,0,0,0-1.57,3.11,3.92,3.92,0,0,0,3.48,3.88,8.58,8.58,0,0,0,2.18,3.67l3.06,3.06a3.89,3.89,0,0,0,2.77,1.15h3.67a3.89,3.89,0,0,0,2.77-1.15l3.06-3.06a8.58,8.58,0,0,0,2.18-3.67,3.89,3.89,0,0,0,1.91-7V18.69l4.76-2.86-1.28-.64A14.44,14.44,0,0,1,41.08,10l-.23-.38h-.44c-.06,0-5.31,0-9-2.24L31,7.14l-.4.24c-3.68,2.21-9,2.24-9,2.24h-.45l-.22.38a14.55,14.55,0,0,1-5.17,5.19l-1.28.64,4.77,2.85Zm0,3.11a2.35,2.35,0,0,1,1.56-2.21V26c0,.25,0,.51,0,.76A2.34,2.34,0,0,1,19.25,24.51ZM37.56,31,34.5,34a2.36,2.36,0,0,1-1.66.69H29.17A2.38,2.38,0,0,1,27.5,34L24.45,31a7,7,0,0,1-2.07-5V21.56a38.79,38.79,0,0,1,17.24,0V26A7,7,0,0,1,37.56,31ZM30,16.84a2.34,2.34,0,0,1-1.3-2.1V13.37L31,12.78l2.35.59v1.37a2.33,2.33,0,0,1-1.3,2.1l-1,.52Zm11.2,9.89a6.45,6.45,0,0,0,0-.76V22.3a2.34,2.34,0,0,1,0,4.43ZM22,11.18A21.72,21.72,0,0,0,31,9a21.79,21.79,0,0,0,9,2.22,16.92,16.92,0,0,0,4.43,4.7l-2.52,1.51a37.49,37.49,0,0,0-5.27-1.11l-.22,1.56a36.26,36.26,0,0,1,4.81,1v1.51a40.49,40.49,0,0,0-10-1.3l1.57-.79a3.89,3.89,0,0,0,2.17-3.5v-2.6l-3.92-1-3.92,1v2.6a3.89,3.89,0,0,0,2.17,3.5l1.57.79a40.57,40.57,0,0,0-10,1.3V18.82a37,37,0,0,1,4.81-1l-.21-1.55a36.75,36.75,0,0,0-5.28,1.1l-2.52-1.51A16.64,16.64,0,0,0,22,11.18Z"/></svg>