<svg id="Camada_1" data-name="Camada 1" xmlns="http://www.w3.org/2000/svg" viewBox="0 0 62 62" width="50px"><defs><style>.cls-1{fill:#680f39;}</style></defs><path class="cls-1" d="M9.72,37.34h2.44v16.6l-.73,1.49a.79.79,0,0,0,.36,1.12.39.39,0,0,0,.37.13H23.57a.82.82,0,0,0,.79-.81.78.78,0,0,0-.06-.37l-.73-1.56V25.41l1.71,3.91a.62.62,0,0,0,.3.38l3.73,2.23a4.81,4.81,0,0,0,.73,2h0A4.15,4.15,0,0,0,26,38.15v8.39a.82.82,0,0,0,.79.81h2.44v6.47l-.73,1.49a.8.8,0,0,0,.37,1.12.76.76,0,0,0,.36.06H37.3A.86.86,0,0,0,38,55.31l-.73-1.49V47.35h2.44a.81.81,0,0,0,.79-.81v-5.9h1.59V53.82l-.73,1.49a.8.8,0,0,0,.36,1.12.82.82,0,0,0,.37.06h9.76a.82.82,0,0,0,.8-.81.8.8,0,0,0-.06-.37l-.74-1.49V40.64h2.44a.82.82,0,0,0,.8-.81v-.12l-.43-2.43h2a.66.66,0,0,0,.61-.31,1.16,1.16,0,0,0,.25-.68L55.36,20a3.09,3.09,0,0,0-1.16-2.12l-.36-5a6.58,6.58,0,0,0-7.08-6.47A7.13,7.13,0,0,0,40.29,13l-.37,5a3.24,3.24,0,0,0-1.16,2.11L38,26.09l-1.59,1.12a3.9,3.9,0,0,0-5.91-.37l-1.35-.94-2.56-7.33a3.16,3.16,0,0,0-3-2.18H21.13a4.4,4.4,0,0,0,.79-2.48V9.12A2.69,2.69,0,0,0,19.3,6.38l-5.49-.06a1,1,0,0,0-.61.31.82.82,0,0,0-.19.75l.49,2.11c.12.25.18.44.31.69v3.66a4.27,4.27,0,0,0,.79,2.49H13a4.24,4.24,0,0,0-4.08,4.29V36.53a.81.81,0,0,0,.79.81Zm.79-1.68V23.11H12.1V35.73H10.51v-.07ZM22,54.56l.25.44h-3.6V36.53H17.1V55H13.44l.24-.44a.68.68,0,0,0,.07-.37V34.05h8.11V54.19c.12.06.12.19.18.37ZM36.63,34.05h0A6.1,6.1,0,0,0,37.24,33l3.23-2.24-.73,4.73a4.09,4.09,0,0,0-3.11-1.43Zm-.8-2.49a2.47,2.47,0,0,1-2.44,2.49,2.52,2.52,0,0,1-2.5-2.49V29.63a10.41,10.41,0,0,0,4.52,1.06h.3l.12.87ZM27.66,45.8v-5h1.58v5ZM34.19,55V46.61H32.6V55H30.71l.24-.44a.78.78,0,0,0,.06-.37V45H35.9v9.2a.78.78,0,0,0,.06.37l.24.44ZM39,45.8H37.42v-5H39v5Zm0-6.72H37.42V37.41H35.83v5.9H31v-5.9H29.37v1.67H27.78v-.8a2.47,2.47,0,0,1,2.44-2.49h6.53a2.47,2.47,0,0,1,2.44,2.49v.8Zm4.88,15.48a.78.78,0,0,0,.06-.37V40.76h2.44V55H43.58l.31-.44Zm6.65,0,.24.44H48V40.76h2.44V54.19c.06.06.06.19.12.37ZM40.78,39.08l3-20.14h.42l2.2,3.79a.86.86,0,0,0,1.1.31.49.49,0,0,0,.3-.31L50,18.94h.43l3.17,20.14Zm8.85-24.37a2.45,2.45,0,1,1-4.89,0v-1.3L48,10.67l1.58,1.06v3Zm-1.29,4-1.16,2-1.09-1.86a3.55,3.55,0,0,0,2.25-.13Zm7.69,17H54.69l-2.5-16.72h.12a1.6,1.6,0,0,1,1.59,1.43L56,35.66ZM41.88,13.1a5.31,5.31,0,0,1,10.61,0l.31,4.22H50.54a4.4,4.4,0,0,0,.79-2.48V11.42a.8.8,0,0,0-.36-.69L48.47,9a.76.76,0,0,0-1,0L43.4,12.41a.75.75,0,0,0-.3.69v1.68a4.26,4.26,0,0,0,.79,2.48H41.63l.25-4.16ZM39.25,27.15c.12-.13.31-.31.31-.5l.79-6.22A1.64,1.64,0,0,1,41.94,19h.12l-1.4,9.58-3.3,2.24v-1a7.1,7.1,0,0,0-.12-1.12l2-1.55Zm-5.92.18A2.37,2.37,0,0,1,35.59,29h-.12a8.84,8.84,0,0,1-3.91-.93,2.52,2.52,0,0,1,1.77-.75ZM28,27.15l1.53,1.05a3.62,3.62,0,0,0-.31,1.56V30l-2.62-1.56L24.3,22.86l1.77-.93,1.71,4.72a.56.56,0,0,0,.24.5ZM19.3,8a1,1,0,0,1,1,1v.69H15.88a.8.8,0,0,1-.79-.62L14.84,8Zm-3.85,5.91V11.29c.13,0,.31.07.43.07h4.39v2.48a2.47,2.47,0,0,1-2.44,2.49,2.33,2.33,0,0,1-2.38-2.42ZM13,18.13h10.5A1.57,1.57,0,0,1,25,19.25l.43,1.18-1.89.94V19.75H22V32.37H13.81V19.75H12.16v1.68H10.51v-.81A2.49,2.49,0,0,1,13,18.13Z"/><polygon class="cls-1" points="18.38 21.24 20.89 21.24 20.89 25.03 18.38 25.03 18.38 21.24 18.38 21.24 18.38 21.24"/><polygon class="cls-1" points="42.18 30.01 52.19 30.01 52.43 31.56 41.94 31.56 42.18 30.01 42.18 30.01 42.18 30.01"/></svg>