<svg id="Camada_1" data-name="Camada 1" xmlns="http://www.w3.org/2000/svg" viewBox="0 0 62 62" width="50px"><defs><style>.cls-1{fill:#680f39;}</style></defs><path class="cls-1" d="M5.64,54a1.3,1.3,0,0,1-.56-.11A1.48,1.48,0,0,1,4.22,52h0a5,5,0,0,1,2.29-2.78,3.92,3.92,0,0,1,3.24-.15,5.05,5.05,0,0,1,2.53,2.81,1.48,1.48,0,0,1-.92,1.89,1.39,1.39,0,0,1-1.11,0,1.48,1.48,0,0,1-.78-.88,2.1,2.1,0,0,0-.88-1,1,1,0,0,0-.82.09,2.19,2.19,0,0,0-.72,1A1.5,1.5,0,0,1,5.64,54Zm0-1.55,0,.78v-.78Z"/><path class="cls-1" d="M44.76,52.82a4.26,4.26,0,0,1-3.29-1.73,4,4,0,0,1-6.59,0,4.26,4.26,0,0,1-3.29,1.73,1.49,1.49,0,0,1,0-3c.52,0,1.33-.74,1.88-2.36a1.48,1.48,0,0,1,2.8,0c.56,1.64,1.36,2.38,1.88,2.38s1.33-.74,1.88-2.36a1.49,1.49,0,0,1,2.82,0c.56,1.64,1.37,2.38,1.88,2.38s1.33-.74,1.88-2.36a1.49,1.49,0,0,1,2.82,0c.54,1.58,1.3,2.31,1.82,2.35a1.5,1.5,0,1,1-.31,3A4.42,4.42,0,0,1,48,51.08,4.16,4.16,0,0,1,44.76,52.82Zm6.36-1.57Zm-9.68-3.11c0,.06,0,.13-.07.2l.09-.16Zm-6.57,0v0Z"/><path class="cls-1" d="M22.14,54.3h-.22A1.43,1.43,0,0,1,20.69,53,35.66,35.66,0,0,1,22,41.37a33.67,33.67,0,0,0-3,11,1.48,1.48,0,0,1-2.95.11v0c-.12-.83-.83-3.6-2.31-3.6a3.35,3.35,0,0,0-1.93,1.09,1.46,1.46,0,0,1-1.42.48A1.49,1.49,0,0,1,9.26,49.3c-.08-.25-.55-1.53-1.54-1.37a1.52,1.52,0,0,0-1.35,1h0a1.48,1.48,0,1,1-2.9-.58h0A4.48,4.48,0,0,1,7.2,44.92a3.89,3.89,0,0,1,2.78.55,1.5,1.5,0,0,1,.28-1.71,4.27,4.27,0,0,1,3-1.08,4.1,4.1,0,0,1,1.34.23,22.1,22.1,0,0,1,3.46-7.33A19.09,19.09,0,0,1,28.75,28.7V14.16h4.53l0,2.6,0,.58V30.69l.06,0-.06.05,0,8.85H28.73V36.33a11.61,11.61,0,0,0-2.94,3.52,21.93,21.93,0,0,0-2.14,8.45,6.17,6.17,0,0,1,.9-.57,7.14,7.14,0,0,1,5.08-.53A1.45,1.45,0,0,1,30.58,49a1.46,1.46,0,0,1-1.67,1h0l-.08,0h0a4.48,4.48,0,0,0-2.92.36,6.28,6.28,0,0,0-2.33,2.9h0l-.06.14A1.46,1.46,0,0,1,22.14,54.3Zm.08-2v.12a2.89,2.89,0,0,1,.15-.31Zm-4.65-.1v0h0Zm-.37-1.53a10.09,10.09,0,0,1,.3,1.11c0-.13,0-.27.05-.44Zm12-2ZM16.23,46.59a5.21,5.21,0,0,1,.62.54,25.1,25.1,0,0,1,4.21-9.8,15.33,15.33,0,0,1,7.67-5.49v-.06a16.45,16.45,0,0,0-8.37,5.65C18.14,40.19,17,45.24,17,45.52v0A1.5,1.5,0,0,1,16.23,46.59Zm-5.34-.34a3.11,3.11,0,0,1,.23.28c.14-.09.28-.16.42-.24A1.43,1.43,0,0,1,10.89,46.25Zm2.38-.58a1.61,1.61,0,0,0-.95.24l-.09.09a4.32,4.32,0,0,1,1.49-.25A1.25,1.25,0,0,0,13.27,45.67Zm2.19-.42h0Zm.13,0h0Zm-.13-.15,0,0h0ZM30.28,38h1.41l0-6L29.47,34l.81-.5Zm0-8v2.36l1.44-.79V15.72h-1.4Z"/><path class="cls-1" d="M56.06,57.19H52.65V37.1H32.9V16.57H52.65V5.81h3.41ZM54.2,55.64h.31V7.36H54.2V18.12H34.45V35.55H54.2Z"/></svg>