<svg id="Camada_1" data-name="Camada 1" xmlns="http://www.w3.org/2000/svg" viewBox="0 0 62 62" width="50px"><defs><style>.cls-1{fill:#680f39;}</style></defs><path class="cls-1" d="M55.38,29H38.78a.8.8,0,0,0-.82.83V56a.8.8,0,0,0,.82.83h16.6A.8.8,0,0,0,56.2,56V29.82a.8.8,0,0,0-.82-.83ZM43.77,55.12V50.88H50.4v4.24Zm10.79,0H52.1V50.05a.8.8,0,0,0-.82-.84H43a.8.8,0,0,0-.82.84v5.07H39.67V30.66h15V55.12Z"/><path class="cls-1" d="M42.13,39.07h3.35a.8.8,0,0,0,.82-.84V33.16a.79.79,0,0,0-.82-.83H42.13a.79.79,0,0,0-.82.83v5.07a.8.8,0,0,0,.82.84Zm.82-5h1.64v3.41H43V34.06Z"/><path class="cls-1" d="M48.76,39.07H52.1a.8.8,0,0,0,.82-.84V33.16a.79.79,0,0,0-.82-.83H48.76a.79.79,0,0,0-.82.83v5.07a.8.8,0,0,0,.82.84Zm.82-5h1.64v3.41H49.58V34.06Z"/><path class="cls-1" d="M42.13,47.55h3.35a.8.8,0,0,0,.82-.84V41.64a.79.79,0,0,0-.82-.83H42.13a.79.79,0,0,0-.82.83v5.07a.84.84,0,0,0,.82.84ZM43,42.47h1.64v3.41H43V42.47Z"/><path class="cls-1" d="M48.76,47.55H52.1a.8.8,0,0,0,.82-.84V41.64a.79.79,0,0,0-.82-.83H48.76a.79.79,0,0,0-.82.83v5.07a.84.84,0,0,0,.82.84Zm.82-5.08h1.64v3.41H49.58V42.47Z"/><path class="cls-1" d="M7.29,56.79H35.5a.8.8,0,0,0,.82-.83V52.55a.79.79,0,0,0-.82-.83H23.07v-32H46.3v2.64a2.54,2.54,0,0,0-1.64,2.36,2.46,2.46,0,1,0,4.92,0H47.94a.82.82,0,1,1-.82-.83.8.8,0,0,0,.82-.84v-3.4H50.4V18H47.25L41,15.51h6.08V13.84H36.87L18.36,6.26a.83.83,0,0,0-1,.28l-5.53,7.23H6.47v1.67H9.82V18H6.47v1.67h5v32H7.29a.79.79,0,0,0-.82.83V56a.8.8,0,0,0,.82.83ZM19.72,15.51V17.1l-1.84-1.59ZM22.25,18h-.82v-1.6L23.28,18ZM17.6,46.71h3.83V50.6L17.6,46.71Zm2.6-15.22H16.38V27.6l3.82,3.89Zm0,6.74H16.38V34.34l3.82,3.89Zm0,6.75H16.38v-3.9L20.2,45Zm-2.6-5h3.83v3.89L17.6,40Zm0-6.81h3.83v3.89L17.6,33.16Zm0-6.74h3.83v3.89L17.6,26.42Zm-1.16-1.67V20.86l3.83,3.89Zm16.4-9.24h1.84V17.1l-1.84-1.59Zm.34,2.5H31.34v-1.6L33.18,18ZM29.7,17l-1.85-1.6H29.7V17Zm-1.44,1H26.42v-1.6L28.26,18Zm-3.55-1-1.84-1.53h1.84V17Zm-6.42,1H16.44v-1.6L18.29,18Zm-3.55-1-1.85-1.6h1.85V17Zm1.7,30.85,3.83,3.9H16.44v-3.9Zm5-24.32L17.6,19.68h3.83v3.89ZM42.81,18H36.32v-2.5h.28L42.81,18ZM18.9,13.77V8.28l13.53,5.49ZM17.26,9.53v4.31H14l3.28-4.31Zm-5.8,6.88L13.3,18H11.46v-1.6Zm1.64,3.27h1.64v32H13.1v-32Zm-5,33.77H34.62v1.67H8.11V53.45Z"/></svg>