<svg id="Camada_1" data-name="Camada 1" xmlns="http://www.w3.org/2000/svg" viewBox="0 0 20 20"><defs><style>.cls-1{fill:#a9a9aa;}</style></defs><path class="cls-1" d="M3.72,16.67h13a2,2,0,0,0,2-2V6a2,2,0,0,0-2-2H3.72a2,2,0,0,0-2,2v8.6A2,2,0,0,0,3.72,16.67Zm14.15-2a.65.65,0,0,1,0,.19l-4.31-4.33L13,11.1l4.48,4.47a1.17,1.17,0,0,1-.75.27h-13A1.14,1.14,0,0,1,3,15.57L7.45,11.1,9,12.67a1.66,1.66,0,0,0,1.18.48,1.68,1.68,0,0,0,1.16-.48l6.5-6.5ZM3.72,4.86h13a1.19,1.19,0,0,1,.91.42l-6.79,6.81a.84.84,0,0,1-1.16,0L2.83,5.28A1.18,1.18,0,0,1,3.72,4.86ZM2.54,6.17,6.87,10.5,2.56,14.83c0-.07,0-.13,0-.19Z"/><path class="cls-1" d="M16.67,16.78H3.73A2.13,2.13,0,0,1,1.6,14.64V6A2.15,2.15,0,0,1,3.73,3.92H16.67A2.13,2.13,0,0,1,18.8,6v8.62A2.13,2.13,0,0,1,16.67,16.78ZM3.73,4.15A1.92,1.92,0,0,0,1.83,6v8.6a1.9,1.9,0,0,0,1.9,1.91H16.67a1.89,1.89,0,0,0,1.9-1.89V6a1.9,1.9,0,0,0-1.9-1.89ZM16.69,16h-13a1.26,1.26,0,0,1-.82-.3l-.1-.08,4.64-4.65,1.66,1.66a1.57,1.57,0,0,0,2.18,0L18,5.89v8.77a.58.58,0,0,1,0,.22l-.06.18-.13-.13-4.23-4.25-.41.42,4.48,4.48-.1.08A1.26,1.26,0,0,1,16.69,16Zm-13.53-.4a1,1,0,0,0,.57.17h13a1,1,0,0,0,.57-.17L13,11.25l-1.5,1.5a1.78,1.78,0,0,1-1.24.51A1.75,1.75,0,0,1,9,12.75l-1.5-1.49ZM13.7,10.51l4.06,4.08V6.44ZM2.45,15.1v-.27a.22.22,0,0,0,0-.08.41.41,0,0,1,0-.11V5.89L7,10.5Zm.21-8.66v8.13L6.71,10.5Zm7.56,6a1,1,0,0,1-.67-.26L2.68,5.28l.07-.08a1.28,1.28,0,0,1,1-.45H16.67a1.32,1.32,0,0,1,1,.45l.07.08-.07.08-6.8,6.81A.91.91,0,0,1,10.22,12.44ZM3,5.27,9.71,12a.72.72,0,0,0,1,0l6.71-6.73a1.08,1.08,0,0,0-.75-.3H3.73A1.11,1.11,0,0,0,3,5.27Z"/></svg>