<svg id="Camada_1" data-name="Camada 1" xmlns="http://www.w3.org/2000/svg" viewBox="0 0 101.11 101.11"><defs><style>.cls-1{fill:#680f39;}</style></defs><title>ícones</title><path class="cls-1" d="M35.07,37.25A12.93,12.93,0,1,0,22.14,24.32,13,13,0,0,0,35.07,37.25Zm0-21.53a8.6,8.6,0,1,1-8.6,8.6A8.61,8.61,0,0,1,35.07,15.72Z"/><path class="cls-1" d="M88.2,60.74l-3.82-1.13a17,17,0,0,0-.82-2l1.91-3.52a2.18,2.18,0,0,0-.37-2.57l-4.4-4.39a2.15,2.15,0,0,0-2.56-.37L74.62,48.7c-.63-.31-1.29-.57-2-.82l-1.14-3.82a2.17,2.17,0,0,0-2.07-1.56H63.24a2.17,2.17,0,0,0-2.07,1.56L60,47.88a17.64,17.64,0,0,0-2,.82l-.31-.17a8.71,8.71,0,0,0-4.94-5,48.37,48.37,0,0,0-10.55-2.82A2.14,2.14,0,0,0,40,41.87L35,52.12,30,41.89a2.19,2.19,0,0,0-2.28-1.2A48.18,48.18,0,0,0,17.28,43.5a8.72,8.72,0,0,0-5.54,8.08V69.21a2.16,2.16,0,0,0,2.16,2.16H45.21l3,.9a19.87,19.87,0,0,0,.81,2l-1.9,3.51a2.17,2.17,0,0,0,.37,2.56l4.38,4.38a2.15,2.15,0,0,0,2.56.37L58,83.16c.63.3,1.29.56,2,.81l1.13,3.82a2.17,2.17,0,0,0,2.07,1.55h6.3a2.18,2.18,0,0,0,2.08-1.56L72.64,84a17.79,17.79,0,0,0,2-.82l3.51,1.91a2.17,2.17,0,0,0,2.57-.37l4.39-4.39a2.17,2.17,0,0,0,.37-2.57l-1.9-3.52c.3-.63.56-1.29.81-2l3.82-1.13A2.17,2.17,0,0,0,89.74,69v-6.2A2.15,2.15,0,0,0,88.2,60.74ZM16.3,50.18a4.34,4.34,0,0,1,2.51-2.59,44.8,44.8,0,0,1,8-2.29L33,58A2.16,2.16,0,0,0,35,59.19h0a2.19,2.19,0,0,0,2-1.2l6.23-12.7a43.27,43.27,0,0,1,8.05,2.3,1.16,1.16,0,0,1,.24.14l-3.88,3.85a2.14,2.14,0,0,0-.37,2.55l1.9,3.49a21,21,0,0,0-.81,2L44.46,60.7a2.16,2.16,0,0,0-1.56,2.06v4.31H16V63.23h0m0-4.3V54.48m69.41,13-3.38,1A2.15,2.15,0,0,0,80.61,70a15.44,15.44,0,0,1-1.34,3.25,2.11,2.11,0,0,0,0,2.08l1.67,3.1-2.1,2.11-3.1-1.68a2.16,2.16,0,0,0-2.09,0,14.51,14.51,0,0,1-3.25,1.33,2.16,2.16,0,0,0-1.49,1.46l-1,3.38h-3l-1-3.38a2.17,2.17,0,0,0-1.48-1.46,14.51,14.51,0,0,1-3.25-1.33,2.16,2.16,0,0,0-2.09,0L54,80.53l-2.1-2.11,1.67-3.1a2.11,2.11,0,0,0,0-2.08A15,15,0,0,1,52.2,70a2.12,2.12,0,0,0-1.47-1.49l-3.37-1v-3l3.37-1A2.22,2.22,0,0,0,52.2,62a15,15,0,0,1,1.34-3.25,2.13,2.13,0,0,0,0-2.09l-1.67-3.1,2.1-2.1,3.1,1.67a2.16,2.16,0,0,0,2.09,0,15,15,0,0,1,3.25-1.33,2.13,2.13,0,0,0,1.48-1.46l1-3.37h3l1,3.37a2.2,2.2,0,0,0,1.49,1.46,15,15,0,0,1,3.25,1.33,2.16,2.16,0,0,0,2.09,0l3.1-1.67,2.1,2.1-1.67,3.1a2.13,2.13,0,0,0,0,2.09A15,15,0,0,1,80.61,62a2.15,2.15,0,0,0,1.45,1.49l3.38,1Z"/><path class="cls-1" d="M66.38,56.65A9.34,9.34,0,1,0,75.71,66,9.36,9.36,0,0,0,66.38,56.65Zm0,14.33a5,5,0,1,1,5-5A5,5,0,0,1,66.38,71Z"/></svg>