<svg id="Camada_1" data-name="Camada 1" xmlns="http://www.w3.org/2000/svg" viewBox="0 0 101.11 101.11"><defs><style>.cls-1{fill:#680f39;}</style></defs><title>ícones</title><path class="cls-1" d="M30.77,64.65H9.25a1.8,1.8,0,0,1-1.8-1.82A23.35,23.35,0,0,1,30.74,39.54a1.81,1.81,0,0,1,1.82,1.8V62.86A1.79,1.79,0,0,1,30.77,64.65ZM11.12,61.07H29V43.21A19.76,19.76,0,0,0,11.12,61.07Z"/><path class="cls-1" d="M38.17,93.35A23.36,23.36,0,0,1,14.85,70.09a1.82,1.82,0,0,1,1.8-1.85h19.5V48.51h3.59V70a1.81,1.81,0,0,1-1.8,1.8H18.29A19.73,19.73,0,0,0,57.67,70h3.82A23.36,23.36,0,0,1,38.17,93.35Z"/><rect class="cls-1" x="41.76" y="67.28" width="3.59" height="15.22" transform="translate(-40.2 52.73) rotate(-45)"/><path class="cls-1" d="M59.46,66.45a1.81,1.81,0,0,1-1.79-1.8V57.48h-9a5.38,5.38,0,0,1-5.38-5.38V12.64A5.38,5.38,0,0,1,48.7,7.26H88.16a5.38,5.38,0,0,1,5.38,5.38V52.1a5.38,5.38,0,0,1-5.38,5.38h-19l-8.44,8.44A1.77,1.77,0,0,1,59.46,66.45ZM48.7,10.85a1.79,1.79,0,0,0-1.79,1.79V52.1a1.79,1.79,0,0,0,1.79,1.79H59.46a1.79,1.79,0,0,1,1.8,1.79v4.64l5.9-5.9a1.8,1.8,0,0,1,1.27-.53H88.16A1.79,1.79,0,0,0,90,52.1V12.64a1.79,1.79,0,0,0-1.79-1.79Z"/><path class="cls-1" d="M70.23,27H66.9a5.56,5.56,0,0,1-5.55-4.38,5.38,5.38,0,0,1,5.29-6.38h3.81a5.38,5.38,0,0,1,5.38,5.38H72.25a1.81,1.81,0,0,0-1.8-1.8H66.64a1.8,1.8,0,0,0,0,3.59h3.59Z"/><path class="cls-1" d="M70.23,34.16H66.87a5.38,5.38,0,0,1-5.38-5.38h3.58a1.81,1.81,0,0,0,1.8,1.8h3.36a1.8,1.8,0,0,0,0-3.59H66.64V23.4H70a5.57,5.57,0,0,1,5.56,4.38A5.39,5.39,0,0,1,70.23,34.16Z"/><rect class="cls-1" x="66.64" y="14.43" width="3.59" height="3.59"/><rect class="cls-1" x="66.64" y="32.37" width="3.59" height="3.59"/><rect class="cls-1" x="52.29" y="39.54" width="32.28" height="3.59"/><rect class="cls-1" x="52.29" y="46.72" width="32.28" height="3.59"/></svg>