<svg id="Camada_1" data-name="Camada 1" xmlns="http://www.w3.org/2000/svg" viewBox="0 0 101.11 101.11"><defs><style>.cls-1{fill:#680f39;}</style></defs><title>ícones</title><path class="cls-1" d="M93.72,41.9a11.15,11.15,0,0,0-7-9,10.55,10.55,0,0,0-7.27-18.22,10.73,10.73,0,0,0-9.93,6.81,11.06,11.06,0,0,0-4.33-.92,10.73,10.73,0,0,0-9.93,6.81,10.63,10.63,0,0,0-8.65,0,10.49,10.49,0,0,0-9.93-6.9,11,11,0,0,0-4.32.92,10.61,10.61,0,0,0-20.51,3.77,10.93,10.93,0,0,0,3.21,7.63,11.38,11.38,0,0,0-7,9l-.92,7.54a4,4,0,0,0,3,4.23,24.58,24.58,0,0,0,2.85.46L14,70.14a4.6,4.6,0,0,0,4.51,4.32h8A3,3,0,0,0,28,74.09l.1,1.93a4.52,4.52,0,0,0,4.5,4.24h8A4.39,4.39,0,0,0,42.21,80l.09,1.93a4.53,4.53,0,0,0,4.51,4.23h8a4.47,4.47,0,0,0,4.51-4.23L59.41,80a4.37,4.37,0,0,0,1.56.28h8A4.46,4.46,0,0,0,73.48,76l.09-1.93a4.18,4.18,0,0,0,1.57.28h8a4.55,4.55,0,0,0,4.51-4.32L88.57,54a24.62,24.62,0,0,0,2.75-.46,3.69,3.69,0,0,0,3-4.14ZM79.37,18.45a6.81,6.81,0,0,1,0,13.61h-.19A6.51,6.51,0,0,1,75.69,31a10.28,10.28,0,0,0-3-7.26A6.91,6.91,0,0,1,79.37,18.45ZM65.2,24.33A6.88,6.88,0,0,1,72,31.23,6.8,6.8,0,0,1,65.2,38a6.1,6.1,0,0,1-3.58-1.11,10.28,10.28,0,0,0-3-7.26A6.8,6.8,0,0,1,65.2,24.33ZM57.75,37A6.81,6.81,0,1,1,51,30.22,6.78,6.78,0,0,1,57.75,37ZM43.4,29.67a10.66,10.66,0,0,0-3,7.26A7.16,7.16,0,0,1,36.69,38a6.86,6.86,0,1,1,6.71-8.37ZM22.52,18.45a6.81,6.81,0,0,1,6.63,5.33,10.7,10.7,0,0,0-3,7.27,6.65,6.65,0,0,1-3.59,1.1h-.09a6.85,6.85,0,0,1-6.8-6.81A6.94,6.94,0,0,1,22.52,18.45ZM27.22,70a.8.8,0,0,1-.74.74h-8a.73.73,0,0,1-.74-.74l-1-17.66a1.86,1.86,0,0,0-1.66-1.74,29.13,29.13,0,0,1-4-.74L12,42.27a7.44,7.44,0,0,1,7.36-6.53h6.43a10.28,10.28,0,0,1,1.66.18,12.09,12.09,0,0,0,2,2.76,11.33,11.33,0,0,0-7,9l-.92,7.55a3.69,3.69,0,0,0,2.95,4.14c.92.18,1.84.36,2.76.46l.27,4.69Zm14.25,6a.79.79,0,0,1-.73.74h-8a.73.73,0,0,1-.73-.74L31,58.27a1.89,1.89,0,0,0-1.66-1.75,27.85,27.85,0,0,1-4-.73l.92-7.54a7.35,7.35,0,0,1,7.27-6.44h6.44a10.28,10.28,0,0,1,1.65.18,10,10,0,0,0,2,2.67,11.32,11.32,0,0,0-7,9l-.92,7.55a3.67,3.67,0,0,0,2.94,4.13l2.85.56.28,4.6ZM56.74,64.16l-1,17.66a.79.79,0,0,1-.74.73H47a.71.71,0,0,1-.73-.73l-1-17.66a1.86,1.86,0,0,0-1.65-1.75,29.27,29.27,0,0,1-4.05-.73l.92-7.55a7.45,7.45,0,0,1,7.36-6.53h6.44a7.37,7.37,0,0,1,7.36,6.53h0l.92,7.55c-1.29.27-2.67.46-4,.64A2,2,0,0,0,56.74,64.16Zm14.17-5.89-1,17.66a.79.79,0,0,1-.73.74h-8a.73.73,0,0,1-.74-.74l-.28-5.33.28-4.6c.92-.19,1.93-.28,2.85-.55a3.68,3.68,0,0,0,2.94-4.14l-.92-7.54a11.32,11.32,0,0,0-7-9.11,9.78,9.78,0,0,0,2-2.67A10.51,10.51,0,0,1,62,41.72h6.44a7.37,7.37,0,0,1,7.36,6.43l.92,7.55c-1.29.27-2.67.46-4,.73A2,2,0,0,0,70.91,58.27Zm15.91-7.63a2,2,0,0,0-1.66,1.75l-1,17.66a.79.79,0,0,1-.74.73h-8a.71.71,0,0,1-.73-.73L74.4,64.8l.28-4.69a22.84,22.84,0,0,0,2.76-.55,3.68,3.68,0,0,0,2.94-4.14l-.92-7.54a11.18,11.18,0,0,0-7-9,9.55,9.55,0,0,0,2-2.66,10.66,10.66,0,0,1,1.66-.28h6.44a7.27,7.27,0,0,1,7.26,6.53L90.77,50C89.58,50.18,88.2,50.45,86.82,50.64Z"/></svg>