<svg id="Camada_1" data-name="Camada 1" xmlns="http://www.w3.org/2000/svg" viewBox="0 0 101.11 101.11"><defs><style>.cls-1,.cls-2{fill:none;stroke:#680f39;stroke-linecap:round;stroke-linejoin:round;}.cls-1{stroke-width:2.72px;}.cls-2{stroke-width:0.08px;}.cls-3{fill:#680f39;}</style></defs><title>ícones</title><path class="cls-1" d="M29,10.14c.25.21.31.36.31.52s-.06.3-.06.53c0,.47.22.49.43.87a.31.31,0,0,1,.05.1.08.08,0,0,1,0,0,.31.31,0,0,1,0,.08.54.54,0,0,1-.09.25v0a.24.24,0,0,0,0,.09.2.2,0,0,0,0,.07c0,.2.34.29.64.3a.94.94,0,0,0,.43-.09l.11,0c.17,0,.22.31.22.58h0a.45.45,0,0,1,0,.11c0,.15-.13.18-.28.2a1.2,1.2,0,0,0-.24.06l-.06,0,0,0c0,.1-.08.13-.19.13l-.33,0h-.05c-.31,0-.36.44-.37.78s-.41.24-.51.5c0,.1-.06.13-.07.13s-.09-.08-.21-.15a.08.08,0,0,0-.07,0c-.19,0-.4.39-.68.43s-.23.17-.55.24c-.05,0-.06,0-.09.06l0,0-.08.06s0,0,0,0c-.18.14-.09.47-.38.5s-.16.47-.61.46c-.17,0-.2-.05-.2-.13s0-.2,0-.31a.26.26,0,0,0-.07-.2.15.15,0,0,0-.08,0h0l0,0c-.21,0-.42.33-.82.5l-.14.05-.09,0-.15,0a1.15,1.15,0,0,1-.76-.42c-.32-.32-.53-.56-.89-.56l-.1,0-.05,0a.27.27,0,0,1-.08-.07l0,0a.53.53,0,0,1-.06-.26,1.32,1.32,0,0,1,.05-.33,1.18,1.18,0,0,0,0-.27c0-.3-.1-.59-.33-.6s-.21-.57-.32-.69,0,0-.05,0-.3.38-.57.43-.31.16-.48.32a.12.12,0,0,1-.1,0c-.17,0-.44-.17-.55-.17h0s0,0,0,0,.26.21.26.33,0,0,0,0,0,0,0,0l0,0h0a2.39,2.39,0,0,1-.49,0c-.71,0-1.92-.11-2.45-.11-.37,0-.57,0-.67.14s0,0,0,.06a.25.25,0,0,0,0,.09,1.63,1.63,0,0,0,0,.44c0,.29,0,.45.16.53l.09,0,.07,0a2.42,2.42,0,0,0,.53,0c.58,0,.76.63.76.95a.46.46,0,0,1,0,.14c0,.08-.16.12-.32.11a1.44,1.44,0,0,1-.48-.08l-.1,0a5.55,5.55,0,0,0-.8.23c-.3.09-.36.37-.36.7s0,.45,0,.66c0,.56.41.58.72.81s.27.33.27.39v0c0,.44.11.58.23.68a.48.48,0,0,1,.22.45V21c-.05.71-.78,4.2-.91,5.57A5.18,5.18,0,0,1,16.67,28a1.07,1.07,0,0,1-.18.33,1.18,1.18,0,0,1-.29,0c-.32,0-.41-.25-.63-.36h0a.28.28,0,0,0-.11-.05l-.22,0c-.29,0-.51.11-.57.32s-1.11.33-1.91.45a5.9,5.9,0,0,0-2.28,1.24c-.53.42-.17,1.14-.65,1.61a.85.85,0,0,0-.31.63.4.4,0,0,0,0,.15h0a1.46,1.46,0,0,0,.12.37.39.39,0,0,1,0,.18.32.32,0,0,1,0,.14v0a.33.33,0,0,1-.1.14h0a1.32,1.32,0,0,1-.43.24,1.8,1.8,0,0,0-.46.23l0,0a.57.57,0,0,0-.15.16.36.36,0,0,0-.07.1.75.75,0,0,0-.05.16,1.24,1.24,0,0,0,0,.22s0,.06,0,.11v.2h0v0c0,.32-.12.37-.25.41s-.26.06-.26.28c0,.47.68.44.78,1.35.06.59.78,1.12,1.13,1.48a.82.82,0,0,1,.31.55v0a.75.75,0,0,1-.19.44.65.65,0,0,0-.14.25l0,0h0c.06.07.27,0,.56.07.49.07,1.12-.17,1.27.7a.78.78,0,0,0,.24.45s0,0,0,0a1,1,0,0,0,.17.1h0a1.4,1.4,0,0,0,.47.08c.28,0,.59,0,.88-.07.75-.06,1.45-1.28,1.79-1.27h0c.07,0,.1.13.1.33,0,.59-.28,1.84-.28,2.53v.16a1.08,1.08,0,0,0,.15.46v0a.56.56,0,0,0,.46.25.71.71,0,0,0,.41-.13c.32-.21.54-.14,1.38-.21h.39a2.57,2.57,0,0,1,1.41.34.51.51,0,0,0,.29.08h0a.83.83,0,0,0,.7-.45c.15-.33.18-.54.72-.54s1-.64,1.47-.75.9-.63,1.27-.9h0a1.74,1.74,0,0,1,1.08-.23h.37c.65,0,.87-.29,1.23-.28.12,0,.21.09.27.24a1.47,1.47,0,0,1,.09.55,1.85,1.85,0,0,1-.08.54,2.28,2.28,0,0,0-.14.71.93.93,0,0,0,.13.5,1.27,1.27,0,0,1,.11.63c0,.22,0,.45,0,.65,0,.41.42.72.54,1.1.07.19.36.37.64.52s.53.28.53.34.22.38.22.38a1.17,1.17,0,0,0,.53.14,1.75,1.75,0,0,0,.24,0h0A3.15,3.15,0,0,1,30,46.4a.73.73,0,0,1,.47.19,1,1,0,0,0,.67.26h.25c.08,0,.12,0,.13.09a2.11,2.11,0,0,0,1.57,1c.7.06.53.22.92.62a2,2,0,0,0,1.29.3h.62c.36,0,.55.26.8.42a.76.76,0,0,0,.18.09c.22.06.36.14.42.33v0a.75.75,0,0,1,0,.23,1.8,1.8,0,0,1,0,.22c0,.07,0,.14,0,.2a2.41,2.41,0,0,0,.33,1.05,1.65,1.65,0,0,1,.1.62c0,.29-.07.52-.26.52s-.27.07-.27.16.08.21.25.3.34.72.34,1.25c0,.12,0,.23,0,.32a.53.53,0,0,0,.09.36.55.55,0,0,0,.43.12c.6,0,2.84.08,3.25.08a1,1,0,0,1,.33,0s0,0,0,0h0c0,.63-.32.25-.32,1.2a1.46,1.46,0,0,0,1.21,1.49c.49.14.49.43.57.82h0a1.16,1.16,0,0,0,0,.18c.09.37.27.56.27.67s0,0,0,0l0,0,0,0c-.22.11-.33,1.18-.38,1.57s-.93,1.28-.93,1.65.56.26.55.58v0a.25.25,0,0,1-.24.24.48.48,0,0,0-.18.06s0,0,0,.06,0,0,0,0a2,2,0,0,0,.33,1c.15.08.25.32.25,1.14a15.27,15.27,0,0,1-.33,1.9c0,.38,1.42.52,1.86.53H45a.8.8,0,0,0,.59-.18.45.45,0,0,1,.3-.17c.11,0,.22.08.38.23s1.06.19,1.1.5.35.36.35,1,.26,1.1.32,1.91a.89.89,0,0,0,.15.45h0a.49.49,0,0,0,.12.13h0a.55.55,0,0,0,.31.1,2,2,0,0,0,.75-.19,1.32,1.32,0,0,1,.46-.1c.34,0,.49.24.76.41a.3.3,0,0,1,.13.18h0a.66.66,0,0,1,0,.21,6.21,6.21,0,0,1-.26,1.21c-.13.52,0,1-.33,1.32a.6.6,0,0,0-.21.36.08.08,0,0,0,.08.09.25.25,0,0,0,.15-.09.23.23,0,0,1,.13-.07c.09,0,.17.14.39.14H51a.91.91,0,0,1,.77.55,3.68,3.68,0,0,0,.25,1,1,1,0,0,1,.05.16h0a.66.66,0,0,1,0,.14c0,.22-.07.49-.11.94s0,.93-.22,1h0l-.1,0c-.33,0-.8.53-1.44.63s-.51.51-1.42,1a20.07,20.07,0,0,0-3.61,3.47c-.62.75-1.62,1.49-1.62,1.7a0,0,0,0,0,0,0,.12.12,0,0,0,.09,0,11.57,11.57,0,0,0,1.13-.4h.07c.49,0,1.68,1.22,1.93,1.47s.09.61.22.75a.16.16,0,0,0,.09,0c.14,0,.32-.21.49-.48,0-.08.09-.11.14-.11.2,0,.5.41.78.8.12.17.22.22.3.22s.15-.06.21-.06.1,0,.16.16.34.24.54.24h.07c.18,0,.33,0,.38.16a1.49,1.49,0,0,0,.91,1,3.44,3.44,0,0,1,.89.49,1.58,1.58,0,0,0,1.21,1.25c.12,0,.16.11.16.18a.2.2,0,0,1-.13.18,4.15,4.15,0,0,0-.71.67,1.36,1.36,0,0,0-.23.78c0,.24.08.46.32.46l.18,0A3.89,3.89,0,0,0,54.65,92c.24-.86.76-1.38,2.21-2.26A7.35,7.35,0,0,0,59.72,86a6.54,6.54,0,0,1,.92-1.54h0A6.75,6.75,0,0,1,62,83.2c.7-.49.6-.38.91-1.34a2.12,2.12,0,0,0,.1-.52c0-.26-.12-.32-.12-.7a3.16,3.16,0,0,1,.06-.52,2.39,2.39,0,0,0,0-.44,4.37,4.37,0,0,0-.25-1.08.29.29,0,0,1,.1-.2,1.18,1.18,0,0,0,.34-.79c0-.09,0-.15,0-.17s-.21-.07-.21-.26A.55.55,0,0,1,63,77a2.51,2.51,0,0,1,.33-.6,5.54,5.54,0,0,1,.84-1h0c.43-.41.92-.79,1.51-1.38a5.39,5.39,0,0,1,2.44-1.5c.22,0,.27-.14.27-.22a.75.75,0,0,0,0-.11,1,1,0,0,1,.62-.17c.3,0,.61.07.83.07s.22-.1.23-.21,0-.24.18-.3c.32-.14,1.06-.46,1.14-.68a.89.89,0,0,1,.59-.54c.12,0,.16-.09.16-.14s0-.11,0-.16,0-.09.1-.13a.58.58,0,0,1,.2,0,.22.22,0,0,1,.16.07.24.24,0,0,1,.06.18.19.19,0,0,0,.12.19h.06a.41.41,0,0,0,.25-.12.42.42,0,0,1,.33-.11.7.7,0,0,1,.46.13.48.48,0,0,0,.31.15h0a.25.25,0,0,0,.16-.06.09.09,0,0,1,.08,0c.08,0,.18.09.29.1a.19.19,0,0,0,.13-.06.17.17,0,0,0,.06-.11c0-.1-.17-.13-.17-.34a.17.17,0,0,1,0-.1.06.06,0,0,1,0,0,.26.26,0,0,1,.09-.09h0a.47.47,0,0,1,.28-.09.35.35,0,0,1,.22.08s.06.08.06.1-.21.1-.21.33.37.27.85.27a6.92,6.92,0,0,0,1-.08c.42-.07.49-.14.49-.29s0-.11,0-.18a1.12,1.12,0,0,1,.18-.58c.47-.77,1.64-.6,2-1.12a.4.4,0,0,0,.09-.23c0-.18-.22-.2-.22-.55a1.75,1.75,0,0,1,.11-.54,1.69,1.69,0,0,1,.11-.27h0c.39-.9,1.06-1.24,1.6-2.32s.78-1.05,1-1.65a2.07,2.07,0,0,0,.13-.83c0-.39,0-.82,0-1.18a2.54,2.54,0,0,1,0-.41.77.77,0,0,1,.06-.23h0c.15-.45.46-.64.82-1a.75.75,0,0,0,.28-.58c0-.16,0-.34,0-.58A7.85,7.85,0,0,1,84,55.42a2.94,2.94,0,0,0,.23-1.11,3.71,3.71,0,0,0-.12-.89A8.64,8.64,0,0,1,84,51.76c0-.35,0-.66,0-.86.07-.5.2-1.8.2-2.18a1,1,0,0,1,0-.34.11.11,0,0,1,0-.05h0l.12-.07.09,0c.29-.2.38-.52.53-.51a.14.14,0,0,1,.1,0,.23.23,0,0,0,.11,0c.35,0,1-.77,1.48-1.53.23-.34.52-1,.84-1.58h0c.46-.91,1-1.87,1.47-2.07a2.83,2.83,0,0,0,.76-.49h0a17.88,17.88,0,0,0,1.42-1.72,15.53,15.53,0,0,0,1.25-1.74,6,6,0,0,0,.78-2.39c0-.25,0-.48,0-.71h0a8.15,8.15,0,0,0-.38-2.31h0c-.13-.47-.27-.93-.37-1.39-.27-1.27-.68-1.75-1.65-1.75h-.17l-.71,0c-.64,0-1-.07-1.13-.2s-.68,0-.89-.41l-.07-.11h0a.52.52,0,0,0-.54-.24h0c-.27,0-1-1-1.6-1.58a38.73,38.73,0,0,0-3.41-2.37,1.1,1.1,0,0,0-.24-.09l-.07,0L81.69,25h0l-.26,0c-.71,0-1.59.18-2.28.18h0a1.41,1.41,0,0,1-1.1-.33h0a.37.37,0,0,0-.18-.08,5.64,5.64,0,0,1-2-.32,3,3,0,0,0-1.19-.54h-.13c-.18,0-.18-.19-.41-.19a.55.55,0,0,0-.5.37c-.07.14-.23.32-.37.32s-.11,0-.16-.13a.22.22,0,0,0-.22-.12l-.29,0c-.13,0-.23-.05-.23-.3,0-.61-.43-1.2-.74-1.2-.13,0-.14-.05-.14-.15v-.06a.53.53,0,0,0-.06-.23v0a.53.53,0,0,0-.06-.1A.48.48,0,0,0,71,22a.29.29,0,0,0-.32.26.34.34,0,0,1-.31.29c-.07,0-.13-.05-.13-.18a.76.76,0,0,0-.26-.63h0a.25.25,0,0,0-.11,0h-.06a.25.25,0,0,1-.12,0,2.45,2.45,0,0,1-.93-.38l-.06,0h0c-.6-.3-2.06-.91-2.64-1.13a.68.68,0,0,0-.17,0h0l-.09,0a.42.42,0,0,0-.13,0h0c-.08,0-.13.07-.16.06s-.05,0-.09-.1-.54-.2-1-.24-.82-.09-.84-.2v0s0,0,0,0a.54.54,0,0,0,0-.19c0-.2-.24-.26-.71-.26a2,2,0,0,1-1.6-.88.67.67,0,0,0-.74-.47h-.2l-.15,0-.06,0-.1-.07,0-.06a.57.57,0,0,1-.08-.31,1.41,1.41,0,0,1,.07-.42h0a1.42,1.42,0,0,1,0-.16,4.15,4.15,0,0,0,.34-1.4,2.4,2.4,0,0,0,0-.37c-.11-.64-.79-.36-.84-.85a.59.59,0,0,0-.06-.16h0a.54.54,0,0,0-.52-.27h-.21c-.23,0-.21-.75-.57-1.36s-.26-1.11-.33-2.27a2.47,2.47,0,0,0-.06-.29.89.89,0,0,0,0-.14,1,1,0,0,0-.09-.26l0-.09a1.09,1.09,0,0,0-.29-.36h0a.55.55,0,0,0-.14-.09l-.06,0-.1,0a.21.21,0,0,0-.22.19c-.1.42-.59.78-1.11,1.64A24.35,24.35,0,0,0,54.56,13a1.29,1.29,0,0,1-1.17.59,1.15,1.15,0,0,1-.47-.09,1.68,1.68,0,0,0-.77-.27.93.93,0,0,0-.37.1h0a1.36,1.36,0,0,0-.2.11.93.93,0,0,1-.57.19,1.4,1.4,0,0,1-1.07-.55.81.81,0,0,0-.45-.29h0a1.35,1.35,0,0,0-.28,0,.7.7,0,0,0-.58.22.45.45,0,0,1-.42.21,2.47,2.47,0,0,1-.61-.11,1.54,1.54,0,0,0-.38-.07c-.2,0-.2.12-.24.26v0c0,.18.36.44.36.72a.29.29,0,0,1,0,.16.44.44,0,0,1-.41.26.71.71,0,0,1-.41-.15,1.14,1.14,0,0,0-.59-.18.51.51,0,0,0-.42.17.14.14,0,0,1-.13.08c-.18,0-.48-.31-.85-.31s-.51.35-.57.54-.52.26-.81.26l-.09,0h0c-.16.07-.19.26-.52.26h-.17a2.83,2.83,0,0,0-.4-.05c-.11,0-.18,0-.21.08a.51.51,0,0,0,0,.27.5.5,0,0,1,0,.13v0l-.06.09,0,0a.57.57,0,0,1-.29.06,3.64,3.64,0,0,1-.5,0h0l-.13,0a3.17,3.17,0,0,1-1.85-1.81s0,0,0,0a.31.31,0,0,0,0-.1c0-.47-.49-1.63-.49-2.05,0-.05,0-.09,0-.11a3.22,3.22,0,0,0,.31-1.11c0-.33.5-.31.5-.94s-.36-1.07-.73-1.08h-.12a.26.26,0,0,1-.2-.08h0A.34.34,0,0,1,38,8.18.22.22,0,0,1,38.07,8a.86.86,0,0,0,.17-.62c0-.09,0-.19,0-.31s-.31-.35-.59-.35-.63.1-.64.21.14.21.14.39a.52.52,0,0,1,0,.11v0a.43.43,0,0,1,0,.13c-.19.39-.69.37-.81.63s-.28.27-.55.27-.64,0-.65.34-.38,0-.63.29l-.1.07,0,0a1.33,1.33,0,0,1-.54.1,1.14,1.14,0,0,1-.42-.07.24.24,0,0,0-.13,0c-.2,0-.38.18-.6.28a.24.24,0,0,0-.16.26c0,.11,0,.22,0,.33a.28.28,0,0,1,0,.09.15.15,0,0,1,0,.07h0a.08.08,0,0,1-.07,0c-.07,0-.15,0-.23,0a.13.13,0,0,0-.1,0,.38.38,0,0,1-.23.11c-.06,0-.1,0-.1-.13s-.3-.25-.44-.51a.17.17,0,0,0-.14-.09c-.14,0-.32.15-.53.15a.41.41,0,0,1-.2-.06.38.38,0,0,0-.1,0h-.07l-.07,0c-.18,0-.35.08-.49.08a.23.23,0,0,1-.22-.16.68.68,0,0,0-.62-.39.41.41,0,0,0-.29.1l-.06,0m-5.71,5.1h0ZM28.6,9.27l0,0Zm.5,0,0,0ZM71.49,22.68l0,0Zm-1.22-.15h0Zm-.06-.08v0Zm-9.29-4.54h0Zm-6.51-4.67s0,0,0,0S54.43,13.23,54.41,13.24Zm-.2.16,0,0Zm-3.07.25Zm-3.81.29v0Zm-4.71,1.21h0ZM30.45,9.79l0,0Zm.4,3.12h0ZM28,15.65h0Zm-1.89,1.28h0Zm-.06-.06v0Zm-4.42-2.93h0ZM19.93,43.22h0Zm6.58-3,0,0Zm.09.09Zm23.54,35.6h0Zm.18-.11,0,0Zm.1,0h0Zm17.83-3.35s0,0,0,0S68.24,72.49,68.25,72.49ZM85,47.7l0,0ZM71,22h0Zm-1.12-.29h0Zm-6.32-2h0Zm0-.38,0,0ZM41.73,15.17l0,0ZM38.41,8.46h0ZM38,8.13s0,0,0,0S38,8.11,38,8.13ZM29.3,9.49l-.05-.06Zm-.5-.26h0Zm.81,3.42ZM29.84,14h0Zm-7.21.3h0Zm-6.51,14-.06,0ZM10,38.6l0,0Zm16.72,2.51a3.26,3.26,0,0,1-.05.33A3.26,3.26,0,0,0,26.75,41.11Zm10.62,9.25v0h0ZM43.6,86.55h0Zm0,0h0Zm3.48,1.86Zm5.34,5.87h0ZM75.4,69.72Z"/><path class="cls-2" d="M27.27,16h0Z"/><path class="cls-3" d="M79.18,24.91l-6.57-1a.88.88,0,0,1-.45-.17,1.13,1.13,0,0,1-.22-.53c-.3-1.1-1.6-1.53-2.71-1.83A49,49,0,0,1,62,18.82c-.89-.4-1.86-.93-2.09-1.88-.18-.69.11-1.45-.1-2.13A3.7,3.7,0,0,0,59,13.6a8.09,8.09,0,0,1-1.85-5.33c-.77,0-1.34.73-1.53,1.47A9.32,9.32,0,0,1,55.08,12a3.39,3.39,0,0,1-3.24,1.39c-1.24-.08-2.45-.48-3.69-.48a1.55,1.55,0,0,0-1.13.35.66.66,0,0,0,.08,1,4.93,4.93,0,0,0-3.08.28,8.56,8.56,0,0,1-2.49,1,3.08,3.08,0,0,1-2.94-2.41,9,9,0,0,1,.16-4.09,3,3,0,0,1-1.14-2.16L32.67,9.57a2.46,2.46,0,0,1-1,.36,2.38,2.38,0,0,1-.75-.1l-2.44-.62A3.88,3.88,0,0,0,30,12.4c.34.26.79.56.73,1a1,1,0,0,1-.37.56,9.84,9.84,0,0,1-6.25,2.6,1.42,1.42,0,0,1-1.22-.37c-.47-.59.1-1.61-.41-2.18-.35-.39-1-.29-1.5-.16L16.5,15a7.52,7.52,0,0,1,1.78.92L16.06,17.3c1.65,1.14,1.81,3.47,1.67,5.46-.16,2.36-.91,5.18-3.18,5.81-1,.27-2.07.05-3,.43-2.28.9-2.11,4.25-3.67,6.15L9,37.6c.64,1.34,1.47,2.84,2.92,3.17a2.57,2.57,0,0,0,3-2.12c.87,1.1.6,2.68.29,4.05A8.3,8.3,0,0,0,22.86,41a6.9,6.9,0,0,1,1.85-1.4,1.51,1.51,0,0,1,2,.7,2.64,2.64,0,0,1-.05,1.15,4.81,4.81,0,0,0,.64,3.34c1.66,2.62,5.37,2.67,8.26,3.81a3.8,3.8,0,0,1,2,1.56,1.76,1.76,0,0,1-.48,2.33A3.56,3.56,0,0,0,41.65,55a4.8,4.8,0,0,0,.63,2.65,1.65,1.65,0,0,0,2.39.41,19,19,0,0,1,7.13-.27l.87.37c.64,0,.9,0,.9-.91s-.55-.77.35-1.74c1.73-1.86,4-3.5,4.47-6,.16-1,.06-2.18.83-2.84a3.85,3.85,0,0,0,2.66,1.41l1.84.4c1.34.3,3,.5,3.87-.52s.57-2.4.51-3.68.53-2.9,1.81-2.87a1.6,1.6,0,0,0,2.79,1.46c.75-.94.37-2.55,1.34-3.25.71-.5,1.67-.19,2.51,0s2,.23,2.33-.56c-.56-1,.93-1.84,1.39-2.87a3.47,3.47,0,0,0,0-2l-1.56-8.87"/></svg>