<svg id="Camada_1" data-name="Camada 1" xmlns="http://www.w3.org/2000/svg" viewBox="0 0 35 35"><defs><style>.cls-1{fill:#eaeaea;}.cls-2{fill:#a9a9aa;stroke:#a9a9aa;stroke-miterlimit:10;}</style></defs><rect class="cls-1" x="0.93" y="0.93" width="33.14" height="33.14" rx="5.02"/><path class="cls-2" d="M15.78,30.83a1.42,1.42,0,0,1-.59-.14,1.38,1.38,0,0,1-.81-1.26V20.28L5.29,11.22a1.39,1.39,0,0,1-.41-1V8.63a1.39,1.39,0,0,1,1.4-1.4H27.7a1.39,1.39,0,0,1,1.4,1.4v1.59a1.39,1.39,0,0,1-.41,1L19.6,20.28v7a1.41,1.41,0,0,1-.49,1.05l-2.42,2.1A1.39,1.39,0,0,1,15.78,30.83ZM6.39,10.17l9.09,9.09a1.39,1.39,0,0,1,.41,1v8.9l2.18-1.88v-7a1.38,1.38,0,0,1,.4-1l9.09-9.09V8.71H6.39Z"/></svg>