<svg id="Camada_1" data-name="Camada 1" xmlns="http://www.w3.org/2000/svg" viewBox="0 0 35 35"><defs><style>.cls-1{fill:#eaeaea;}.cls-2{fill:#a9a9aa;stroke:#a9a9aa;stroke-miterlimit:10;stroke-width:0.5px;}</style></defs><rect class="cls-1" x="0.93" y="0.93" width="33.14" height="33.14" rx="5.02"/><path class="cls-2" d="M28.72,10H11a1.61,1.61,0,0,0-1.61,1.61V29.29A1.61,1.61,0,0,0,11,30.9H28.72a1.61,1.61,0,0,0,1.61-1.61V11.56A1.61,1.61,0,0,0,28.72,10Zm0,19.34H11V11.56H28.72Z"/><path class="cls-2" d="M6.15,6.72H23.89V8.33H25.5V6.72a1.61,1.61,0,0,0-1.61-1.61H6.15A1.61,1.61,0,0,0,4.54,6.72V24.45a1.62,1.62,0,0,0,1.61,1.62H7.77V24.45H6.15Z"/><path class="cls-2" d="M13.41,25.26H26.3a.81.81,0,0,0,.58-1.38l-3.23-3.22a.8.8,0,0,0-1.13,0l-1.05,1.05-2.65-2.66a.81.81,0,0,0-1.14,0l-4.84,4.84a.81.81,0,0,0,0,1.14A.79.79,0,0,0,13.41,25.26Z"/><circle class="cls-2" cx="23.89" cy="17.2" r="1.61"/></svg>