<svg id="Camada_1" data-name="Camada 1" xmlns="http://www.w3.org/2000/svg" viewBox="0 0 35 35"><defs><style>.cls-1{fill:#680f39;}.cls-2{fill:#fff;}</style></defs><circle class="cls-1" cx="18.21" cy="17.28" r="15"/><path class="cls-2" d="M11.82,23.81H24.46a2,2,0,0,0,2-2V13.43a2,2,0,0,0-2-2H11.82a2,2,0,0,0-2,2v8.39A2,2,0,0,0,11.82,23.81Zm13.82-2a.58.58,0,0,1,0,.19L21.41,17.8l-.57.56,4.37,4.38a1.14,1.14,0,0,1-.73.26H11.82a1.16,1.16,0,0,1-.73-.26l4.37-4.38L17,19.9a1.62,1.62,0,0,0,2.28,0l6.36-6.35ZM11.82,12.28H24.46a1.18,1.18,0,0,1,.89.4l-6.63,6.66a.82.82,0,0,1-1.13,0L11,12.68A1.16,1.16,0,0,1,11.82,12.28Zm-1.15,1.27,4.22,4.23L10.69,22c0-.06,0-.12,0-.19Z"/><path class="cls-2" d="M24.46,23.92H11.82a2.1,2.1,0,0,1-2.08-2.1V13.43a2.1,2.1,0,0,1,2.08-2.08H24.46a2.08,2.08,0,0,1,2.08,2.08v8.41A2.08,2.08,0,0,1,24.46,23.92ZM11.82,11.58A1.88,1.88,0,0,0,10,13.43v8.39a1.87,1.87,0,0,0,1.85,1.88H24.46a1.85,1.85,0,0,0,1.85-1.86V13.43a1.85,1.85,0,0,0-1.85-1.85ZM24.48,23.11H11.82a1.27,1.27,0,0,1-.8-.29l-.1-.08,4.54-4.53,1.62,1.61a1.5,1.5,0,0,0,1.07.44,1.56,1.56,0,0,0,1.06-.44l6.54-6.54v8.56a.56.56,0,0,1,0,.22l-.06.17-.12-.12L21.41,18l-.41.4,4.38,4.38-.1.08A1.25,1.25,0,0,1,24.48,23.11Zm-13.22-.39a1,1,0,0,0,.56.17H24.48a1,1,0,0,0,.56-.17l-4.21-4.21L19.36,20a1.74,1.74,0,0,1-2.44,0l-1.46-1.46Zm10.3-4.93,4,4v-8Zm-11,4.49v-.35a.36.36,0,0,1,0-.11V13.28l4.5,4.5Zm.21-8.46v7.94l4-4Zm7.38,5.85a1,1,0,0,1-.65-.25L10.8,12.69l.06-.08a1.27,1.27,0,0,1,1-.45H24.46a1.34,1.34,0,0,1,1,.44l.07.08-.08.08L18.8,19.42A.92.92,0,0,1,18.16,19.67Zm-7.06-7,6.57,6.58a.7.7,0,0,0,1,0l6.56-6.58a1.05,1.05,0,0,0-.74-.29H11.82A1,1,0,0,0,11.1,12.68Z"/></svg>